%TF.GenerationSoftware,KiCad,Pcbnew,5.1.9*%
%TF.CreationDate,2021-02-16T17:41:26+03:00*%
%TF.ProjectId,dual-mcp3201-pmod,6475616c-2d6d-4637-9033-3230312d706d,rev?*%
%TF.SameCoordinates,PX4c4b400PY8583b00*%
%TF.FileFunction,Paste,Top*%
%TF.FilePolarity,Positive*%
%FSLAX46Y46*%
G04 Gerber Fmt 4.6, Leading zero omitted, Abs format (unit mm)*
G04 Created by KiCad (PCBNEW 5.1.9) date 2021-02-16 17:41:26*
%MOMM*%
%LPD*%
G01*
G04 APERTURE LIST*
%TA.AperFunction,Profile*%
%ADD10C,0.050000*%
%TD*%
%ADD11R,0.600000X1.700000*%
%ADD12R,1.360000X0.450000*%
G04 APERTURE END LIST*
D10*
X50000000Y20000000D02*
X0Y20000000D01*
X50000000Y0D02*
X50000000Y20000000D01*
X0Y0D02*
X50000000Y0D01*
X0Y20000000D02*
X0Y0D01*
%TO.C,C12*%
G36*
G01*
X26437500Y17275000D02*
X26062500Y17275000D01*
G75*
G02*
X25875000Y17462500I0J187500D01*
G01*
X25875000Y17937500D01*
G75*
G02*
X26062500Y18125000I187500J0D01*
G01*
X26437500Y18125000D01*
G75*
G02*
X26625000Y17937500I0J-187500D01*
G01*
X26625000Y17462500D01*
G75*
G02*
X26437500Y17275000I-187500J0D01*
G01*
G37*
G36*
G01*
X26437500Y15525000D02*
X26062500Y15525000D01*
G75*
G02*
X25875000Y15712500I0J187500D01*
G01*
X25875000Y16187500D01*
G75*
G02*
X26062500Y16375000I187500J0D01*
G01*
X26437500Y16375000D01*
G75*
G02*
X26625000Y16187500I0J-187500D01*
G01*
X26625000Y15712500D01*
G75*
G02*
X26437500Y15525000I-187500J0D01*
G01*
G37*
%TD*%
%TO.C,C11*%
G36*
G01*
X23000000Y11887962D02*
X23000000Y12612038D01*
G75*
G02*
X23212962Y12825000I212962J0D01*
G01*
X24162038Y12825000D01*
G75*
G02*
X24375000Y12612038I0J-212962D01*
G01*
X24375000Y11887962D01*
G75*
G02*
X24162038Y11675000I-212962J0D01*
G01*
X23212962Y11675000D01*
G75*
G02*
X23000000Y11887962I0J212962D01*
G01*
G37*
G36*
G01*
X20125000Y11887962D02*
X20125000Y12612038D01*
G75*
G02*
X20337962Y12825000I212962J0D01*
G01*
X21287038Y12825000D01*
G75*
G02*
X21500000Y12612038I0J-212962D01*
G01*
X21500000Y11887962D01*
G75*
G02*
X21287038Y11675000I-212962J0D01*
G01*
X20337962Y11675000D01*
G75*
G02*
X20125000Y11887962I0J212962D01*
G01*
G37*
%TD*%
%TO.C,C10*%
G36*
G01*
X14300000Y14187500D02*
X14300000Y13812500D01*
G75*
G02*
X14112500Y13625000I-187500J0D01*
G01*
X13637500Y13625000D01*
G75*
G02*
X13450000Y13812500I0J187500D01*
G01*
X13450000Y14187500D01*
G75*
G02*
X13637500Y14375000I187500J0D01*
G01*
X14112500Y14375000D01*
G75*
G02*
X14300000Y14187500I0J-187500D01*
G01*
G37*
G36*
G01*
X16050000Y14187500D02*
X16050000Y13812500D01*
G75*
G02*
X15862500Y13625000I-187500J0D01*
G01*
X15387500Y13625000D01*
G75*
G02*
X15200000Y13812500I0J187500D01*
G01*
X15200000Y14187500D01*
G75*
G02*
X15387500Y14375000I187500J0D01*
G01*
X15862500Y14375000D01*
G75*
G02*
X16050000Y14187500I0J-187500D01*
G01*
G37*
%TD*%
%TO.C,C9*%
G36*
G01*
X9250000Y16362038D02*
X9250000Y15637962D01*
G75*
G02*
X9037038Y15425000I-212962J0D01*
G01*
X8087962Y15425000D01*
G75*
G02*
X7875000Y15637962I0J212962D01*
G01*
X7875000Y16362038D01*
G75*
G02*
X8087962Y16575000I212962J0D01*
G01*
X9037038Y16575000D01*
G75*
G02*
X9250000Y16362038I0J-212962D01*
G01*
G37*
G36*
G01*
X12125000Y16362038D02*
X12125000Y15637962D01*
G75*
G02*
X11912038Y15425000I-212962J0D01*
G01*
X10962962Y15425000D01*
G75*
G02*
X10750000Y15637962I0J212962D01*
G01*
X10750000Y16362038D01*
G75*
G02*
X10962962Y16575000I212962J0D01*
G01*
X11912038Y16575000D01*
G75*
G02*
X12125000Y16362038I0J-212962D01*
G01*
G37*
%TD*%
%TO.C,C8*%
G36*
G01*
X17562500Y17050000D02*
X17937500Y17050000D01*
G75*
G02*
X18125000Y16862500I0J-187500D01*
G01*
X18125000Y16387500D01*
G75*
G02*
X17937500Y16200000I-187500J0D01*
G01*
X17562500Y16200000D01*
G75*
G02*
X17375000Y16387500I0J187500D01*
G01*
X17375000Y16862500D01*
G75*
G02*
X17562500Y17050000I187500J0D01*
G01*
G37*
G36*
G01*
X17562500Y18800000D02*
X17937500Y18800000D01*
G75*
G02*
X18125000Y18612500I0J-187500D01*
G01*
X18125000Y18137500D01*
G75*
G02*
X17937500Y17950000I-187500J0D01*
G01*
X17562500Y17950000D01*
G75*
G02*
X17375000Y18137500I0J187500D01*
G01*
X17375000Y18612500D01*
G75*
G02*
X17562500Y18800000I187500J0D01*
G01*
G37*
%TD*%
%TO.C,C7*%
G36*
G01*
X40137962Y13562500D02*
X40862038Y13562500D01*
G75*
G02*
X41075000Y13349538I0J-212962D01*
G01*
X41075000Y12400462D01*
G75*
G02*
X40862038Y12187500I-212962J0D01*
G01*
X40137962Y12187500D01*
G75*
G02*
X39925000Y12400462I0J212962D01*
G01*
X39925000Y13349538D01*
G75*
G02*
X40137962Y13562500I212962J0D01*
G01*
G37*
G36*
G01*
X40137962Y16437500D02*
X40862038Y16437500D01*
G75*
G02*
X41075000Y16224538I0J-212962D01*
G01*
X41075000Y15275462D01*
G75*
G02*
X40862038Y15062500I-212962J0D01*
G01*
X40137962Y15062500D01*
G75*
G02*
X39925000Y15275462I0J212962D01*
G01*
X39925000Y16224538D01*
G75*
G02*
X40137962Y16437500I212962J0D01*
G01*
G37*
%TD*%
%TO.C,C14*%
G36*
G01*
X29887962Y9750000D02*
X30612038Y9750000D01*
G75*
G02*
X30825000Y9537038I0J-212962D01*
G01*
X30825000Y8587962D01*
G75*
G02*
X30612038Y8375000I-212962J0D01*
G01*
X29887962Y8375000D01*
G75*
G02*
X29675000Y8587962I0J212962D01*
G01*
X29675000Y9537038D01*
G75*
G02*
X29887962Y9750000I212962J0D01*
G01*
G37*
G36*
G01*
X29887962Y12625000D02*
X30612038Y12625000D01*
G75*
G02*
X30825000Y12412038I0J-212962D01*
G01*
X30825000Y11462962D01*
G75*
G02*
X30612038Y11250000I-212962J0D01*
G01*
X29887962Y11250000D01*
G75*
G02*
X29675000Y11462962I0J212962D01*
G01*
X29675000Y12412038D01*
G75*
G02*
X29887962Y12625000I212962J0D01*
G01*
G37*
%TD*%
%TO.C,C6*%
G36*
G01*
X37425000Y7437500D02*
X37425000Y7062500D01*
G75*
G02*
X37237500Y6875000I-187500J0D01*
G01*
X36762500Y6875000D01*
G75*
G02*
X36575000Y7062500I0J187500D01*
G01*
X36575000Y7437500D01*
G75*
G02*
X36762500Y7625000I187500J0D01*
G01*
X37237500Y7625000D01*
G75*
G02*
X37425000Y7437500I0J-187500D01*
G01*
G37*
G36*
G01*
X39175000Y7437500D02*
X39175000Y7062500D01*
G75*
G02*
X38987500Y6875000I-187500J0D01*
G01*
X38512500Y6875000D01*
G75*
G02*
X38325000Y7062500I0J187500D01*
G01*
X38325000Y7437500D01*
G75*
G02*
X38512500Y7625000I187500J0D01*
G01*
X38987500Y7625000D01*
G75*
G02*
X39175000Y7437500I0J-187500D01*
G01*
G37*
%TD*%
%TO.C,R10*%
G36*
G01*
X17562500Y12550000D02*
X17937500Y12550000D01*
G75*
G02*
X18125000Y12362500I0J-187500D01*
G01*
X18125000Y11887500D01*
G75*
G02*
X17937500Y11700000I-187500J0D01*
G01*
X17562500Y11700000D01*
G75*
G02*
X17375000Y11887500I0J187500D01*
G01*
X17375000Y12362500D01*
G75*
G02*
X17562500Y12550000I187500J0D01*
G01*
G37*
G36*
G01*
X17562500Y14300000D02*
X17937500Y14300000D01*
G75*
G02*
X18125000Y14112500I0J-187500D01*
G01*
X18125000Y13637500D01*
G75*
G02*
X17937500Y13450000I-187500J0D01*
G01*
X17562500Y13450000D01*
G75*
G02*
X17375000Y13637500I0J187500D01*
G01*
X17375000Y14112500D01*
G75*
G02*
X17562500Y14300000I187500J0D01*
G01*
G37*
%TD*%
%TO.C,R9*%
G36*
G01*
X15200000Y18312500D02*
X15200000Y18687500D01*
G75*
G02*
X15387500Y18875000I187500J0D01*
G01*
X15862500Y18875000D01*
G75*
G02*
X16050000Y18687500I0J-187500D01*
G01*
X16050000Y18312500D01*
G75*
G02*
X15862500Y18125000I-187500J0D01*
G01*
X15387500Y18125000D01*
G75*
G02*
X15200000Y18312500I0J187500D01*
G01*
G37*
G36*
G01*
X13450000Y18312500D02*
X13450000Y18687500D01*
G75*
G02*
X13637500Y18875000I187500J0D01*
G01*
X14112500Y18875000D01*
G75*
G02*
X14300000Y18687500I0J-187500D01*
G01*
X14300000Y18312500D01*
G75*
G02*
X14112500Y18125000I-187500J0D01*
G01*
X13637500Y18125000D01*
G75*
G02*
X13450000Y18312500I0J187500D01*
G01*
G37*
%TD*%
%TO.C,R8*%
G36*
G01*
X15200000Y11812500D02*
X15200000Y12187500D01*
G75*
G02*
X15387500Y12375000I187500J0D01*
G01*
X15862500Y12375000D01*
G75*
G02*
X16050000Y12187500I0J-187500D01*
G01*
X16050000Y11812500D01*
G75*
G02*
X15862500Y11625000I-187500J0D01*
G01*
X15387500Y11625000D01*
G75*
G02*
X15200000Y11812500I0J187500D01*
G01*
G37*
G36*
G01*
X13450000Y11812500D02*
X13450000Y12187500D01*
G75*
G02*
X13637500Y12375000I187500J0D01*
G01*
X14112500Y12375000D01*
G75*
G02*
X14300000Y12187500I0J-187500D01*
G01*
X14300000Y11812500D01*
G75*
G02*
X14112500Y11625000I-187500J0D01*
G01*
X13637500Y11625000D01*
G75*
G02*
X13450000Y11812500I0J187500D01*
G01*
G37*
%TD*%
%TO.C,R7*%
G36*
G01*
X26062500Y12050000D02*
X26437500Y12050000D01*
G75*
G02*
X26625000Y11862500I0J-187500D01*
G01*
X26625000Y11387500D01*
G75*
G02*
X26437500Y11200000I-187500J0D01*
G01*
X26062500Y11200000D01*
G75*
G02*
X25875000Y11387500I0J187500D01*
G01*
X25875000Y11862500D01*
G75*
G02*
X26062500Y12050000I187500J0D01*
G01*
G37*
G36*
G01*
X26062500Y13800000D02*
X26437500Y13800000D01*
G75*
G02*
X26625000Y13612500I0J-187500D01*
G01*
X26625000Y13137500D01*
G75*
G02*
X26437500Y12950000I-187500J0D01*
G01*
X26062500Y12950000D01*
G75*
G02*
X25875000Y13137500I0J187500D01*
G01*
X25875000Y13612500D01*
G75*
G02*
X26062500Y13800000I187500J0D01*
G01*
G37*
%TD*%
%TO.C,R6*%
G36*
G01*
X15200000Y16312500D02*
X15200000Y16687500D01*
G75*
G02*
X15387500Y16875000I187500J0D01*
G01*
X15862500Y16875000D01*
G75*
G02*
X16050000Y16687500I0J-187500D01*
G01*
X16050000Y16312500D01*
G75*
G02*
X15862500Y16125000I-187500J0D01*
G01*
X15387500Y16125000D01*
G75*
G02*
X15200000Y16312500I0J187500D01*
G01*
G37*
G36*
G01*
X13450000Y16312500D02*
X13450000Y16687500D01*
G75*
G02*
X13637500Y16875000I187500J0D01*
G01*
X14112500Y16875000D01*
G75*
G02*
X14300000Y16687500I0J-187500D01*
G01*
X14300000Y16312500D01*
G75*
G02*
X14112500Y16125000I-187500J0D01*
G01*
X13637500Y16125000D01*
G75*
G02*
X13450000Y16312500I0J187500D01*
G01*
G37*
%TD*%
%TO.C,R5*%
G36*
G01*
X17562500Y2300000D02*
X17937500Y2300000D01*
G75*
G02*
X18125000Y2112500I0J-187500D01*
G01*
X18125000Y1637500D01*
G75*
G02*
X17937500Y1450000I-187500J0D01*
G01*
X17562500Y1450000D01*
G75*
G02*
X17375000Y1637500I0J187500D01*
G01*
X17375000Y2112500D01*
G75*
G02*
X17562500Y2300000I187500J0D01*
G01*
G37*
G36*
G01*
X17562500Y4050000D02*
X17937500Y4050000D01*
G75*
G02*
X18125000Y3862500I0J-187500D01*
G01*
X18125000Y3387500D01*
G75*
G02*
X17937500Y3200000I-187500J0D01*
G01*
X17562500Y3200000D01*
G75*
G02*
X17375000Y3387500I0J187500D01*
G01*
X17375000Y3862500D01*
G75*
G02*
X17562500Y4050000I187500J0D01*
G01*
G37*
%TD*%
%TO.C,R4*%
G36*
G01*
X15200000Y8062500D02*
X15200000Y8437500D01*
G75*
G02*
X15387500Y8625000I187500J0D01*
G01*
X15862500Y8625000D01*
G75*
G02*
X16050000Y8437500I0J-187500D01*
G01*
X16050000Y8062500D01*
G75*
G02*
X15862500Y7875000I-187500J0D01*
G01*
X15387500Y7875000D01*
G75*
G02*
X15200000Y8062500I0J187500D01*
G01*
G37*
G36*
G01*
X13450000Y8062500D02*
X13450000Y8437500D01*
G75*
G02*
X13637500Y8625000I187500J0D01*
G01*
X14112500Y8625000D01*
G75*
G02*
X14300000Y8437500I0J-187500D01*
G01*
X14300000Y8062500D01*
G75*
G02*
X14112500Y7875000I-187500J0D01*
G01*
X13637500Y7875000D01*
G75*
G02*
X13450000Y8062500I0J187500D01*
G01*
G37*
%TD*%
%TO.C,R3*%
G36*
G01*
X15200000Y1562500D02*
X15200000Y1937500D01*
G75*
G02*
X15387500Y2125000I187500J0D01*
G01*
X15862500Y2125000D01*
G75*
G02*
X16050000Y1937500I0J-187500D01*
G01*
X16050000Y1562500D01*
G75*
G02*
X15862500Y1375000I-187500J0D01*
G01*
X15387500Y1375000D01*
G75*
G02*
X15200000Y1562500I0J187500D01*
G01*
G37*
G36*
G01*
X13450000Y1562500D02*
X13450000Y1937500D01*
G75*
G02*
X13637500Y2125000I187500J0D01*
G01*
X14112500Y2125000D01*
G75*
G02*
X14300000Y1937500I0J-187500D01*
G01*
X14300000Y1562500D01*
G75*
G02*
X14112500Y1375000I-187500J0D01*
G01*
X13637500Y1375000D01*
G75*
G02*
X13450000Y1562500I0J187500D01*
G01*
G37*
%TD*%
%TO.C,R2*%
G36*
G01*
X26437500Y3950000D02*
X26062500Y3950000D01*
G75*
G02*
X25875000Y4137500I0J187500D01*
G01*
X25875000Y4612500D01*
G75*
G02*
X26062500Y4800000I187500J0D01*
G01*
X26437500Y4800000D01*
G75*
G02*
X26625000Y4612500I0J-187500D01*
G01*
X26625000Y4137500D01*
G75*
G02*
X26437500Y3950000I-187500J0D01*
G01*
G37*
G36*
G01*
X26437500Y2200000D02*
X26062500Y2200000D01*
G75*
G02*
X25875000Y2387500I0J187500D01*
G01*
X25875000Y2862500D01*
G75*
G02*
X26062500Y3050000I187500J0D01*
G01*
X26437500Y3050000D01*
G75*
G02*
X26625000Y2862500I0J-187500D01*
G01*
X26625000Y2387500D01*
G75*
G02*
X26437500Y2200000I-187500J0D01*
G01*
G37*
%TD*%
%TO.C,R1*%
G36*
G01*
X15200000Y6062500D02*
X15200000Y6437500D01*
G75*
G02*
X15387500Y6625000I187500J0D01*
G01*
X15862500Y6625000D01*
G75*
G02*
X16050000Y6437500I0J-187500D01*
G01*
X16050000Y6062500D01*
G75*
G02*
X15862500Y5875000I-187500J0D01*
G01*
X15387500Y5875000D01*
G75*
G02*
X15200000Y6062500I0J187500D01*
G01*
G37*
G36*
G01*
X13450000Y6062500D02*
X13450000Y6437500D01*
G75*
G02*
X13637500Y6625000I187500J0D01*
G01*
X14112500Y6625000D01*
G75*
G02*
X14300000Y6437500I0J-187500D01*
G01*
X14300000Y6062500D01*
G75*
G02*
X14112500Y5875000I-187500J0D01*
G01*
X13637500Y5875000D01*
G75*
G02*
X13450000Y6062500I0J187500D01*
G01*
G37*
%TD*%
D11*
%TO.C,D5*%
X34000000Y8500000D03*
X33050000Y11500000D03*
X34950000Y11500000D03*
%TD*%
%TO.C,D4*%
G36*
G01*
X34900000Y17792500D02*
X34900000Y18017500D01*
G75*
G02*
X35012500Y18130000I112500J0D01*
G01*
X36562500Y18130000D01*
G75*
G02*
X36675000Y18017500I0J-112500D01*
G01*
X36675000Y17792500D01*
G75*
G02*
X36562500Y17680000I-112500J0D01*
G01*
X35012500Y17680000D01*
G75*
G02*
X34900000Y17792500I0J112500D01*
G01*
G37*
G36*
G01*
X34900000Y16522500D02*
X34900000Y16747500D01*
G75*
G02*
X35012500Y16860000I112500J0D01*
G01*
X36562500Y16860000D01*
G75*
G02*
X36675000Y16747500I0J-112500D01*
G01*
X36675000Y16522500D01*
G75*
G02*
X36562500Y16410000I-112500J0D01*
G01*
X35012500Y16410000D01*
G75*
G02*
X34900000Y16522500I0J112500D01*
G01*
G37*
G36*
G01*
X34900000Y15252500D02*
X34900000Y15477500D01*
G75*
G02*
X35012500Y15590000I112500J0D01*
G01*
X36562500Y15590000D01*
G75*
G02*
X36675000Y15477500I0J-112500D01*
G01*
X36675000Y15252500D01*
G75*
G02*
X36562500Y15140000I-112500J0D01*
G01*
X35012500Y15140000D01*
G75*
G02*
X34900000Y15252500I0J112500D01*
G01*
G37*
G36*
G01*
X34900000Y13982500D02*
X34900000Y14207500D01*
G75*
G02*
X35012500Y14320000I112500J0D01*
G01*
X36562500Y14320000D01*
G75*
G02*
X36675000Y14207500I0J-112500D01*
G01*
X36675000Y13982500D01*
G75*
G02*
X36562500Y13870000I-112500J0D01*
G01*
X35012500Y13870000D01*
G75*
G02*
X34900000Y13982500I0J112500D01*
G01*
G37*
G36*
G01*
X29825000Y13982500D02*
X29825000Y14207500D01*
G75*
G02*
X29937500Y14320000I112500J0D01*
G01*
X31487500Y14320000D01*
G75*
G02*
X31600000Y14207500I0J-112500D01*
G01*
X31600000Y13982500D01*
G75*
G02*
X31487500Y13870000I-112500J0D01*
G01*
X29937500Y13870000D01*
G75*
G02*
X29825000Y13982500I0J112500D01*
G01*
G37*
G36*
G01*
X29825000Y15252500D02*
X29825000Y15477500D01*
G75*
G02*
X29937500Y15590000I112500J0D01*
G01*
X31487500Y15590000D01*
G75*
G02*
X31600000Y15477500I0J-112500D01*
G01*
X31600000Y15252500D01*
G75*
G02*
X31487500Y15140000I-112500J0D01*
G01*
X29937500Y15140000D01*
G75*
G02*
X29825000Y15252500I0J112500D01*
G01*
G37*
G36*
G01*
X29825000Y16522500D02*
X29825000Y16747500D01*
G75*
G02*
X29937500Y16860000I112500J0D01*
G01*
X31487500Y16860000D01*
G75*
G02*
X31600000Y16747500I0J-112500D01*
G01*
X31600000Y16522500D01*
G75*
G02*
X31487500Y16410000I-112500J0D01*
G01*
X29937500Y16410000D01*
G75*
G02*
X29825000Y16522500I0J112500D01*
G01*
G37*
G36*
G01*
X29825000Y17792500D02*
X29825000Y18017500D01*
G75*
G02*
X29937500Y18130000I112500J0D01*
G01*
X31487500Y18130000D01*
G75*
G02*
X31600000Y18017500I0J-112500D01*
G01*
X31600000Y17792500D01*
G75*
G02*
X31487500Y17680000I-112500J0D01*
G01*
X29937500Y17680000D01*
G75*
G02*
X29825000Y17792500I0J112500D01*
G01*
G37*
%TD*%
D12*
%TO.C,D3*%
X23600000Y17700000D03*
X23600000Y15800000D03*
X20900000Y15800000D03*
X20900000Y16750000D03*
X20900000Y17700000D03*
%TD*%
%TO.C,D2*%
G36*
G01*
X34900000Y5292500D02*
X34900000Y5517500D01*
G75*
G02*
X35012500Y5630000I112500J0D01*
G01*
X36562500Y5630000D01*
G75*
G02*
X36675000Y5517500I0J-112500D01*
G01*
X36675000Y5292500D01*
G75*
G02*
X36562500Y5180000I-112500J0D01*
G01*
X35012500Y5180000D01*
G75*
G02*
X34900000Y5292500I0J112500D01*
G01*
G37*
G36*
G01*
X34900000Y4022500D02*
X34900000Y4247500D01*
G75*
G02*
X35012500Y4360000I112500J0D01*
G01*
X36562500Y4360000D01*
G75*
G02*
X36675000Y4247500I0J-112500D01*
G01*
X36675000Y4022500D01*
G75*
G02*
X36562500Y3910000I-112500J0D01*
G01*
X35012500Y3910000D01*
G75*
G02*
X34900000Y4022500I0J112500D01*
G01*
G37*
G36*
G01*
X34900000Y2752500D02*
X34900000Y2977500D01*
G75*
G02*
X35012500Y3090000I112500J0D01*
G01*
X36562500Y3090000D01*
G75*
G02*
X36675000Y2977500I0J-112500D01*
G01*
X36675000Y2752500D01*
G75*
G02*
X36562500Y2640000I-112500J0D01*
G01*
X35012500Y2640000D01*
G75*
G02*
X34900000Y2752500I0J112500D01*
G01*
G37*
G36*
G01*
X34900000Y1482500D02*
X34900000Y1707500D01*
G75*
G02*
X35012500Y1820000I112500J0D01*
G01*
X36562500Y1820000D01*
G75*
G02*
X36675000Y1707500I0J-112500D01*
G01*
X36675000Y1482500D01*
G75*
G02*
X36562500Y1370000I-112500J0D01*
G01*
X35012500Y1370000D01*
G75*
G02*
X34900000Y1482500I0J112500D01*
G01*
G37*
G36*
G01*
X29825000Y1482500D02*
X29825000Y1707500D01*
G75*
G02*
X29937500Y1820000I112500J0D01*
G01*
X31487500Y1820000D01*
G75*
G02*
X31600000Y1707500I0J-112500D01*
G01*
X31600000Y1482500D01*
G75*
G02*
X31487500Y1370000I-112500J0D01*
G01*
X29937500Y1370000D01*
G75*
G02*
X29825000Y1482500I0J112500D01*
G01*
G37*
G36*
G01*
X29825000Y2752500D02*
X29825000Y2977500D01*
G75*
G02*
X29937500Y3090000I112500J0D01*
G01*
X31487500Y3090000D01*
G75*
G02*
X31600000Y2977500I0J-112500D01*
G01*
X31600000Y2752500D01*
G75*
G02*
X31487500Y2640000I-112500J0D01*
G01*
X29937500Y2640000D01*
G75*
G02*
X29825000Y2752500I0J112500D01*
G01*
G37*
G36*
G01*
X29825000Y4022500D02*
X29825000Y4247500D01*
G75*
G02*
X29937500Y4360000I112500J0D01*
G01*
X31487500Y4360000D01*
G75*
G02*
X31600000Y4247500I0J-112500D01*
G01*
X31600000Y4022500D01*
G75*
G02*
X31487500Y3910000I-112500J0D01*
G01*
X29937500Y3910000D01*
G75*
G02*
X29825000Y4022500I0J112500D01*
G01*
G37*
G36*
G01*
X29825000Y5292500D02*
X29825000Y5517500D01*
G75*
G02*
X29937500Y5630000I112500J0D01*
G01*
X31487500Y5630000D01*
G75*
G02*
X31600000Y5517500I0J-112500D01*
G01*
X31600000Y5292500D01*
G75*
G02*
X31487500Y5180000I-112500J0D01*
G01*
X29937500Y5180000D01*
G75*
G02*
X29825000Y5292500I0J112500D01*
G01*
G37*
%TD*%
%TO.C,D1*%
X23600000Y7200000D03*
X23600000Y5300000D03*
X20900000Y5300000D03*
X20900000Y6250000D03*
X20900000Y7200000D03*
%TD*%
%TO.C,C13*%
G36*
G01*
X39300000Y18437500D02*
X39300000Y18062500D01*
G75*
G02*
X39112500Y17875000I-187500J0D01*
G01*
X38637500Y17875000D01*
G75*
G02*
X38450000Y18062500I0J187500D01*
G01*
X38450000Y18437500D01*
G75*
G02*
X38637500Y18625000I187500J0D01*
G01*
X39112500Y18625000D01*
G75*
G02*
X39300000Y18437500I0J-187500D01*
G01*
G37*
G36*
G01*
X41050000Y18437500D02*
X41050000Y18062500D01*
G75*
G02*
X40862500Y17875000I-187500J0D01*
G01*
X40387500Y17875000D01*
G75*
G02*
X40200000Y18062500I0J187500D01*
G01*
X40200000Y18437500D01*
G75*
G02*
X40387500Y18625000I187500J0D01*
G01*
X40862500Y18625000D01*
G75*
G02*
X41050000Y18437500I0J-187500D01*
G01*
G37*
%TD*%
%TO.C,C5*%
G36*
G01*
X26062500Y6800000D02*
X26437500Y6800000D01*
G75*
G02*
X26625000Y6612500I0J-187500D01*
G01*
X26625000Y6137500D01*
G75*
G02*
X26437500Y5950000I-187500J0D01*
G01*
X26062500Y5950000D01*
G75*
G02*
X25875000Y6137500I0J187500D01*
G01*
X25875000Y6612500D01*
G75*
G02*
X26062500Y6800000I187500J0D01*
G01*
G37*
G36*
G01*
X26062500Y8550000D02*
X26437500Y8550000D01*
G75*
G02*
X26625000Y8362500I0J-187500D01*
G01*
X26625000Y7887500D01*
G75*
G02*
X26437500Y7700000I-187500J0D01*
G01*
X26062500Y7700000D01*
G75*
G02*
X25875000Y7887500I0J187500D01*
G01*
X25875000Y8362500D01*
G75*
G02*
X26062500Y8550000I187500J0D01*
G01*
G37*
%TD*%
%TO.C,C4*%
G36*
G01*
X23000000Y1637962D02*
X23000000Y2362038D01*
G75*
G02*
X23212962Y2575000I212962J0D01*
G01*
X24162038Y2575000D01*
G75*
G02*
X24375000Y2362038I0J-212962D01*
G01*
X24375000Y1637962D01*
G75*
G02*
X24162038Y1425000I-212962J0D01*
G01*
X23212962Y1425000D01*
G75*
G02*
X23000000Y1637962I0J212962D01*
G01*
G37*
G36*
G01*
X20125000Y1637962D02*
X20125000Y2362038D01*
G75*
G02*
X20337962Y2575000I212962J0D01*
G01*
X21287038Y2575000D01*
G75*
G02*
X21500000Y2362038I0J-212962D01*
G01*
X21500000Y1637962D01*
G75*
G02*
X21287038Y1425000I-212962J0D01*
G01*
X20337962Y1425000D01*
G75*
G02*
X20125000Y1637962I0J212962D01*
G01*
G37*
%TD*%
%TO.C,C3*%
G36*
G01*
X14300000Y3937500D02*
X14300000Y3562500D01*
G75*
G02*
X14112500Y3375000I-187500J0D01*
G01*
X13637500Y3375000D01*
G75*
G02*
X13450000Y3562500I0J187500D01*
G01*
X13450000Y3937500D01*
G75*
G02*
X13637500Y4125000I187500J0D01*
G01*
X14112500Y4125000D01*
G75*
G02*
X14300000Y3937500I0J-187500D01*
G01*
G37*
G36*
G01*
X16050000Y3937500D02*
X16050000Y3562500D01*
G75*
G02*
X15862500Y3375000I-187500J0D01*
G01*
X15387500Y3375000D01*
G75*
G02*
X15200000Y3562500I0J187500D01*
G01*
X15200000Y3937500D01*
G75*
G02*
X15387500Y4125000I187500J0D01*
G01*
X15862500Y4125000D01*
G75*
G02*
X16050000Y3937500I0J-187500D01*
G01*
G37*
%TD*%
%TO.C,C2*%
G36*
G01*
X9250000Y4362038D02*
X9250000Y3637962D01*
G75*
G02*
X9037038Y3425000I-212962J0D01*
G01*
X8087962Y3425000D01*
G75*
G02*
X7875000Y3637962I0J212962D01*
G01*
X7875000Y4362038D01*
G75*
G02*
X8087962Y4575000I212962J0D01*
G01*
X9037038Y4575000D01*
G75*
G02*
X9250000Y4362038I0J-212962D01*
G01*
G37*
G36*
G01*
X12125000Y4362038D02*
X12125000Y3637962D01*
G75*
G02*
X11912038Y3425000I-212962J0D01*
G01*
X10962962Y3425000D01*
G75*
G02*
X10750000Y3637962I0J212962D01*
G01*
X10750000Y4362038D01*
G75*
G02*
X10962962Y4575000I212962J0D01*
G01*
X11912038Y4575000D01*
G75*
G02*
X12125000Y4362038I0J-212962D01*
G01*
G37*
%TD*%
%TO.C,C1*%
G36*
G01*
X17562500Y6800000D02*
X17937500Y6800000D01*
G75*
G02*
X18125000Y6612500I0J-187500D01*
G01*
X18125000Y6137500D01*
G75*
G02*
X17937500Y5950000I-187500J0D01*
G01*
X17562500Y5950000D01*
G75*
G02*
X17375000Y6137500I0J187500D01*
G01*
X17375000Y6612500D01*
G75*
G02*
X17562500Y6800000I187500J0D01*
G01*
G37*
G36*
G01*
X17562500Y8550000D02*
X17937500Y8550000D01*
G75*
G02*
X18125000Y8362500I0J-187500D01*
G01*
X18125000Y7887500D01*
G75*
G02*
X17937500Y7700000I-187500J0D01*
G01*
X17562500Y7700000D01*
G75*
G02*
X17375000Y7887500I0J187500D01*
G01*
X17375000Y8362500D01*
G75*
G02*
X17562500Y8550000I187500J0D01*
G01*
G37*
%TD*%
M02*
