M48
; DRILL file {KiCad 5.1.9} date Tue Feb 16 17:34:46 2021
; FORMAT={-:-/ absolute / inch / decimal}
; #@! TF.CreationDate,2021-02-16T17:34:46+03:00
; #@! TF.GenerationSoftware,Kicad,Pcbnew,5.1.9
; #@! TF.FileFunction,Plated,1,2,PTH
FMAT,2
INCH
T1C0.0157
T2C0.0394
%
G90
G05
T1
X0.4606Y0.7343
X0.4606Y0.4567
X0.4606Y0.3307
X0.6988Y0.5925
X0.6988Y0.189
X0.7547Y0.0972
X0.7657Y0.6594
X0.7657Y0.2461
X0.7661Y0.7114
X0.9331Y0.537
X0.9331Y0.1329
X1.0106Y0.0469
X1.0335Y0.5807
X1.0335Y0.3661
X1.1437Y0.063
X1.1455Y0.5549
X1.1909Y0.2953
X1.289Y0.7307
X1.3878Y0.3346
X1.4872Y0.6565
X1.4872Y0.6043
X1.4872Y0.5551
X1.5256Y0.3327
X1.628Y0.0472
X1.6457Y0.7185
T2
X0.0787Y0.4902
X0.087Y0.6988
X0.087Y0.0886
X0.1496Y0.2972
X0.187Y0.6988
X0.187Y0.0886
X0.3465Y0.4902
X1.7177Y0.6437
X1.7177Y0.5437
X1.7177Y0.4437
X1.7177Y0.3437
X1.7177Y0.2437
X1.7177Y0.1437
X1.8177Y0.6437
X1.8177Y0.5437
X1.8177Y0.4437
X1.8177Y0.3437
X1.8177Y0.2437
X1.8177Y0.1437
T0
M30
