%TF.GenerationSoftware,KiCad,Pcbnew,5.1.9*%
%TF.CreationDate,2021-01-25T14:22:29+03:00*%
%TF.ProjectId,dual-mcp3201-pmod,6475616c-2d6d-4637-9033-3230312d706d,rev?*%
%TF.SameCoordinates,PX4c4b400PY8583b00*%
%TF.FileFunction,Copper,L2,Bot*%
%TF.FilePolarity,Positive*%
%FSLAX46Y46*%
G04 Gerber Fmt 4.6, Leading zero omitted, Abs format (unit mm)*
G04 Created by KiCad (PCBNEW 5.1.9) date 2021-01-25 14:22:29*
%MOMM*%
%LPD*%
G01*
G04 APERTURE LIST*
%TA.AperFunction,ComponentPad*%
%ADD10O,1.700000X1.700000*%
%TD*%
%TA.AperFunction,ComponentPad*%
%ADD11R,1.700000X1.700000*%
%TD*%
%TA.AperFunction,ComponentPad*%
%ADD12C,1.700000*%
%TD*%
%TA.AperFunction,ComponentPad*%
%ADD13C,2.000000*%
%TD*%
%TA.AperFunction,ViaPad*%
%ADD14C,0.800000*%
%TD*%
%TA.AperFunction,Conductor*%
%ADD15C,0.400000*%
%TD*%
%TA.AperFunction,Conductor*%
%ADD16C,0.300000*%
%TD*%
%TA.AperFunction,Conductor*%
%ADD17C,0.350000*%
%TD*%
%TA.AperFunction,Conductor*%
%ADD18C,0.100000*%
%TD*%
G04 APERTURE END LIST*
D10*
%TO.P,X4,2*%
%TO.N,GND*%
X2210000Y17750000D03*
D11*
%TO.P,X4,1*%
%TO.N,Net-(C9-Pad1)*%
X4750000Y17750000D03*
%TD*%
D10*
%TO.P,X3,2*%
%TO.N,GND*%
X2210000Y2250000D03*
D11*
%TO.P,X3,1*%
%TO.N,Net-(C2-Pad1)*%
X4750000Y2250000D03*
%TD*%
D12*
%TO.P,X2,7*%
%TO.N,/CS_N1*%
X46170000Y3650000D03*
D11*
%TO.P,X2,1*%
%TO.N,/CS_N0*%
X43630000Y3650000D03*
D10*
%TO.P,X2,8*%
%TO.N,Net-(X2-Pad8)*%
X46170000Y6190000D03*
%TO.P,X2,2*%
%TO.N,Net-(X2-Pad2)*%
X43630000Y6190000D03*
%TO.P,X2,9*%
%TO.N,/MISO1*%
X46170000Y8730000D03*
%TO.P,X2,3*%
%TO.N,/MISO0*%
X43630000Y8730000D03*
%TO.P,X2,10*%
%TO.N,/SCLK1*%
X46170000Y11270000D03*
%TO.P,X2,4*%
%TO.N,/SCLK0*%
X43630000Y11270000D03*
%TO.P,X2,11*%
%TO.N,GND*%
X46170000Y13810000D03*
%TO.P,X2,5*%
X43630000Y13810000D03*
%TO.P,X2,12*%
%TO.N,+VDD_3.3V*%
X46170000Y16350000D03*
%TO.P,X2,6*%
X43630000Y16350000D03*
%TD*%
D13*
%TO.P,X1,3*%
%TO.N,Net-(C9-Pad1)*%
X8800000Y12450000D03*
%TO.P,X1,2*%
%TO.N,Net-(C2-Pad1)*%
X3800000Y7550000D03*
%TO.P,X1,1*%
%TO.N,GND*%
X2000000Y12450000D03*
%TD*%
D14*
%TO.N,*%
X41350000Y1200000D03*
%TO.N,Net-(C1-Pad2)*%
X25670000Y1190000D03*
X19170000Y2470000D03*
%TO.N,GND*%
X11700000Y18650000D03*
X11700000Y8400000D03*
X11700000Y11600000D03*
X38750000Y8450000D03*
X30250000Y7500000D03*
X35250000Y8500000D03*
X29095000Y14095000D03*
X19450000Y6250000D03*
X19450000Y16750000D03*
X26250000Y14750000D03*
X26250000Y9300000D03*
X29050000Y1600000D03*
X23700000Y3375000D03*
X17750000Y4800000D03*
X17750000Y15050000D03*
X23700000Y13640000D03*
X41799998Y18250000D03*
%TO.N,/SCLK1*%
X37775000Y16675000D03*
%TO.N,/MISO1*%
X37775000Y15350000D03*
%TO.N,/CS_N1*%
X37775000Y14100000D03*
%TO.N,Net-(C8-Pad2)*%
X19460000Y18070000D03*
X32740000Y18560000D03*
%TD*%
D15*
%TO.N,Net-(C1-Pad2)*%
X19180000Y2470000D02*
X19170000Y2470000D01*
X20460000Y1190000D02*
X19180000Y2470000D01*
X25670000Y1190000D02*
X20460000Y1190000D01*
%TO.N,/SCLK1*%
X37775000Y16675000D02*
X37845000Y16675000D01*
D16*
X40020000Y14430000D02*
X37775000Y16675000D01*
X44900000Y12540000D02*
X41910000Y12540000D01*
X41910000Y12540000D02*
X40020000Y14430000D01*
X46170000Y11270000D02*
X44900000Y12540000D01*
%TO.N,/MISO1*%
X37775000Y15275000D02*
X37775000Y15350000D01*
X43050000Y10000000D02*
X37775000Y15275000D01*
X44900000Y10000000D02*
X43050000Y10000000D01*
X46170000Y8730000D02*
X44900000Y10000000D01*
D15*
%TO.N,/CS_N1*%
X46050002Y3650000D02*
X46170000Y3650000D01*
D16*
X41370000Y10500000D02*
X41370000Y6470000D01*
X37775000Y14095000D02*
X41370000Y10500000D01*
X37775000Y14100000D02*
X37775000Y14095000D01*
X44890000Y4930000D02*
X46170000Y3650000D01*
X42910000Y4930000D02*
X44890000Y4930000D01*
X41370000Y6470000D02*
X42910000Y4930000D01*
D15*
%TO.N,Net-(C8-Pad2)*%
X32550000Y18750000D02*
X20140000Y18750000D01*
X20140000Y18750000D02*
X19460000Y18070000D01*
X32740000Y18560000D02*
X32550000Y18750000D01*
%TD*%
D17*
%TO.N,GND*%
X19707349Y19397506D02*
X19664888Y19362658D01*
X19589341Y19300659D01*
X19565072Y19271087D01*
X19332782Y19038796D01*
X19175603Y19007532D01*
X18998164Y18934034D01*
X18838473Y18827332D01*
X18702668Y18691527D01*
X18595966Y18531836D01*
X18522468Y18354397D01*
X18485000Y18166029D01*
X18485000Y17973971D01*
X18522468Y17785603D01*
X18595966Y17608164D01*
X18702668Y17448473D01*
X18838473Y17312668D01*
X18998164Y17205966D01*
X19175603Y17132468D01*
X19363971Y17095000D01*
X19556029Y17095000D01*
X19744397Y17132468D01*
X19921836Y17205966D01*
X20081527Y17312668D01*
X20217332Y17448473D01*
X20324034Y17608164D01*
X20397532Y17785603D01*
X20428796Y17942782D01*
X20461015Y17975000D01*
X31958261Y17975000D01*
X31982668Y17938473D01*
X32118473Y17802668D01*
X32278164Y17695966D01*
X32455603Y17622468D01*
X32643971Y17585000D01*
X32836029Y17585000D01*
X33024397Y17622468D01*
X33201836Y17695966D01*
X33361527Y17802668D01*
X33497332Y17938473D01*
X33604034Y18098164D01*
X33677532Y18275603D01*
X33715000Y18463971D01*
X33715000Y18656029D01*
X33677532Y18844397D01*
X33604034Y19021836D01*
X33497332Y19181527D01*
X33361527Y19317332D01*
X33237805Y19400000D01*
X49400001Y19400000D01*
X49400000Y600000D01*
X42121716Y600000D01*
X42214034Y738164D01*
X42287532Y915603D01*
X42325000Y1103971D01*
X42325000Y1296029D01*
X42287532Y1484397D01*
X42214034Y1661836D01*
X42107332Y1821527D01*
X41971527Y1957332D01*
X41811836Y2064034D01*
X41634397Y2137532D01*
X41446029Y2175000D01*
X41253971Y2175000D01*
X41065603Y2137532D01*
X40888164Y2064034D01*
X40728473Y1957332D01*
X40592668Y1821527D01*
X40485966Y1661836D01*
X40412468Y1484397D01*
X40375000Y1296029D01*
X40375000Y1103971D01*
X40412468Y915603D01*
X40485966Y738164D01*
X40578284Y600000D01*
X26448398Y600000D01*
X26534034Y728164D01*
X26607532Y905603D01*
X26645000Y1093971D01*
X26645000Y1286029D01*
X26607532Y1474397D01*
X26534034Y1651836D01*
X26427332Y1811527D01*
X26291527Y1947332D01*
X26131836Y2054034D01*
X25954397Y2127532D01*
X25766029Y2165000D01*
X25573971Y2165000D01*
X25385603Y2127532D01*
X25208164Y2054034D01*
X25074915Y1965000D01*
X20781015Y1965000D01*
X20136313Y2609701D01*
X20107532Y2754397D01*
X20034034Y2931836D01*
X19927332Y3091527D01*
X19791527Y3227332D01*
X19631836Y3334034D01*
X19454397Y3407532D01*
X19266029Y3445000D01*
X19073971Y3445000D01*
X18885603Y3407532D01*
X18708164Y3334034D01*
X18548473Y3227332D01*
X18412668Y3091527D01*
X18305966Y2931836D01*
X18232468Y2754397D01*
X18195000Y2566029D01*
X18195000Y2373971D01*
X18232468Y2185603D01*
X18305966Y2008164D01*
X18412668Y1848473D01*
X18548473Y1712668D01*
X18708164Y1605966D01*
X18885603Y1532468D01*
X19055265Y1498721D01*
X19885072Y668913D01*
X19909341Y639341D01*
X19957278Y600000D01*
X600000Y600000D01*
X600000Y3100000D01*
X3322218Y3100000D01*
X3322218Y1400000D01*
X3333320Y1287280D01*
X3366199Y1178892D01*
X3419592Y1079002D01*
X3491446Y991446D01*
X3579002Y919592D01*
X3678892Y866199D01*
X3787280Y833320D01*
X3900000Y822218D01*
X5600000Y822218D01*
X5712720Y833320D01*
X5821108Y866199D01*
X5920998Y919592D01*
X6008554Y991446D01*
X6080408Y1079002D01*
X6133801Y1178892D01*
X6166680Y1287280D01*
X6177782Y1400000D01*
X6177782Y3100000D01*
X6166680Y3212720D01*
X6133801Y3321108D01*
X6080408Y3420998D01*
X6008554Y3508554D01*
X5920998Y3580408D01*
X5821108Y3633801D01*
X5712720Y3666680D01*
X5600000Y3677782D01*
X3900000Y3677782D01*
X3787280Y3666680D01*
X3678892Y3633801D01*
X3579002Y3580408D01*
X3491446Y3508554D01*
X3419592Y3420998D01*
X3366199Y3321108D01*
X3333320Y3212720D01*
X3322218Y3100000D01*
X600000Y3100000D01*
X600000Y7705124D01*
X2225000Y7705124D01*
X2225000Y7394876D01*
X2285526Y7090589D01*
X2404253Y6803958D01*
X2576617Y6545996D01*
X2795996Y6326617D01*
X3053958Y6154253D01*
X3340589Y6035526D01*
X3644876Y5975000D01*
X3955124Y5975000D01*
X4259411Y6035526D01*
X4546042Y6154253D01*
X4804004Y6326617D01*
X5023383Y6545996D01*
X5195747Y6803958D01*
X5314474Y7090589D01*
X5375000Y7394876D01*
X5375000Y7705124D01*
X5314474Y8009411D01*
X5195747Y8296042D01*
X5023383Y8554004D01*
X4804004Y8773383D01*
X4546042Y8945747D01*
X4259411Y9064474D01*
X3955124Y9125000D01*
X3644876Y9125000D01*
X3340589Y9064474D01*
X3053958Y8945747D01*
X2795996Y8773383D01*
X2576617Y8554004D01*
X2404253Y8296042D01*
X2285526Y8009411D01*
X2225000Y7705124D01*
X600000Y7705124D01*
X600000Y10110803D01*
X875000Y10110803D01*
X875000Y9889197D01*
X918233Y9671850D01*
X1003038Y9467113D01*
X1126156Y9282855D01*
X1282855Y9126156D01*
X1467113Y9003038D01*
X1671850Y8918233D01*
X1889197Y8875000D01*
X2110803Y8875000D01*
X2328150Y8918233D01*
X2532887Y9003038D01*
X2717145Y9126156D01*
X2873844Y9282855D01*
X2996962Y9467113D01*
X3081767Y9671850D01*
X3125000Y9889197D01*
X3125000Y10110803D01*
X3081767Y10328150D01*
X3010585Y10500000D01*
X5075000Y10500000D01*
X5075000Y9500000D01*
X5078363Y9465859D01*
X5088321Y9433030D01*
X5104493Y9402775D01*
X5126256Y9376256D01*
X5152775Y9354493D01*
X5183030Y9338321D01*
X5215859Y9328363D01*
X5250000Y9325000D01*
X7097995Y9325000D01*
X7126156Y9282855D01*
X7282855Y9126156D01*
X7467113Y9003038D01*
X7671850Y8918233D01*
X7889197Y8875000D01*
X8110803Y8875000D01*
X8328150Y8918233D01*
X8532887Y9003038D01*
X8717145Y9126156D01*
X8873844Y9282855D01*
X8902005Y9325000D01*
X25000000Y9325000D01*
X25034141Y9328363D01*
X25066970Y9338321D01*
X25097225Y9354493D01*
X25123744Y9376256D01*
X25145507Y9402775D01*
X25161679Y9433030D01*
X25171637Y9465859D01*
X25175000Y9500000D01*
X25175000Y10500000D01*
X25171637Y10534141D01*
X25161679Y10566970D01*
X25145507Y10597225D01*
X25123744Y10623744D01*
X25097225Y10645507D01*
X25066970Y10661679D01*
X25034141Y10671637D01*
X25000000Y10675000D01*
X8902005Y10675000D01*
X8873844Y10717145D01*
X8717145Y10873844D01*
X8715415Y10875000D01*
X8955124Y10875000D01*
X9259411Y10935526D01*
X9546042Y11054253D01*
X9804004Y11226617D01*
X10023383Y11445996D01*
X10195747Y11703958D01*
X10314474Y11990589D01*
X10375000Y12294876D01*
X10375000Y12605124D01*
X10314474Y12909411D01*
X10195747Y13196042D01*
X10023383Y13454004D01*
X9804004Y13673383D01*
X9546042Y13845747D01*
X9259411Y13964474D01*
X8955124Y14025000D01*
X8644876Y14025000D01*
X8340589Y13964474D01*
X8053958Y13845747D01*
X7795996Y13673383D01*
X7576617Y13454004D01*
X7404253Y13196042D01*
X7285526Y12909411D01*
X7225000Y12605124D01*
X7225000Y12294876D01*
X7285526Y11990589D01*
X7404253Y11703958D01*
X7576617Y11445996D01*
X7795996Y11226617D01*
X7948077Y11125000D01*
X7889197Y11125000D01*
X7671850Y11081767D01*
X7467113Y10996962D01*
X7282855Y10873844D01*
X7126156Y10717145D01*
X7097995Y10675000D01*
X5250000Y10675000D01*
X5215859Y10671637D01*
X5183030Y10661679D01*
X5152775Y10645507D01*
X5126256Y10623744D01*
X5104493Y10597225D01*
X5088321Y10566970D01*
X5078363Y10534141D01*
X5075000Y10500000D01*
X3010585Y10500000D01*
X2996962Y10532887D01*
X2873844Y10717145D01*
X2717145Y10873844D01*
X2532887Y10996962D01*
X2328150Y11081767D01*
X2110803Y11125000D01*
X1889197Y11125000D01*
X1671850Y11081767D01*
X1467113Y10996962D01*
X1282855Y10873844D01*
X1126156Y10717145D01*
X1003038Y10532887D01*
X918233Y10328150D01*
X875000Y10110803D01*
X600000Y10110803D01*
X600000Y18600000D01*
X3322218Y18600000D01*
X3322218Y16900000D01*
X3333320Y16787280D01*
X3366199Y16678892D01*
X3419592Y16579002D01*
X3491446Y16491446D01*
X3579002Y16419592D01*
X3678892Y16366199D01*
X3787280Y16333320D01*
X3900000Y16322218D01*
X5600000Y16322218D01*
X5712720Y16333320D01*
X5821108Y16366199D01*
X5920998Y16419592D01*
X6008554Y16491446D01*
X6080408Y16579002D01*
X6133801Y16678892D01*
X6161750Y16771029D01*
X36800000Y16771029D01*
X36800000Y16578971D01*
X36837468Y16390603D01*
X36910966Y16213164D01*
X37017668Y16053473D01*
X37058641Y16012500D01*
X37017668Y15971527D01*
X36910966Y15811836D01*
X36837468Y15634397D01*
X36800000Y15446029D01*
X36800000Y15253971D01*
X36837468Y15065603D01*
X36910966Y14888164D01*
X37017668Y14728473D01*
X37021141Y14725000D01*
X37017668Y14721527D01*
X36910966Y14561836D01*
X36837468Y14384397D01*
X36800000Y14196029D01*
X36800000Y14003971D01*
X36837468Y13815603D01*
X36910966Y13638164D01*
X37017668Y13478473D01*
X37153473Y13342668D01*
X37313164Y13235966D01*
X37490603Y13162468D01*
X37678971Y13125000D01*
X37719696Y13125000D01*
X40645000Y10199695D01*
X40645001Y6505607D01*
X40641494Y6470000D01*
X40655492Y6327876D01*
X40696947Y6191213D01*
X40764269Y6065264D01*
X40832170Y5982526D01*
X40832173Y5982523D01*
X40854869Y5954868D01*
X40882523Y5932173D01*
X42212303Y4602392D01*
X42202218Y4500000D01*
X42202218Y2800000D01*
X42213320Y2687280D01*
X42246199Y2578892D01*
X42299592Y2479002D01*
X42371446Y2391446D01*
X42459002Y2319592D01*
X42558892Y2266199D01*
X42667280Y2233320D01*
X42780000Y2222218D01*
X44480000Y2222218D01*
X44592720Y2233320D01*
X44701108Y2266199D01*
X44800998Y2319592D01*
X44888554Y2391446D01*
X44960408Y2479002D01*
X45013801Y2578892D01*
X45046680Y2687280D01*
X45053457Y2756091D01*
X45063130Y2741615D01*
X45261615Y2543130D01*
X45495009Y2387181D01*
X45754343Y2279762D01*
X46029650Y2225000D01*
X46310350Y2225000D01*
X46585657Y2279762D01*
X46844991Y2387181D01*
X47078385Y2543130D01*
X47276870Y2741615D01*
X47432819Y2975009D01*
X47540238Y3234343D01*
X47595000Y3509650D01*
X47595000Y3790350D01*
X47540238Y4065657D01*
X47432819Y4324991D01*
X47276870Y4558385D01*
X47078385Y4756870D01*
X46844991Y4912819D01*
X46827654Y4920000D01*
X46844991Y4927181D01*
X47078385Y5083130D01*
X47276870Y5281615D01*
X47432819Y5515009D01*
X47540238Y5774343D01*
X47595000Y6049650D01*
X47595000Y6330350D01*
X47540238Y6605657D01*
X47432819Y6864991D01*
X47276870Y7098385D01*
X47078385Y7296870D01*
X46844991Y7452819D01*
X46827654Y7460000D01*
X46844991Y7467181D01*
X47078385Y7623130D01*
X47276870Y7821615D01*
X47432819Y8055009D01*
X47540238Y8314343D01*
X47595000Y8589650D01*
X47595000Y8870350D01*
X47540238Y9145657D01*
X47432819Y9404991D01*
X47276870Y9638385D01*
X47078385Y9836870D01*
X46844991Y9992819D01*
X46827654Y10000000D01*
X46844991Y10007181D01*
X47078385Y10163130D01*
X47276870Y10361615D01*
X47432819Y10595009D01*
X47540238Y10854343D01*
X47595000Y11129650D01*
X47595000Y11410350D01*
X47540238Y11685657D01*
X47432819Y11944991D01*
X47276870Y12178385D01*
X47078385Y12376870D01*
X46844991Y12532819D01*
X46585657Y12640238D01*
X46310350Y12695000D01*
X46029650Y12695000D01*
X45813333Y12651972D01*
X45437832Y13027472D01*
X45415132Y13055132D01*
X45304737Y13145731D01*
X45178788Y13213053D01*
X45042125Y13254509D01*
X44935607Y13265000D01*
X44935597Y13265000D01*
X44900000Y13268506D01*
X44864403Y13265000D01*
X42210305Y13265000D01*
X40557834Y14917470D01*
X40557830Y14917475D01*
X38984955Y16490350D01*
X42205000Y16490350D01*
X42205000Y16209650D01*
X42259762Y15934343D01*
X42367181Y15675009D01*
X42523130Y15441615D01*
X42721615Y15243130D01*
X42955009Y15087181D01*
X43214343Y14979762D01*
X43489650Y14925000D01*
X43770350Y14925000D01*
X44045657Y14979762D01*
X44304991Y15087181D01*
X44538385Y15243130D01*
X44736870Y15441615D01*
X44892819Y15675009D01*
X44900000Y15692346D01*
X44907181Y15675009D01*
X45063130Y15441615D01*
X45261615Y15243130D01*
X45495009Y15087181D01*
X45754343Y14979762D01*
X46029650Y14925000D01*
X46310350Y14925000D01*
X46585657Y14979762D01*
X46844991Y15087181D01*
X47078385Y15243130D01*
X47276870Y15441615D01*
X47432819Y15675009D01*
X47540238Y15934343D01*
X47595000Y16209650D01*
X47595000Y16490350D01*
X47540238Y16765657D01*
X47432819Y17024991D01*
X47276870Y17258385D01*
X47078385Y17456870D01*
X46844991Y17612819D01*
X46585657Y17720238D01*
X46310350Y17775000D01*
X46029650Y17775000D01*
X45754343Y17720238D01*
X45495009Y17612819D01*
X45261615Y17456870D01*
X45063130Y17258385D01*
X44907181Y17024991D01*
X44900000Y17007654D01*
X44892819Y17024991D01*
X44736870Y17258385D01*
X44538385Y17456870D01*
X44304991Y17612819D01*
X44045657Y17720238D01*
X43770350Y17775000D01*
X43489650Y17775000D01*
X43214343Y17720238D01*
X42955009Y17612819D01*
X42721615Y17456870D01*
X42523130Y17258385D01*
X42367181Y17024991D01*
X42259762Y16765657D01*
X42205000Y16490350D01*
X38984955Y16490350D01*
X38750000Y16725304D01*
X38750000Y16771029D01*
X38712532Y16959397D01*
X38639034Y17136836D01*
X38532332Y17296527D01*
X38396527Y17432332D01*
X38236836Y17539034D01*
X38059397Y17612532D01*
X37871029Y17650000D01*
X37678971Y17650000D01*
X37490603Y17612532D01*
X37313164Y17539034D01*
X37153473Y17432332D01*
X37017668Y17296527D01*
X36910966Y17136836D01*
X36837468Y16959397D01*
X36800000Y16771029D01*
X6161750Y16771029D01*
X6166680Y16787280D01*
X6177782Y16900000D01*
X6177782Y18600000D01*
X6166680Y18712720D01*
X6133801Y18821108D01*
X6080408Y18920998D01*
X6008554Y19008554D01*
X5920998Y19080408D01*
X5821108Y19133801D01*
X5712720Y19166680D01*
X5600000Y19177782D01*
X3900000Y19177782D01*
X3787280Y19166680D01*
X3678892Y19133801D01*
X3579002Y19080408D01*
X3491446Y19008554D01*
X3419592Y18920998D01*
X3366199Y18821108D01*
X3333320Y18712720D01*
X3322218Y18600000D01*
X600000Y18600000D01*
X600000Y19400000D01*
X19712015Y19400000D01*
X19707349Y19397506D01*
%TA.AperFunction,Conductor*%
D18*
G36*
X19707349Y19397506D02*
G01*
X19664888Y19362658D01*
X19589341Y19300659D01*
X19565072Y19271087D01*
X19332782Y19038796D01*
X19175603Y19007532D01*
X18998164Y18934034D01*
X18838473Y18827332D01*
X18702668Y18691527D01*
X18595966Y18531836D01*
X18522468Y18354397D01*
X18485000Y18166029D01*
X18485000Y17973971D01*
X18522468Y17785603D01*
X18595966Y17608164D01*
X18702668Y17448473D01*
X18838473Y17312668D01*
X18998164Y17205966D01*
X19175603Y17132468D01*
X19363971Y17095000D01*
X19556029Y17095000D01*
X19744397Y17132468D01*
X19921836Y17205966D01*
X20081527Y17312668D01*
X20217332Y17448473D01*
X20324034Y17608164D01*
X20397532Y17785603D01*
X20428796Y17942782D01*
X20461015Y17975000D01*
X31958261Y17975000D01*
X31982668Y17938473D01*
X32118473Y17802668D01*
X32278164Y17695966D01*
X32455603Y17622468D01*
X32643971Y17585000D01*
X32836029Y17585000D01*
X33024397Y17622468D01*
X33201836Y17695966D01*
X33361527Y17802668D01*
X33497332Y17938473D01*
X33604034Y18098164D01*
X33677532Y18275603D01*
X33715000Y18463971D01*
X33715000Y18656029D01*
X33677532Y18844397D01*
X33604034Y19021836D01*
X33497332Y19181527D01*
X33361527Y19317332D01*
X33237805Y19400000D01*
X49400001Y19400000D01*
X49400000Y600000D01*
X42121716Y600000D01*
X42214034Y738164D01*
X42287532Y915603D01*
X42325000Y1103971D01*
X42325000Y1296029D01*
X42287532Y1484397D01*
X42214034Y1661836D01*
X42107332Y1821527D01*
X41971527Y1957332D01*
X41811836Y2064034D01*
X41634397Y2137532D01*
X41446029Y2175000D01*
X41253971Y2175000D01*
X41065603Y2137532D01*
X40888164Y2064034D01*
X40728473Y1957332D01*
X40592668Y1821527D01*
X40485966Y1661836D01*
X40412468Y1484397D01*
X40375000Y1296029D01*
X40375000Y1103971D01*
X40412468Y915603D01*
X40485966Y738164D01*
X40578284Y600000D01*
X26448398Y600000D01*
X26534034Y728164D01*
X26607532Y905603D01*
X26645000Y1093971D01*
X26645000Y1286029D01*
X26607532Y1474397D01*
X26534034Y1651836D01*
X26427332Y1811527D01*
X26291527Y1947332D01*
X26131836Y2054034D01*
X25954397Y2127532D01*
X25766029Y2165000D01*
X25573971Y2165000D01*
X25385603Y2127532D01*
X25208164Y2054034D01*
X25074915Y1965000D01*
X20781015Y1965000D01*
X20136313Y2609701D01*
X20107532Y2754397D01*
X20034034Y2931836D01*
X19927332Y3091527D01*
X19791527Y3227332D01*
X19631836Y3334034D01*
X19454397Y3407532D01*
X19266029Y3445000D01*
X19073971Y3445000D01*
X18885603Y3407532D01*
X18708164Y3334034D01*
X18548473Y3227332D01*
X18412668Y3091527D01*
X18305966Y2931836D01*
X18232468Y2754397D01*
X18195000Y2566029D01*
X18195000Y2373971D01*
X18232468Y2185603D01*
X18305966Y2008164D01*
X18412668Y1848473D01*
X18548473Y1712668D01*
X18708164Y1605966D01*
X18885603Y1532468D01*
X19055265Y1498721D01*
X19885072Y668913D01*
X19909341Y639341D01*
X19957278Y600000D01*
X600000Y600000D01*
X600000Y3100000D01*
X3322218Y3100000D01*
X3322218Y1400000D01*
X3333320Y1287280D01*
X3366199Y1178892D01*
X3419592Y1079002D01*
X3491446Y991446D01*
X3579002Y919592D01*
X3678892Y866199D01*
X3787280Y833320D01*
X3900000Y822218D01*
X5600000Y822218D01*
X5712720Y833320D01*
X5821108Y866199D01*
X5920998Y919592D01*
X6008554Y991446D01*
X6080408Y1079002D01*
X6133801Y1178892D01*
X6166680Y1287280D01*
X6177782Y1400000D01*
X6177782Y3100000D01*
X6166680Y3212720D01*
X6133801Y3321108D01*
X6080408Y3420998D01*
X6008554Y3508554D01*
X5920998Y3580408D01*
X5821108Y3633801D01*
X5712720Y3666680D01*
X5600000Y3677782D01*
X3900000Y3677782D01*
X3787280Y3666680D01*
X3678892Y3633801D01*
X3579002Y3580408D01*
X3491446Y3508554D01*
X3419592Y3420998D01*
X3366199Y3321108D01*
X3333320Y3212720D01*
X3322218Y3100000D01*
X600000Y3100000D01*
X600000Y7705124D01*
X2225000Y7705124D01*
X2225000Y7394876D01*
X2285526Y7090589D01*
X2404253Y6803958D01*
X2576617Y6545996D01*
X2795996Y6326617D01*
X3053958Y6154253D01*
X3340589Y6035526D01*
X3644876Y5975000D01*
X3955124Y5975000D01*
X4259411Y6035526D01*
X4546042Y6154253D01*
X4804004Y6326617D01*
X5023383Y6545996D01*
X5195747Y6803958D01*
X5314474Y7090589D01*
X5375000Y7394876D01*
X5375000Y7705124D01*
X5314474Y8009411D01*
X5195747Y8296042D01*
X5023383Y8554004D01*
X4804004Y8773383D01*
X4546042Y8945747D01*
X4259411Y9064474D01*
X3955124Y9125000D01*
X3644876Y9125000D01*
X3340589Y9064474D01*
X3053958Y8945747D01*
X2795996Y8773383D01*
X2576617Y8554004D01*
X2404253Y8296042D01*
X2285526Y8009411D01*
X2225000Y7705124D01*
X600000Y7705124D01*
X600000Y10110803D01*
X875000Y10110803D01*
X875000Y9889197D01*
X918233Y9671850D01*
X1003038Y9467113D01*
X1126156Y9282855D01*
X1282855Y9126156D01*
X1467113Y9003038D01*
X1671850Y8918233D01*
X1889197Y8875000D01*
X2110803Y8875000D01*
X2328150Y8918233D01*
X2532887Y9003038D01*
X2717145Y9126156D01*
X2873844Y9282855D01*
X2996962Y9467113D01*
X3081767Y9671850D01*
X3125000Y9889197D01*
X3125000Y10110803D01*
X3081767Y10328150D01*
X3010585Y10500000D01*
X5075000Y10500000D01*
X5075000Y9500000D01*
X5078363Y9465859D01*
X5088321Y9433030D01*
X5104493Y9402775D01*
X5126256Y9376256D01*
X5152775Y9354493D01*
X5183030Y9338321D01*
X5215859Y9328363D01*
X5250000Y9325000D01*
X7097995Y9325000D01*
X7126156Y9282855D01*
X7282855Y9126156D01*
X7467113Y9003038D01*
X7671850Y8918233D01*
X7889197Y8875000D01*
X8110803Y8875000D01*
X8328150Y8918233D01*
X8532887Y9003038D01*
X8717145Y9126156D01*
X8873844Y9282855D01*
X8902005Y9325000D01*
X25000000Y9325000D01*
X25034141Y9328363D01*
X25066970Y9338321D01*
X25097225Y9354493D01*
X25123744Y9376256D01*
X25145507Y9402775D01*
X25161679Y9433030D01*
X25171637Y9465859D01*
X25175000Y9500000D01*
X25175000Y10500000D01*
X25171637Y10534141D01*
X25161679Y10566970D01*
X25145507Y10597225D01*
X25123744Y10623744D01*
X25097225Y10645507D01*
X25066970Y10661679D01*
X25034141Y10671637D01*
X25000000Y10675000D01*
X8902005Y10675000D01*
X8873844Y10717145D01*
X8717145Y10873844D01*
X8715415Y10875000D01*
X8955124Y10875000D01*
X9259411Y10935526D01*
X9546042Y11054253D01*
X9804004Y11226617D01*
X10023383Y11445996D01*
X10195747Y11703958D01*
X10314474Y11990589D01*
X10375000Y12294876D01*
X10375000Y12605124D01*
X10314474Y12909411D01*
X10195747Y13196042D01*
X10023383Y13454004D01*
X9804004Y13673383D01*
X9546042Y13845747D01*
X9259411Y13964474D01*
X8955124Y14025000D01*
X8644876Y14025000D01*
X8340589Y13964474D01*
X8053958Y13845747D01*
X7795996Y13673383D01*
X7576617Y13454004D01*
X7404253Y13196042D01*
X7285526Y12909411D01*
X7225000Y12605124D01*
X7225000Y12294876D01*
X7285526Y11990589D01*
X7404253Y11703958D01*
X7576617Y11445996D01*
X7795996Y11226617D01*
X7948077Y11125000D01*
X7889197Y11125000D01*
X7671850Y11081767D01*
X7467113Y10996962D01*
X7282855Y10873844D01*
X7126156Y10717145D01*
X7097995Y10675000D01*
X5250000Y10675000D01*
X5215859Y10671637D01*
X5183030Y10661679D01*
X5152775Y10645507D01*
X5126256Y10623744D01*
X5104493Y10597225D01*
X5088321Y10566970D01*
X5078363Y10534141D01*
X5075000Y10500000D01*
X3010585Y10500000D01*
X2996962Y10532887D01*
X2873844Y10717145D01*
X2717145Y10873844D01*
X2532887Y10996962D01*
X2328150Y11081767D01*
X2110803Y11125000D01*
X1889197Y11125000D01*
X1671850Y11081767D01*
X1467113Y10996962D01*
X1282855Y10873844D01*
X1126156Y10717145D01*
X1003038Y10532887D01*
X918233Y10328150D01*
X875000Y10110803D01*
X600000Y10110803D01*
X600000Y18600000D01*
X3322218Y18600000D01*
X3322218Y16900000D01*
X3333320Y16787280D01*
X3366199Y16678892D01*
X3419592Y16579002D01*
X3491446Y16491446D01*
X3579002Y16419592D01*
X3678892Y16366199D01*
X3787280Y16333320D01*
X3900000Y16322218D01*
X5600000Y16322218D01*
X5712720Y16333320D01*
X5821108Y16366199D01*
X5920998Y16419592D01*
X6008554Y16491446D01*
X6080408Y16579002D01*
X6133801Y16678892D01*
X6161750Y16771029D01*
X36800000Y16771029D01*
X36800000Y16578971D01*
X36837468Y16390603D01*
X36910966Y16213164D01*
X37017668Y16053473D01*
X37058641Y16012500D01*
X37017668Y15971527D01*
X36910966Y15811836D01*
X36837468Y15634397D01*
X36800000Y15446029D01*
X36800000Y15253971D01*
X36837468Y15065603D01*
X36910966Y14888164D01*
X37017668Y14728473D01*
X37021141Y14725000D01*
X37017668Y14721527D01*
X36910966Y14561836D01*
X36837468Y14384397D01*
X36800000Y14196029D01*
X36800000Y14003971D01*
X36837468Y13815603D01*
X36910966Y13638164D01*
X37017668Y13478473D01*
X37153473Y13342668D01*
X37313164Y13235966D01*
X37490603Y13162468D01*
X37678971Y13125000D01*
X37719696Y13125000D01*
X40645000Y10199695D01*
X40645001Y6505607D01*
X40641494Y6470000D01*
X40655492Y6327876D01*
X40696947Y6191213D01*
X40764269Y6065264D01*
X40832170Y5982526D01*
X40832173Y5982523D01*
X40854869Y5954868D01*
X40882523Y5932173D01*
X42212303Y4602392D01*
X42202218Y4500000D01*
X42202218Y2800000D01*
X42213320Y2687280D01*
X42246199Y2578892D01*
X42299592Y2479002D01*
X42371446Y2391446D01*
X42459002Y2319592D01*
X42558892Y2266199D01*
X42667280Y2233320D01*
X42780000Y2222218D01*
X44480000Y2222218D01*
X44592720Y2233320D01*
X44701108Y2266199D01*
X44800998Y2319592D01*
X44888554Y2391446D01*
X44960408Y2479002D01*
X45013801Y2578892D01*
X45046680Y2687280D01*
X45053457Y2756091D01*
X45063130Y2741615D01*
X45261615Y2543130D01*
X45495009Y2387181D01*
X45754343Y2279762D01*
X46029650Y2225000D01*
X46310350Y2225000D01*
X46585657Y2279762D01*
X46844991Y2387181D01*
X47078385Y2543130D01*
X47276870Y2741615D01*
X47432819Y2975009D01*
X47540238Y3234343D01*
X47595000Y3509650D01*
X47595000Y3790350D01*
X47540238Y4065657D01*
X47432819Y4324991D01*
X47276870Y4558385D01*
X47078385Y4756870D01*
X46844991Y4912819D01*
X46827654Y4920000D01*
X46844991Y4927181D01*
X47078385Y5083130D01*
X47276870Y5281615D01*
X47432819Y5515009D01*
X47540238Y5774343D01*
X47595000Y6049650D01*
X47595000Y6330350D01*
X47540238Y6605657D01*
X47432819Y6864991D01*
X47276870Y7098385D01*
X47078385Y7296870D01*
X46844991Y7452819D01*
X46827654Y7460000D01*
X46844991Y7467181D01*
X47078385Y7623130D01*
X47276870Y7821615D01*
X47432819Y8055009D01*
X47540238Y8314343D01*
X47595000Y8589650D01*
X47595000Y8870350D01*
X47540238Y9145657D01*
X47432819Y9404991D01*
X47276870Y9638385D01*
X47078385Y9836870D01*
X46844991Y9992819D01*
X46827654Y10000000D01*
X46844991Y10007181D01*
X47078385Y10163130D01*
X47276870Y10361615D01*
X47432819Y10595009D01*
X47540238Y10854343D01*
X47595000Y11129650D01*
X47595000Y11410350D01*
X47540238Y11685657D01*
X47432819Y11944991D01*
X47276870Y12178385D01*
X47078385Y12376870D01*
X46844991Y12532819D01*
X46585657Y12640238D01*
X46310350Y12695000D01*
X46029650Y12695000D01*
X45813333Y12651972D01*
X45437832Y13027472D01*
X45415132Y13055132D01*
X45304737Y13145731D01*
X45178788Y13213053D01*
X45042125Y13254509D01*
X44935607Y13265000D01*
X44935597Y13265000D01*
X44900000Y13268506D01*
X44864403Y13265000D01*
X42210305Y13265000D01*
X40557834Y14917470D01*
X40557830Y14917475D01*
X38984955Y16490350D01*
X42205000Y16490350D01*
X42205000Y16209650D01*
X42259762Y15934343D01*
X42367181Y15675009D01*
X42523130Y15441615D01*
X42721615Y15243130D01*
X42955009Y15087181D01*
X43214343Y14979762D01*
X43489650Y14925000D01*
X43770350Y14925000D01*
X44045657Y14979762D01*
X44304991Y15087181D01*
X44538385Y15243130D01*
X44736870Y15441615D01*
X44892819Y15675009D01*
X44900000Y15692346D01*
X44907181Y15675009D01*
X45063130Y15441615D01*
X45261615Y15243130D01*
X45495009Y15087181D01*
X45754343Y14979762D01*
X46029650Y14925000D01*
X46310350Y14925000D01*
X46585657Y14979762D01*
X46844991Y15087181D01*
X47078385Y15243130D01*
X47276870Y15441615D01*
X47432819Y15675009D01*
X47540238Y15934343D01*
X47595000Y16209650D01*
X47595000Y16490350D01*
X47540238Y16765657D01*
X47432819Y17024991D01*
X47276870Y17258385D01*
X47078385Y17456870D01*
X46844991Y17612819D01*
X46585657Y17720238D01*
X46310350Y17775000D01*
X46029650Y17775000D01*
X45754343Y17720238D01*
X45495009Y17612819D01*
X45261615Y17456870D01*
X45063130Y17258385D01*
X44907181Y17024991D01*
X44900000Y17007654D01*
X44892819Y17024991D01*
X44736870Y17258385D01*
X44538385Y17456870D01*
X44304991Y17612819D01*
X44045657Y17720238D01*
X43770350Y17775000D01*
X43489650Y17775000D01*
X43214343Y17720238D01*
X42955009Y17612819D01*
X42721615Y17456870D01*
X42523130Y17258385D01*
X42367181Y17024991D01*
X42259762Y16765657D01*
X42205000Y16490350D01*
X38984955Y16490350D01*
X38750000Y16725304D01*
X38750000Y16771029D01*
X38712532Y16959397D01*
X38639034Y17136836D01*
X38532332Y17296527D01*
X38396527Y17432332D01*
X38236836Y17539034D01*
X38059397Y17612532D01*
X37871029Y17650000D01*
X37678971Y17650000D01*
X37490603Y17612532D01*
X37313164Y17539034D01*
X37153473Y17432332D01*
X37017668Y17296527D01*
X36910966Y17136836D01*
X36837468Y16959397D01*
X36800000Y16771029D01*
X6161750Y16771029D01*
X6166680Y16787280D01*
X6177782Y16900000D01*
X6177782Y18600000D01*
X6166680Y18712720D01*
X6133801Y18821108D01*
X6080408Y18920998D01*
X6008554Y19008554D01*
X5920998Y19080408D01*
X5821108Y19133801D01*
X5712720Y19166680D01*
X5600000Y19177782D01*
X3900000Y19177782D01*
X3787280Y19166680D01*
X3678892Y19133801D01*
X3579002Y19080408D01*
X3491446Y19008554D01*
X3419592Y18920998D01*
X3366199Y18821108D01*
X3333320Y18712720D01*
X3322218Y18600000D01*
X600000Y18600000D01*
X600000Y19400000D01*
X19712015Y19400000D01*
X19707349Y19397506D01*
G37*
%TD.AperFunction*%
%TD*%
M02*
