%TF.GenerationSoftware,KiCad,Pcbnew,5.1.9*%
%TF.CreationDate,2021-02-16T17:41:26+03:00*%
%TF.ProjectId,dual-mcp3201-pmod,6475616c-2d6d-4637-9033-3230312d706d,rev?*%
%TF.SameCoordinates,PX4c4b400PY8583b00*%
%TF.FileFunction,Other,Fab,Top*%
%FSLAX46Y46*%
G04 Gerber Fmt 4.6, Leading zero omitted, Abs format (unit mm)*
G04 Created by KiCad (PCBNEW 5.1.9) date 2021-02-16 17:41:26*
%MOMM*%
%LPD*%
G01*
G04 APERTURE LIST*
%TA.AperFunction,Profile*%
%ADD10C,0.050000*%
%TD*%
%ADD11C,0.100000*%
%ADD12C,0.120000*%
%ADD13C,0.150000*%
%ADD14C,0.060000*%
%ADD15C,0.075000*%
%ADD16C,0.140000*%
G04 APERTURE END LIST*
D10*
X50000000Y20000000D02*
X0Y20000000D01*
X50000000Y0D02*
X50000000Y20000000D01*
X0Y0D02*
X50000000Y0D01*
X0Y20000000D02*
X0Y0D01*
D11*
%TO.C,X4*%
X6020000Y18385000D02*
X6020000Y16480000D01*
X6020000Y16480000D02*
X940000Y16480000D01*
X940000Y16480000D02*
X940000Y19020000D01*
X940000Y19020000D02*
X5385000Y19020000D01*
X5385000Y19020000D02*
X6020000Y18385000D01*
%TO.C,X3*%
X6020000Y2885000D02*
X6020000Y980000D01*
X6020000Y980000D02*
X940000Y980000D01*
X940000Y980000D02*
X940000Y3520000D01*
X940000Y3520000D02*
X5385000Y3520000D01*
X5385000Y3520000D02*
X6020000Y2885000D01*
%TO.C,C12*%
X26650000Y16025000D02*
X25850000Y16025000D01*
X25850000Y16025000D02*
X25850000Y17625000D01*
X25850000Y17625000D02*
X26650000Y17625000D01*
X26650000Y17625000D02*
X26650000Y16025000D01*
%TO.C,C11*%
X23850000Y13050000D02*
X21050000Y13050000D01*
X21050000Y13050000D02*
X20650000Y12650000D01*
X20650000Y12650000D02*
X20650000Y11450000D01*
X20650000Y11450000D02*
X23850000Y11450000D01*
X23850000Y11450000D02*
X23850000Y13050000D01*
%TO.C,C10*%
X15550000Y14400000D02*
X15550000Y13600000D01*
X15550000Y13600000D02*
X13950000Y13600000D01*
X13950000Y13600000D02*
X13950000Y14400000D01*
X13950000Y14400000D02*
X15550000Y14400000D01*
%TO.C,C9*%
X8400000Y15200000D02*
X11200000Y15200000D01*
X11200000Y15200000D02*
X11600000Y15600000D01*
X11600000Y15600000D02*
X11600000Y16800000D01*
X11600000Y16800000D02*
X8400000Y16800000D01*
X8400000Y16800000D02*
X8400000Y15200000D01*
%TO.C,C8*%
X17350000Y18300000D02*
X18150000Y18300000D01*
X18150000Y18300000D02*
X18150000Y16700000D01*
X18150000Y16700000D02*
X17350000Y16700000D01*
X17350000Y16700000D02*
X17350000Y18300000D01*
%TO.C,C7*%
X41300000Y12712500D02*
X41300000Y15512500D01*
X41300000Y15512500D02*
X40900000Y15912500D01*
X40900000Y15912500D02*
X39700000Y15912500D01*
X39700000Y15912500D02*
X39700000Y12712500D01*
X39700000Y12712500D02*
X41300000Y12712500D01*
%TO.C,C14*%
X31050000Y8900000D02*
X31050000Y11700000D01*
X31050000Y11700000D02*
X30650000Y12100000D01*
X30650000Y12100000D02*
X29450000Y12100000D01*
X29450000Y12100000D02*
X29450000Y8900000D01*
X29450000Y8900000D02*
X31050000Y8900000D01*
%TO.C,C6*%
X38675000Y7650000D02*
X38675000Y6850000D01*
X38675000Y6850000D02*
X37075000Y6850000D01*
X37075000Y6850000D02*
X37075000Y7650000D01*
X37075000Y7650000D02*
X38675000Y7650000D01*
%TO.C,X2*%
X48305000Y2380000D02*
X50210000Y2380000D01*
X50210000Y2380000D02*
X50210000Y17620000D01*
X50210000Y17620000D02*
X47670000Y17620000D01*
X47670000Y17620000D02*
X47670000Y3015000D01*
X47670000Y3015000D02*
X48305000Y2380000D01*
X43310000Y3330000D02*
X47670000Y3330000D01*
X43310000Y3330000D02*
X43310000Y3970000D01*
X43310000Y3970000D02*
X47670000Y3970000D01*
X50210000Y3330000D02*
X56210000Y3330000D01*
X56210000Y3330000D02*
X56210000Y3970000D01*
X50210000Y3970000D02*
X56210000Y3970000D01*
X43310000Y5870000D02*
X47670000Y5870000D01*
X43310000Y5870000D02*
X43310000Y6510000D01*
X43310000Y6510000D02*
X47670000Y6510000D01*
X50210000Y5870000D02*
X56210000Y5870000D01*
X56210000Y5870000D02*
X56210000Y6510000D01*
X50210000Y6510000D02*
X56210000Y6510000D01*
X43310000Y8410000D02*
X47670000Y8410000D01*
X43310000Y8410000D02*
X43310000Y9050000D01*
X43310000Y9050000D02*
X47670000Y9050000D01*
X50210000Y8410000D02*
X56210000Y8410000D01*
X56210000Y8410000D02*
X56210000Y9050000D01*
X50210000Y9050000D02*
X56210000Y9050000D01*
X43310000Y10950000D02*
X47670000Y10950000D01*
X43310000Y10950000D02*
X43310000Y11590000D01*
X43310000Y11590000D02*
X47670000Y11590000D01*
X50210000Y10950000D02*
X56210000Y10950000D01*
X56210000Y10950000D02*
X56210000Y11590000D01*
X50210000Y11590000D02*
X56210000Y11590000D01*
X43310000Y13490000D02*
X47670000Y13490000D01*
X43310000Y13490000D02*
X43310000Y14130000D01*
X43310000Y14130000D02*
X47670000Y14130000D01*
X50210000Y13490000D02*
X56210000Y13490000D01*
X56210000Y13490000D02*
X56210000Y14130000D01*
X50210000Y14130000D02*
X56210000Y14130000D01*
X43310000Y16030000D02*
X47670000Y16030000D01*
X43310000Y16030000D02*
X43310000Y16670000D01*
X43310000Y16670000D02*
X47670000Y16670000D01*
X50210000Y16030000D02*
X56210000Y16030000D01*
X56210000Y16030000D02*
X56210000Y16670000D01*
X50210000Y16670000D02*
X56210000Y16670000D01*
D12*
%TO.C,X1*%
X11000000Y7000000D02*
X11000000Y13000000D01*
X11000000Y13000000D02*
X0Y13000000D01*
X-3000000Y12500000D02*
X-3000000Y7500000D01*
X0Y7000000D02*
X11000000Y7000000D01*
X0Y13000000D02*
X0Y7000000D01*
X0Y7500000D02*
X-3000000Y7500000D01*
X0Y12500000D02*
X-3000000Y12500000D01*
D11*
%TO.C,R10*%
X17350000Y13800000D02*
X18150000Y13800000D01*
X18150000Y13800000D02*
X18150000Y12200000D01*
X18150000Y12200000D02*
X17350000Y12200000D01*
X17350000Y12200000D02*
X17350000Y13800000D01*
%TO.C,R9*%
X13950000Y18100000D02*
X13950000Y18900000D01*
X13950000Y18900000D02*
X15550000Y18900000D01*
X15550000Y18900000D02*
X15550000Y18100000D01*
X15550000Y18100000D02*
X13950000Y18100000D01*
%TO.C,R8*%
X13950000Y11600000D02*
X13950000Y12400000D01*
X13950000Y12400000D02*
X15550000Y12400000D01*
X15550000Y12400000D02*
X15550000Y11600000D01*
X15550000Y11600000D02*
X13950000Y11600000D01*
%TO.C,R7*%
X25850000Y13300000D02*
X26650000Y13300000D01*
X26650000Y13300000D02*
X26650000Y11700000D01*
X26650000Y11700000D02*
X25850000Y11700000D01*
X25850000Y11700000D02*
X25850000Y13300000D01*
%TO.C,R6*%
X13950000Y16100000D02*
X13950000Y16900000D01*
X13950000Y16900000D02*
X15550000Y16900000D01*
X15550000Y16900000D02*
X15550000Y16100000D01*
X15550000Y16100000D02*
X13950000Y16100000D01*
%TO.C,R5*%
X17350000Y3550000D02*
X18150000Y3550000D01*
X18150000Y3550000D02*
X18150000Y1950000D01*
X18150000Y1950000D02*
X17350000Y1950000D01*
X17350000Y1950000D02*
X17350000Y3550000D01*
%TO.C,R4*%
X13950000Y7850000D02*
X13950000Y8650000D01*
X13950000Y8650000D02*
X15550000Y8650000D01*
X15550000Y8650000D02*
X15550000Y7850000D01*
X15550000Y7850000D02*
X13950000Y7850000D01*
%TO.C,R3*%
X13950000Y1350000D02*
X13950000Y2150000D01*
X13950000Y2150000D02*
X15550000Y2150000D01*
X15550000Y2150000D02*
X15550000Y1350000D01*
X15550000Y1350000D02*
X13950000Y1350000D01*
%TO.C,R2*%
X26650000Y2700000D02*
X25850000Y2700000D01*
X25850000Y2700000D02*
X25850000Y4300000D01*
X25850000Y4300000D02*
X26650000Y4300000D01*
X26650000Y4300000D02*
X26650000Y2700000D01*
%TO.C,R1*%
X13950000Y5850000D02*
X13950000Y6650000D01*
X13950000Y6650000D02*
X15550000Y6650000D01*
X15550000Y6650000D02*
X15550000Y5850000D01*
X15550000Y5850000D02*
X13950000Y5850000D01*
%TO.C,D5*%
X34950000Y10700000D02*
X32500000Y10700000D01*
X35520000Y10150000D02*
X35520000Y9300000D01*
X34950000Y10700000D02*
X35520000Y10150000D01*
X35520000Y9300000D02*
X32480000Y9300000D01*
X32480000Y10700000D02*
X32480000Y9300000D01*
%TO.C,D4*%
X32310000Y18480000D02*
X35130000Y18480000D01*
X35130000Y18480000D02*
X35130000Y13520000D01*
X35130000Y13520000D02*
X31370000Y13520000D01*
X31370000Y13520000D02*
X31370000Y17540000D01*
X31370000Y17540000D02*
X32310000Y18480000D01*
%TO.C,D3*%
X21350000Y17650000D02*
X22000000Y18300000D01*
X23150000Y18300000D02*
X22000000Y18300000D01*
X21350000Y17650000D02*
X21350000Y15200000D01*
X23150000Y15200000D02*
X21350000Y15200000D01*
X23150000Y18300000D02*
X23150000Y15200000D01*
%TO.C,D2*%
X32310000Y5980000D02*
X35130000Y5980000D01*
X35130000Y5980000D02*
X35130000Y1020000D01*
X35130000Y1020000D02*
X31370000Y1020000D01*
X31370000Y1020000D02*
X31370000Y5040000D01*
X31370000Y5040000D02*
X32310000Y5980000D01*
%TO.C,D1*%
X21350000Y7150000D02*
X22000000Y7800000D01*
X23150000Y7800000D02*
X22000000Y7800000D01*
X21350000Y7150000D02*
X21350000Y4700000D01*
X23150000Y4700000D02*
X21350000Y4700000D01*
X23150000Y7800000D02*
X23150000Y4700000D01*
%TO.C,C13*%
X40550000Y18650000D02*
X40550000Y17850000D01*
X40550000Y17850000D02*
X38950000Y17850000D01*
X38950000Y17850000D02*
X38950000Y18650000D01*
X38950000Y18650000D02*
X40550000Y18650000D01*
%TO.C,C5*%
X25850000Y8050000D02*
X26650000Y8050000D01*
X26650000Y8050000D02*
X26650000Y6450000D01*
X26650000Y6450000D02*
X25850000Y6450000D01*
X25850000Y6450000D02*
X25850000Y8050000D01*
%TO.C,C4*%
X23850000Y2800000D02*
X21050000Y2800000D01*
X21050000Y2800000D02*
X20650000Y2400000D01*
X20650000Y2400000D02*
X20650000Y1200000D01*
X20650000Y1200000D02*
X23850000Y1200000D01*
X23850000Y1200000D02*
X23850000Y2800000D01*
%TO.C,C3*%
X15550000Y4150000D02*
X15550000Y3350000D01*
X15550000Y3350000D02*
X13950000Y3350000D01*
X13950000Y3350000D02*
X13950000Y4150000D01*
X13950000Y4150000D02*
X15550000Y4150000D01*
%TO.C,C2*%
X8400000Y3200000D02*
X11200000Y3200000D01*
X11200000Y3200000D02*
X11600000Y3600000D01*
X11600000Y3600000D02*
X11600000Y4800000D01*
X11600000Y4800000D02*
X8400000Y4800000D01*
X8400000Y4800000D02*
X8400000Y3200000D01*
%TO.C,C1*%
X17350000Y8050000D02*
X18150000Y8050000D01*
X18150000Y8050000D02*
X18150000Y6450000D01*
X18150000Y6450000D02*
X17350000Y6450000D01*
X17350000Y6450000D02*
X17350000Y8050000D01*
%TD*%
%TO.C,X4*%
D13*
X2820476Y18237620D02*
X3487142Y17237620D01*
X3487142Y18237620D02*
X2820476Y17237620D01*
X4296666Y17904286D02*
X4296666Y17237620D01*
X4058571Y18285239D02*
X3820476Y17570953D01*
X4439523Y17570953D01*
%TO.C,X3*%
X2790476Y2747620D02*
X3457142Y1747620D01*
X3457142Y2747620D02*
X2790476Y1747620D01*
X3742857Y2747620D02*
X4361904Y2747620D01*
X4028571Y2366667D01*
X4171428Y2366667D01*
X4266666Y2319048D01*
X4314285Y2271429D01*
X4361904Y2176191D01*
X4361904Y1938096D01*
X4314285Y1842858D01*
X4266666Y1795239D01*
X4171428Y1747620D01*
X3885714Y1747620D01*
X3790476Y1795239D01*
X3742857Y1842858D01*
%TO.C,C12*%
D14*
X26392857Y16567858D02*
X26411904Y16548810D01*
X26430952Y16491667D01*
X26430952Y16453572D01*
X26411904Y16396429D01*
X26373809Y16358334D01*
X26335714Y16339286D01*
X26259523Y16320239D01*
X26202380Y16320239D01*
X26126190Y16339286D01*
X26088095Y16358334D01*
X26050000Y16396429D01*
X26030952Y16453572D01*
X26030952Y16491667D01*
X26050000Y16548810D01*
X26069047Y16567858D01*
X26430952Y16948810D02*
X26430952Y16720239D01*
X26430952Y16834524D02*
X26030952Y16834524D01*
X26088095Y16796429D01*
X26126190Y16758334D01*
X26145238Y16720239D01*
X26069047Y17101191D02*
X26050000Y17120239D01*
X26030952Y17158334D01*
X26030952Y17253572D01*
X26050000Y17291667D01*
X26069047Y17310715D01*
X26107142Y17329762D01*
X26145238Y17329762D01*
X26202380Y17310715D01*
X26430952Y17082143D01*
X26430952Y17329762D01*
%TO.C,C11*%
D12*
X21735714Y11964286D02*
X21697619Y11926191D01*
X21583333Y11888096D01*
X21507142Y11888096D01*
X21392857Y11926191D01*
X21316666Y12002381D01*
X21278571Y12078572D01*
X21240476Y12230953D01*
X21240476Y12345239D01*
X21278571Y12497620D01*
X21316666Y12573810D01*
X21392857Y12650000D01*
X21507142Y12688096D01*
X21583333Y12688096D01*
X21697619Y12650000D01*
X21735714Y12611905D01*
X22497619Y11888096D02*
X22040476Y11888096D01*
X22269047Y11888096D02*
X22269047Y12688096D01*
X22192857Y12573810D01*
X22116666Y12497620D01*
X22040476Y12459524D01*
X23259523Y11888096D02*
X22802380Y11888096D01*
X23030952Y11888096D02*
X23030952Y12688096D01*
X22954761Y12573810D01*
X22878571Y12497620D01*
X22802380Y12459524D01*
%TO.C,C10*%
D14*
X14492857Y13857143D02*
X14473809Y13838096D01*
X14416666Y13819048D01*
X14378571Y13819048D01*
X14321428Y13838096D01*
X14283333Y13876191D01*
X14264285Y13914286D01*
X14245238Y13990477D01*
X14245238Y14047620D01*
X14264285Y14123810D01*
X14283333Y14161905D01*
X14321428Y14200000D01*
X14378571Y14219048D01*
X14416666Y14219048D01*
X14473809Y14200000D01*
X14492857Y14180953D01*
X14873809Y13819048D02*
X14645238Y13819048D01*
X14759523Y13819048D02*
X14759523Y14219048D01*
X14721428Y14161905D01*
X14683333Y14123810D01*
X14645238Y14104762D01*
X15121428Y14219048D02*
X15159523Y14219048D01*
X15197619Y14200000D01*
X15216666Y14180953D01*
X15235714Y14142858D01*
X15254761Y14066667D01*
X15254761Y13971429D01*
X15235714Y13895239D01*
X15216666Y13857143D01*
X15197619Y13838096D01*
X15159523Y13819048D01*
X15121428Y13819048D01*
X15083333Y13838096D01*
X15064285Y13857143D01*
X15045238Y13895239D01*
X15026190Y13971429D01*
X15026190Y14066667D01*
X15045238Y14142858D01*
X15064285Y14180953D01*
X15083333Y14200000D01*
X15121428Y14219048D01*
%TO.C,C9*%
D12*
X9916666Y15664286D02*
X9878571Y15626191D01*
X9764285Y15588096D01*
X9688095Y15588096D01*
X9573809Y15626191D01*
X9497619Y15702381D01*
X9459523Y15778572D01*
X9421428Y15930953D01*
X9421428Y16045239D01*
X9459523Y16197620D01*
X9497619Y16273810D01*
X9573809Y16350000D01*
X9688095Y16388096D01*
X9764285Y16388096D01*
X9878571Y16350000D01*
X9916666Y16311905D01*
X10297619Y15588096D02*
X10450000Y15588096D01*
X10526190Y15626191D01*
X10564285Y15664286D01*
X10640476Y15778572D01*
X10678571Y15930953D01*
X10678571Y16235715D01*
X10640476Y16311905D01*
X10602380Y16350000D01*
X10526190Y16388096D01*
X10373809Y16388096D01*
X10297619Y16350000D01*
X10259523Y16311905D01*
X10221428Y16235715D01*
X10221428Y16045239D01*
X10259523Y15969048D01*
X10297619Y15930953D01*
X10373809Y15892858D01*
X10526190Y15892858D01*
X10602380Y15930953D01*
X10640476Y15969048D01*
X10678571Y16045239D01*
%TO.C,C8*%
D14*
X17892857Y17433334D02*
X17911904Y17414286D01*
X17930952Y17357143D01*
X17930952Y17319048D01*
X17911904Y17261905D01*
X17873809Y17223810D01*
X17835714Y17204762D01*
X17759523Y17185715D01*
X17702380Y17185715D01*
X17626190Y17204762D01*
X17588095Y17223810D01*
X17550000Y17261905D01*
X17530952Y17319048D01*
X17530952Y17357143D01*
X17550000Y17414286D01*
X17569047Y17433334D01*
X17702380Y17661905D02*
X17683333Y17623810D01*
X17664285Y17604762D01*
X17626190Y17585715D01*
X17607142Y17585715D01*
X17569047Y17604762D01*
X17550000Y17623810D01*
X17530952Y17661905D01*
X17530952Y17738096D01*
X17550000Y17776191D01*
X17569047Y17795239D01*
X17607142Y17814286D01*
X17626190Y17814286D01*
X17664285Y17795239D01*
X17683333Y17776191D01*
X17702380Y17738096D01*
X17702380Y17661905D01*
X17721428Y17623810D01*
X17740476Y17604762D01*
X17778571Y17585715D01*
X17854761Y17585715D01*
X17892857Y17604762D01*
X17911904Y17623810D01*
X17930952Y17661905D01*
X17930952Y17738096D01*
X17911904Y17776191D01*
X17892857Y17795239D01*
X17854761Y17814286D01*
X17778571Y17814286D01*
X17740476Y17795239D01*
X17721428Y17776191D01*
X17702380Y17738096D01*
%TO.C,C7*%
D12*
X40785714Y14179167D02*
X40823809Y14141072D01*
X40861904Y14026786D01*
X40861904Y13950596D01*
X40823809Y13836310D01*
X40747619Y13760120D01*
X40671428Y13722024D01*
X40519047Y13683929D01*
X40404761Y13683929D01*
X40252380Y13722024D01*
X40176190Y13760120D01*
X40100000Y13836310D01*
X40061904Y13950596D01*
X40061904Y14026786D01*
X40100000Y14141072D01*
X40138095Y14179167D01*
X40061904Y14445834D02*
X40061904Y14979167D01*
X40861904Y14636310D01*
%TO.C,C14*%
X30535714Y9985715D02*
X30573809Y9947620D01*
X30611904Y9833334D01*
X30611904Y9757143D01*
X30573809Y9642858D01*
X30497619Y9566667D01*
X30421428Y9528572D01*
X30269047Y9490477D01*
X30154761Y9490477D01*
X30002380Y9528572D01*
X29926190Y9566667D01*
X29850000Y9642858D01*
X29811904Y9757143D01*
X29811904Y9833334D01*
X29850000Y9947620D01*
X29888095Y9985715D01*
X30611904Y10747620D02*
X30611904Y10290477D01*
X30611904Y10519048D02*
X29811904Y10519048D01*
X29926190Y10442858D01*
X30002380Y10366667D01*
X30040476Y10290477D01*
X30078571Y11433334D02*
X30611904Y11433334D01*
X29773809Y11242858D02*
X30345238Y11052381D01*
X30345238Y11547620D01*
%TO.C,C6*%
D14*
X37808333Y7107143D02*
X37789285Y7088096D01*
X37732142Y7069048D01*
X37694047Y7069048D01*
X37636904Y7088096D01*
X37598809Y7126191D01*
X37579761Y7164286D01*
X37560714Y7240477D01*
X37560714Y7297620D01*
X37579761Y7373810D01*
X37598809Y7411905D01*
X37636904Y7450000D01*
X37694047Y7469048D01*
X37732142Y7469048D01*
X37789285Y7450000D01*
X37808333Y7430953D01*
X38151190Y7469048D02*
X38075000Y7469048D01*
X38036904Y7450000D01*
X38017857Y7430953D01*
X37979761Y7373810D01*
X37960714Y7297620D01*
X37960714Y7145239D01*
X37979761Y7107143D01*
X37998809Y7088096D01*
X38036904Y7069048D01*
X38113095Y7069048D01*
X38151190Y7088096D01*
X38170238Y7107143D01*
X38189285Y7145239D01*
X38189285Y7240477D01*
X38170238Y7278572D01*
X38151190Y7297620D01*
X38113095Y7316667D01*
X38036904Y7316667D01*
X37998809Y7297620D01*
X37979761Y7278572D01*
X37960714Y7240477D01*
%TO.C,X2*%
D13*
X48202380Y9240477D02*
X49202380Y9907143D01*
X48202380Y9907143D02*
X49202380Y9240477D01*
X48297619Y10240477D02*
X48250000Y10288096D01*
X48202380Y10383334D01*
X48202380Y10621429D01*
X48250000Y10716667D01*
X48297619Y10764286D01*
X48392857Y10811905D01*
X48488095Y10811905D01*
X48630952Y10764286D01*
X49202380Y10192858D01*
X49202380Y10811905D01*
%TO.C,X1*%
X3502380Y9390477D02*
X4502380Y10057143D01*
X3502380Y10057143D02*
X4502380Y9390477D01*
X4502380Y10961905D02*
X4502380Y10390477D01*
X4502380Y10676191D02*
X3502380Y10676191D01*
X3645238Y10580953D01*
X3740476Y10485715D01*
X3788095Y10390477D01*
%TO.C,R10*%
D14*
X17930952Y12742858D02*
X17740476Y12609524D01*
X17930952Y12514286D02*
X17530952Y12514286D01*
X17530952Y12666667D01*
X17550000Y12704762D01*
X17569047Y12723810D01*
X17607142Y12742858D01*
X17664285Y12742858D01*
X17702380Y12723810D01*
X17721428Y12704762D01*
X17740476Y12666667D01*
X17740476Y12514286D01*
X17930952Y13123810D02*
X17930952Y12895239D01*
X17930952Y13009524D02*
X17530952Y13009524D01*
X17588095Y12971429D01*
X17626190Y12933334D01*
X17645238Y12895239D01*
X17530952Y13371429D02*
X17530952Y13409524D01*
X17550000Y13447620D01*
X17569047Y13466667D01*
X17607142Y13485715D01*
X17683333Y13504762D01*
X17778571Y13504762D01*
X17854761Y13485715D01*
X17892857Y13466667D01*
X17911904Y13447620D01*
X17930952Y13409524D01*
X17930952Y13371429D01*
X17911904Y13333334D01*
X17892857Y13314286D01*
X17854761Y13295239D01*
X17778571Y13276191D01*
X17683333Y13276191D01*
X17607142Y13295239D01*
X17569047Y13314286D01*
X17550000Y13333334D01*
X17530952Y13371429D01*
%TO.C,R9*%
X14683333Y18319048D02*
X14550000Y18509524D01*
X14454761Y18319048D02*
X14454761Y18719048D01*
X14607142Y18719048D01*
X14645238Y18700000D01*
X14664285Y18680953D01*
X14683333Y18642858D01*
X14683333Y18585715D01*
X14664285Y18547620D01*
X14645238Y18528572D01*
X14607142Y18509524D01*
X14454761Y18509524D01*
X14873809Y18319048D02*
X14950000Y18319048D01*
X14988095Y18338096D01*
X15007142Y18357143D01*
X15045238Y18414286D01*
X15064285Y18490477D01*
X15064285Y18642858D01*
X15045238Y18680953D01*
X15026190Y18700000D01*
X14988095Y18719048D01*
X14911904Y18719048D01*
X14873809Y18700000D01*
X14854761Y18680953D01*
X14835714Y18642858D01*
X14835714Y18547620D01*
X14854761Y18509524D01*
X14873809Y18490477D01*
X14911904Y18471429D01*
X14988095Y18471429D01*
X15026190Y18490477D01*
X15045238Y18509524D01*
X15064285Y18547620D01*
%TO.C,R8*%
X14683333Y11819048D02*
X14550000Y12009524D01*
X14454761Y11819048D02*
X14454761Y12219048D01*
X14607142Y12219048D01*
X14645238Y12200000D01*
X14664285Y12180953D01*
X14683333Y12142858D01*
X14683333Y12085715D01*
X14664285Y12047620D01*
X14645238Y12028572D01*
X14607142Y12009524D01*
X14454761Y12009524D01*
X14911904Y12047620D02*
X14873809Y12066667D01*
X14854761Y12085715D01*
X14835714Y12123810D01*
X14835714Y12142858D01*
X14854761Y12180953D01*
X14873809Y12200000D01*
X14911904Y12219048D01*
X14988095Y12219048D01*
X15026190Y12200000D01*
X15045238Y12180953D01*
X15064285Y12142858D01*
X15064285Y12123810D01*
X15045238Y12085715D01*
X15026190Y12066667D01*
X14988095Y12047620D01*
X14911904Y12047620D01*
X14873809Y12028572D01*
X14854761Y12009524D01*
X14835714Y11971429D01*
X14835714Y11895239D01*
X14854761Y11857143D01*
X14873809Y11838096D01*
X14911904Y11819048D01*
X14988095Y11819048D01*
X15026190Y11838096D01*
X15045238Y11857143D01*
X15064285Y11895239D01*
X15064285Y11971429D01*
X15045238Y12009524D01*
X15026190Y12028572D01*
X14988095Y12047620D01*
%TO.C,R7*%
X26430952Y12433334D02*
X26240476Y12300000D01*
X26430952Y12204762D02*
X26030952Y12204762D01*
X26030952Y12357143D01*
X26050000Y12395239D01*
X26069047Y12414286D01*
X26107142Y12433334D01*
X26164285Y12433334D01*
X26202380Y12414286D01*
X26221428Y12395239D01*
X26240476Y12357143D01*
X26240476Y12204762D01*
X26030952Y12566667D02*
X26030952Y12833334D01*
X26430952Y12661905D01*
%TO.C,R6*%
X14683333Y16319048D02*
X14550000Y16509524D01*
X14454761Y16319048D02*
X14454761Y16719048D01*
X14607142Y16719048D01*
X14645238Y16700000D01*
X14664285Y16680953D01*
X14683333Y16642858D01*
X14683333Y16585715D01*
X14664285Y16547620D01*
X14645238Y16528572D01*
X14607142Y16509524D01*
X14454761Y16509524D01*
X15026190Y16719048D02*
X14950000Y16719048D01*
X14911904Y16700000D01*
X14892857Y16680953D01*
X14854761Y16623810D01*
X14835714Y16547620D01*
X14835714Y16395239D01*
X14854761Y16357143D01*
X14873809Y16338096D01*
X14911904Y16319048D01*
X14988095Y16319048D01*
X15026190Y16338096D01*
X15045238Y16357143D01*
X15064285Y16395239D01*
X15064285Y16490477D01*
X15045238Y16528572D01*
X15026190Y16547620D01*
X14988095Y16566667D01*
X14911904Y16566667D01*
X14873809Y16547620D01*
X14854761Y16528572D01*
X14835714Y16490477D01*
%TO.C,R5*%
X17930952Y2683334D02*
X17740476Y2550000D01*
X17930952Y2454762D02*
X17530952Y2454762D01*
X17530952Y2607143D01*
X17550000Y2645239D01*
X17569047Y2664286D01*
X17607142Y2683334D01*
X17664285Y2683334D01*
X17702380Y2664286D01*
X17721428Y2645239D01*
X17740476Y2607143D01*
X17740476Y2454762D01*
X17530952Y3045239D02*
X17530952Y2854762D01*
X17721428Y2835715D01*
X17702380Y2854762D01*
X17683333Y2892858D01*
X17683333Y2988096D01*
X17702380Y3026191D01*
X17721428Y3045239D01*
X17759523Y3064286D01*
X17854761Y3064286D01*
X17892857Y3045239D01*
X17911904Y3026191D01*
X17930952Y2988096D01*
X17930952Y2892858D01*
X17911904Y2854762D01*
X17892857Y2835715D01*
%TO.C,R4*%
X14683333Y8069048D02*
X14550000Y8259524D01*
X14454761Y8069048D02*
X14454761Y8469048D01*
X14607142Y8469048D01*
X14645238Y8450000D01*
X14664285Y8430953D01*
X14683333Y8392858D01*
X14683333Y8335715D01*
X14664285Y8297620D01*
X14645238Y8278572D01*
X14607142Y8259524D01*
X14454761Y8259524D01*
X15026190Y8335715D02*
X15026190Y8069048D01*
X14930952Y8488096D02*
X14835714Y8202381D01*
X15083333Y8202381D01*
%TO.C,R3*%
X14683333Y1569048D02*
X14550000Y1759524D01*
X14454761Y1569048D02*
X14454761Y1969048D01*
X14607142Y1969048D01*
X14645238Y1950000D01*
X14664285Y1930953D01*
X14683333Y1892858D01*
X14683333Y1835715D01*
X14664285Y1797620D01*
X14645238Y1778572D01*
X14607142Y1759524D01*
X14454761Y1759524D01*
X14816666Y1969048D02*
X15064285Y1969048D01*
X14930952Y1816667D01*
X14988095Y1816667D01*
X15026190Y1797620D01*
X15045238Y1778572D01*
X15064285Y1740477D01*
X15064285Y1645239D01*
X15045238Y1607143D01*
X15026190Y1588096D01*
X14988095Y1569048D01*
X14873809Y1569048D01*
X14835714Y1588096D01*
X14816666Y1607143D01*
%TO.C,R2*%
X26430952Y3433334D02*
X26240476Y3300000D01*
X26430952Y3204762D02*
X26030952Y3204762D01*
X26030952Y3357143D01*
X26050000Y3395239D01*
X26069047Y3414286D01*
X26107142Y3433334D01*
X26164285Y3433334D01*
X26202380Y3414286D01*
X26221428Y3395239D01*
X26240476Y3357143D01*
X26240476Y3204762D01*
X26069047Y3585715D02*
X26050000Y3604762D01*
X26030952Y3642858D01*
X26030952Y3738096D01*
X26050000Y3776191D01*
X26069047Y3795239D01*
X26107142Y3814286D01*
X26145238Y3814286D01*
X26202380Y3795239D01*
X26430952Y3566667D01*
X26430952Y3814286D01*
%TO.C,R1*%
X14683333Y6069048D02*
X14550000Y6259524D01*
X14454761Y6069048D02*
X14454761Y6469048D01*
X14607142Y6469048D01*
X14645238Y6450000D01*
X14664285Y6430953D01*
X14683333Y6392858D01*
X14683333Y6335715D01*
X14664285Y6297620D01*
X14645238Y6278572D01*
X14607142Y6259524D01*
X14454761Y6259524D01*
X15064285Y6069048D02*
X14835714Y6069048D01*
X14950000Y6069048D02*
X14950000Y6469048D01*
X14911904Y6411905D01*
X14873809Y6373810D01*
X14835714Y6354762D01*
%TO.C,D5*%
D15*
X33630952Y9773810D02*
X33630952Y10273810D01*
X33750000Y10273810D01*
X33821428Y10250000D01*
X33869047Y10202381D01*
X33892857Y10154762D01*
X33916666Y10059524D01*
X33916666Y9988096D01*
X33892857Y9892858D01*
X33869047Y9845239D01*
X33821428Y9797620D01*
X33750000Y9773810D01*
X33630952Y9773810D01*
X34369047Y10273810D02*
X34130952Y10273810D01*
X34107142Y10035715D01*
X34130952Y10059524D01*
X34178571Y10083334D01*
X34297619Y10083334D01*
X34345238Y10059524D01*
X34369047Y10035715D01*
X34392857Y9988096D01*
X34392857Y9869048D01*
X34369047Y9821429D01*
X34345238Y9797620D01*
X34297619Y9773810D01*
X34178571Y9773810D01*
X34130952Y9797620D01*
X34107142Y9821429D01*
%TO.C,D4*%
D16*
X32556190Y15574762D02*
X32556190Y16514762D01*
X32780000Y16514762D01*
X32914285Y16470000D01*
X33003809Y16380477D01*
X33048571Y16290953D01*
X33093333Y16111905D01*
X33093333Y15977620D01*
X33048571Y15798572D01*
X33003809Y15709048D01*
X32914285Y15619524D01*
X32780000Y15574762D01*
X32556190Y15574762D01*
X33899047Y16201429D02*
X33899047Y15574762D01*
X33675238Y16559524D02*
X33451428Y15888096D01*
X34033333Y15888096D01*
%TO.C,D3*%
D15*
X22476190Y16380953D02*
X21976190Y16380953D01*
X21976190Y16500000D01*
X22000000Y16571429D01*
X22047619Y16619048D01*
X22095238Y16642858D01*
X22190476Y16666667D01*
X22261904Y16666667D01*
X22357142Y16642858D01*
X22404761Y16619048D01*
X22452380Y16571429D01*
X22476190Y16500000D01*
X22476190Y16380953D01*
X21976190Y16833334D02*
X21976190Y17142858D01*
X22166666Y16976191D01*
X22166666Y17047620D01*
X22190476Y17095239D01*
X22214285Y17119048D01*
X22261904Y17142858D01*
X22380952Y17142858D01*
X22428571Y17119048D01*
X22452380Y17095239D01*
X22476190Y17047620D01*
X22476190Y16904762D01*
X22452380Y16857143D01*
X22428571Y16833334D01*
%TO.C,D2*%
D16*
X32556190Y3074762D02*
X32556190Y4014762D01*
X32780000Y4014762D01*
X32914285Y3970000D01*
X33003809Y3880477D01*
X33048571Y3790953D01*
X33093333Y3611905D01*
X33093333Y3477620D01*
X33048571Y3298572D01*
X33003809Y3209048D01*
X32914285Y3119524D01*
X32780000Y3074762D01*
X32556190Y3074762D01*
X33451428Y3925239D02*
X33496190Y3970000D01*
X33585714Y4014762D01*
X33809523Y4014762D01*
X33899047Y3970000D01*
X33943809Y3925239D01*
X33988571Y3835715D01*
X33988571Y3746191D01*
X33943809Y3611905D01*
X33406666Y3074762D01*
X33988571Y3074762D01*
%TO.C,D1*%
D15*
X22476190Y5880953D02*
X21976190Y5880953D01*
X21976190Y6000000D01*
X22000000Y6071429D01*
X22047619Y6119048D01*
X22095238Y6142858D01*
X22190476Y6166667D01*
X22261904Y6166667D01*
X22357142Y6142858D01*
X22404761Y6119048D01*
X22452380Y6071429D01*
X22476190Y6000000D01*
X22476190Y5880953D01*
X22476190Y6642858D02*
X22476190Y6357143D01*
X22476190Y6500000D02*
X21976190Y6500000D01*
X22047619Y6452381D01*
X22095238Y6404762D01*
X22119047Y6357143D01*
%TO.C,C13*%
D14*
X39492857Y18107143D02*
X39473809Y18088096D01*
X39416666Y18069048D01*
X39378571Y18069048D01*
X39321428Y18088096D01*
X39283333Y18126191D01*
X39264285Y18164286D01*
X39245238Y18240477D01*
X39245238Y18297620D01*
X39264285Y18373810D01*
X39283333Y18411905D01*
X39321428Y18450000D01*
X39378571Y18469048D01*
X39416666Y18469048D01*
X39473809Y18450000D01*
X39492857Y18430953D01*
X39873809Y18069048D02*
X39645238Y18069048D01*
X39759523Y18069048D02*
X39759523Y18469048D01*
X39721428Y18411905D01*
X39683333Y18373810D01*
X39645238Y18354762D01*
X40007142Y18469048D02*
X40254761Y18469048D01*
X40121428Y18316667D01*
X40178571Y18316667D01*
X40216666Y18297620D01*
X40235714Y18278572D01*
X40254761Y18240477D01*
X40254761Y18145239D01*
X40235714Y18107143D01*
X40216666Y18088096D01*
X40178571Y18069048D01*
X40064285Y18069048D01*
X40026190Y18088096D01*
X40007142Y18107143D01*
%TO.C,C5*%
X26392857Y7183334D02*
X26411904Y7164286D01*
X26430952Y7107143D01*
X26430952Y7069048D01*
X26411904Y7011905D01*
X26373809Y6973810D01*
X26335714Y6954762D01*
X26259523Y6935715D01*
X26202380Y6935715D01*
X26126190Y6954762D01*
X26088095Y6973810D01*
X26050000Y7011905D01*
X26030952Y7069048D01*
X26030952Y7107143D01*
X26050000Y7164286D01*
X26069047Y7183334D01*
X26030952Y7545239D02*
X26030952Y7354762D01*
X26221428Y7335715D01*
X26202380Y7354762D01*
X26183333Y7392858D01*
X26183333Y7488096D01*
X26202380Y7526191D01*
X26221428Y7545239D01*
X26259523Y7564286D01*
X26354761Y7564286D01*
X26392857Y7545239D01*
X26411904Y7526191D01*
X26430952Y7488096D01*
X26430952Y7392858D01*
X26411904Y7354762D01*
X26392857Y7335715D01*
%TO.C,C4*%
D12*
X22116666Y1714286D02*
X22078571Y1676191D01*
X21964285Y1638096D01*
X21888095Y1638096D01*
X21773809Y1676191D01*
X21697619Y1752381D01*
X21659523Y1828572D01*
X21621428Y1980953D01*
X21621428Y2095239D01*
X21659523Y2247620D01*
X21697619Y2323810D01*
X21773809Y2400000D01*
X21888095Y2438096D01*
X21964285Y2438096D01*
X22078571Y2400000D01*
X22116666Y2361905D01*
X22802380Y2171429D02*
X22802380Y1638096D01*
X22611904Y2476191D02*
X22421428Y1904762D01*
X22916666Y1904762D01*
%TO.C,C3*%
D14*
X14683333Y3607143D02*
X14664285Y3588096D01*
X14607142Y3569048D01*
X14569047Y3569048D01*
X14511904Y3588096D01*
X14473809Y3626191D01*
X14454761Y3664286D01*
X14435714Y3740477D01*
X14435714Y3797620D01*
X14454761Y3873810D01*
X14473809Y3911905D01*
X14511904Y3950000D01*
X14569047Y3969048D01*
X14607142Y3969048D01*
X14664285Y3950000D01*
X14683333Y3930953D01*
X14816666Y3969048D02*
X15064285Y3969048D01*
X14930952Y3816667D01*
X14988095Y3816667D01*
X15026190Y3797620D01*
X15045238Y3778572D01*
X15064285Y3740477D01*
X15064285Y3645239D01*
X15045238Y3607143D01*
X15026190Y3588096D01*
X14988095Y3569048D01*
X14873809Y3569048D01*
X14835714Y3588096D01*
X14816666Y3607143D01*
%TO.C,C2*%
D12*
X9806666Y3724286D02*
X9768571Y3686191D01*
X9654285Y3648096D01*
X9578095Y3648096D01*
X9463809Y3686191D01*
X9387619Y3762381D01*
X9349523Y3838572D01*
X9311428Y3990953D01*
X9311428Y4105239D01*
X9349523Y4257620D01*
X9387619Y4333810D01*
X9463809Y4410000D01*
X9578095Y4448096D01*
X9654285Y4448096D01*
X9768571Y4410000D01*
X9806666Y4371905D01*
X10111428Y4371905D02*
X10149523Y4410000D01*
X10225714Y4448096D01*
X10416190Y4448096D01*
X10492380Y4410000D01*
X10530476Y4371905D01*
X10568571Y4295715D01*
X10568571Y4219524D01*
X10530476Y4105239D01*
X10073333Y3648096D01*
X10568571Y3648096D01*
%TO.C,C1*%
D14*
X17492857Y6383334D02*
X17511904Y6364286D01*
X17530952Y6307143D01*
X17530952Y6269048D01*
X17511904Y6211905D01*
X17473809Y6173810D01*
X17435714Y6154762D01*
X17359523Y6135715D01*
X17302380Y6135715D01*
X17226190Y6154762D01*
X17188095Y6173810D01*
X17150000Y6211905D01*
X17130952Y6269048D01*
X17130952Y6307143D01*
X17150000Y6364286D01*
X17169047Y6383334D01*
X17530952Y6764286D02*
X17530952Y6535715D01*
X17530952Y6650000D02*
X17130952Y6650000D01*
X17188095Y6611905D01*
X17226190Y6573810D01*
X17245238Y6535715D01*
%TD*%
M02*
