%TF.GenerationSoftware,KiCad,Pcbnew,5.1.9*%
%TF.CreationDate,2021-02-16T17:41:26+03:00*%
%TF.ProjectId,dual-mcp3201-pmod,6475616c-2d6d-4637-9033-3230312d706d,rev?*%
%TF.SameCoordinates,PX4c4b400PY8583b00*%
%TF.FileFunction,Soldermask,Bot*%
%TF.FilePolarity,Negative*%
%FSLAX46Y46*%
G04 Gerber Fmt 4.6, Leading zero omitted, Abs format (unit mm)*
G04 Created by KiCad (PCBNEW 5.1.9) date 2021-02-16 17:41:26*
%MOMM*%
%LPD*%
G01*
G04 APERTURE LIST*
%ADD10C,0.500000*%
%TA.AperFunction,Profile*%
%ADD11C,0.050000*%
%TD*%
%ADD12C,0.010000*%
%ADD13O,1.700000X1.700000*%
%ADD14R,1.700000X1.700000*%
%ADD15C,1.700000*%
%ADD16C,1.100000*%
%ADD17C,2.000000*%
G04 APERTURE END LIST*
D10*
X16155000Y11085000D02*
X16155000Y12355000D01*
X17425000Y11085000D02*
X16155000Y11085000D01*
X17425000Y12355000D02*
X17425000Y11085000D01*
X14885000Y11085000D02*
X14885000Y12355000D01*
X13615000Y11085000D02*
X14885000Y11085000D01*
X13615000Y12355000D02*
X13615000Y11085000D01*
X13615000Y13625000D02*
X12345000Y13625000D01*
X13615000Y14895000D02*
X13615000Y13625000D01*
X12345000Y14895000D02*
X13615000Y14895000D01*
X17425000Y17435000D02*
X17425000Y16165000D01*
X16155000Y17435000D02*
X17425000Y17435000D01*
X16155000Y16165000D02*
X16155000Y17435000D01*
X14885000Y17435000D02*
X14885000Y16165000D01*
X13615000Y17435000D02*
X14885000Y17435000D01*
X13615000Y16165000D02*
X13615000Y17435000D01*
X12345000Y12355000D02*
X12345000Y16165000D01*
X18695000Y12355000D02*
X12345000Y12355000D01*
X18695000Y16165000D02*
X18695000Y12355000D01*
X12345000Y16165000D02*
X18695000Y16165000D01*
D11*
X50000000Y20000000D02*
X0Y20000000D01*
X50000000Y0D02*
X50000000Y20000000D01*
X0Y0D02*
X50000000Y0D01*
X0Y20000000D02*
X0Y0D01*
D12*
%TO.C,G\u002A\u002A\u002A*%
G36*
X31248556Y3673595D02*
G01*
X31410833Y3665131D01*
X31573111Y3656667D01*
X31581062Y3325056D01*
X31589013Y2993444D01*
X31924098Y2993444D01*
X31932049Y3325056D01*
X31940000Y3656667D01*
X33753278Y3663930D01*
X35566556Y3671192D01*
X35566556Y5392333D01*
X36102778Y5392333D01*
X36102778Y4912556D01*
X37485667Y4912556D01*
X37485667Y5420556D01*
X38219444Y5420556D01*
X38219444Y5787444D01*
X37485667Y5787444D01*
X37485667Y6295444D01*
X36102778Y6295444D01*
X36102778Y5787444D01*
X35227889Y5787444D01*
X35227889Y4037667D01*
X31924419Y4037667D01*
X31932209Y4468056D01*
X31940000Y4898444D01*
X32017611Y4907375D01*
X32095222Y4916305D01*
X32095222Y6409337D01*
X32779611Y6401779D01*
X33464000Y6394222D01*
X33478111Y6240450D01*
X33492222Y6086677D01*
X34141333Y6673004D01*
X34347893Y6861108D01*
X34513078Y7015007D01*
X34638852Y7136655D01*
X34727182Y7228008D01*
X34780031Y7291021D01*
X34799365Y7327648D01*
X34799375Y7327721D01*
X34808305Y7396111D01*
X36102778Y7396111D01*
X36102778Y6859889D01*
X37485667Y6859889D01*
X37485667Y7396111D01*
X38219444Y7396111D01*
X38219444Y7734778D01*
X37485667Y7734778D01*
X37485667Y8271000D01*
X36102778Y8271000D01*
X36102778Y7734778D01*
X34804556Y7734778D01*
X34804556Y9343444D01*
X36102778Y9343444D01*
X36102778Y8835444D01*
X37485667Y8835444D01*
X37485667Y9343444D01*
X38219444Y9343444D01*
X38219444Y9710333D01*
X37485667Y9710333D01*
X37485667Y10218333D01*
X36102778Y10218333D01*
X36102778Y9710333D01*
X34804556Y9710333D01*
X34804556Y9865378D01*
X34801944Y9956614D01*
X34786743Y10013673D01*
X34747903Y10058806D01*
X34684611Y10106891D01*
X34596229Y10171271D01*
X34512064Y10233626D01*
X34483414Y10255235D01*
X34436120Y10291147D01*
X34352207Y10354760D01*
X34240069Y10439715D01*
X34108097Y10539654D01*
X33964686Y10648220D01*
X33947192Y10661460D01*
X33492222Y11005810D01*
X33483692Y10866072D01*
X33475161Y10726333D01*
X32095222Y10726333D01*
X32095222Y12193889D01*
X31924380Y12193889D01*
X31932190Y12610167D01*
X31940000Y13026444D01*
X33583944Y13033727D01*
X35227889Y13041010D01*
X35227889Y11319000D01*
X36102778Y11319000D01*
X36102778Y10811000D01*
X37485667Y10811000D01*
X37485667Y11319000D01*
X38219444Y11319000D01*
X38219444Y11655980D01*
X37499778Y11671778D01*
X37491663Y11932833D01*
X37483548Y12193889D01*
X36102778Y12193889D01*
X36102778Y11683771D01*
X35841722Y11691885D01*
X35580667Y11700000D01*
X35573197Y12553722D01*
X35565728Y13407444D01*
X31925889Y13407444D01*
X31925889Y13971889D01*
X31587222Y13971889D01*
X31587222Y13407444D01*
X31248556Y13407444D01*
X31248556Y13971889D01*
X30909889Y13971889D01*
X30909889Y13407444D01*
X26930556Y13407444D01*
X26930556Y13040556D01*
X30909889Y13040556D01*
X30909889Y12193889D01*
X31248556Y12193889D01*
X31248556Y13040556D01*
X31587222Y13040556D01*
X31587222Y12193889D01*
X31248556Y12193889D01*
X30909889Y12193889D01*
X30712333Y12193889D01*
X30712333Y10726333D01*
X29668111Y10726333D01*
X29668111Y12193889D01*
X28257000Y12193889D01*
X28257000Y11798778D01*
X26930556Y11798778D01*
X26930556Y11460111D01*
X28257000Y11460111D01*
X28257000Y11065000D01*
X26930556Y11065000D01*
X26930556Y10726333D01*
X28257000Y10726333D01*
X28257000Y10331222D01*
X26930556Y10331222D01*
X26930556Y9964333D01*
X28257000Y9964333D01*
X28257000Y9597444D01*
X26930556Y9597444D01*
X26930556Y9230556D01*
X28257000Y9230556D01*
X28257000Y8863667D01*
X29668111Y8863667D01*
X29668111Y10387667D01*
X30712333Y10387667D01*
X30712333Y6747000D01*
X32095222Y6747000D01*
X32095222Y10387667D01*
X33478111Y10387667D01*
X33478111Y6747000D01*
X32095222Y6747000D01*
X30712333Y6747000D01*
X29668111Y6747000D01*
X29668111Y8242778D01*
X28257000Y8242778D01*
X28257000Y7847667D01*
X26930556Y7847667D01*
X26930556Y7509000D01*
X28257000Y7509000D01*
X28257000Y7113889D01*
X26930556Y7113889D01*
X26930556Y6775222D01*
X28257000Y6775222D01*
X28257000Y6380111D01*
X26930556Y6380111D01*
X26930556Y6041444D01*
X28257000Y6041444D01*
X28257000Y5646333D01*
X26930556Y5646333D01*
X26930556Y5279444D01*
X28257000Y5279444D01*
X28257000Y4912556D01*
X29668111Y4912556D01*
X29668111Y6409607D01*
X30183167Y6401914D01*
X30698222Y6394222D01*
X30713270Y4912556D01*
X30909889Y4912556D01*
X30909889Y4037667D01*
X31248556Y4037667D01*
X31248556Y4912556D01*
X31587222Y4912556D01*
X31587222Y4037667D01*
X31248556Y4037667D01*
X30909889Y4037667D01*
X26930556Y4037667D01*
X26930556Y3671159D01*
X30895778Y3656667D01*
X30903729Y3325056D01*
X30911680Y2993444D01*
X31248556Y2993444D01*
X31248556Y3673595D01*
G37*
X31248556Y3673595D02*
X31410833Y3665131D01*
X31573111Y3656667D01*
X31581062Y3325056D01*
X31589013Y2993444D01*
X31924098Y2993444D01*
X31932049Y3325056D01*
X31940000Y3656667D01*
X33753278Y3663930D01*
X35566556Y3671192D01*
X35566556Y5392333D01*
X36102778Y5392333D01*
X36102778Y4912556D01*
X37485667Y4912556D01*
X37485667Y5420556D01*
X38219444Y5420556D01*
X38219444Y5787444D01*
X37485667Y5787444D01*
X37485667Y6295444D01*
X36102778Y6295444D01*
X36102778Y5787444D01*
X35227889Y5787444D01*
X35227889Y4037667D01*
X31924419Y4037667D01*
X31932209Y4468056D01*
X31940000Y4898444D01*
X32017611Y4907375D01*
X32095222Y4916305D01*
X32095222Y6409337D01*
X32779611Y6401779D01*
X33464000Y6394222D01*
X33478111Y6240450D01*
X33492222Y6086677D01*
X34141333Y6673004D01*
X34347893Y6861108D01*
X34513078Y7015007D01*
X34638852Y7136655D01*
X34727182Y7228008D01*
X34780031Y7291021D01*
X34799365Y7327648D01*
X34799375Y7327721D01*
X34808305Y7396111D01*
X36102778Y7396111D01*
X36102778Y6859889D01*
X37485667Y6859889D01*
X37485667Y7396111D01*
X38219444Y7396111D01*
X38219444Y7734778D01*
X37485667Y7734778D01*
X37485667Y8271000D01*
X36102778Y8271000D01*
X36102778Y7734778D01*
X34804556Y7734778D01*
X34804556Y9343444D01*
X36102778Y9343444D01*
X36102778Y8835444D01*
X37485667Y8835444D01*
X37485667Y9343444D01*
X38219444Y9343444D01*
X38219444Y9710333D01*
X37485667Y9710333D01*
X37485667Y10218333D01*
X36102778Y10218333D01*
X36102778Y9710333D01*
X34804556Y9710333D01*
X34804556Y9865378D01*
X34801944Y9956614D01*
X34786743Y10013673D01*
X34747903Y10058806D01*
X34684611Y10106891D01*
X34596229Y10171271D01*
X34512064Y10233626D01*
X34483414Y10255235D01*
X34436120Y10291147D01*
X34352207Y10354760D01*
X34240069Y10439715D01*
X34108097Y10539654D01*
X33964686Y10648220D01*
X33947192Y10661460D01*
X33492222Y11005810D01*
X33483692Y10866072D01*
X33475161Y10726333D01*
X32095222Y10726333D01*
X32095222Y12193889D01*
X31924380Y12193889D01*
X31932190Y12610167D01*
X31940000Y13026444D01*
X33583944Y13033727D01*
X35227889Y13041010D01*
X35227889Y11319000D01*
X36102778Y11319000D01*
X36102778Y10811000D01*
X37485667Y10811000D01*
X37485667Y11319000D01*
X38219444Y11319000D01*
X38219444Y11655980D01*
X37499778Y11671778D01*
X37491663Y11932833D01*
X37483548Y12193889D01*
X36102778Y12193889D01*
X36102778Y11683771D01*
X35841722Y11691885D01*
X35580667Y11700000D01*
X35573197Y12553722D01*
X35565728Y13407444D01*
X31925889Y13407444D01*
X31925889Y13971889D01*
X31587222Y13971889D01*
X31587222Y13407444D01*
X31248556Y13407444D01*
X31248556Y13971889D01*
X30909889Y13971889D01*
X30909889Y13407444D01*
X26930556Y13407444D01*
X26930556Y13040556D01*
X30909889Y13040556D01*
X30909889Y12193889D01*
X31248556Y12193889D01*
X31248556Y13040556D01*
X31587222Y13040556D01*
X31587222Y12193889D01*
X31248556Y12193889D01*
X30909889Y12193889D01*
X30712333Y12193889D01*
X30712333Y10726333D01*
X29668111Y10726333D01*
X29668111Y12193889D01*
X28257000Y12193889D01*
X28257000Y11798778D01*
X26930556Y11798778D01*
X26930556Y11460111D01*
X28257000Y11460111D01*
X28257000Y11065000D01*
X26930556Y11065000D01*
X26930556Y10726333D01*
X28257000Y10726333D01*
X28257000Y10331222D01*
X26930556Y10331222D01*
X26930556Y9964333D01*
X28257000Y9964333D01*
X28257000Y9597444D01*
X26930556Y9597444D01*
X26930556Y9230556D01*
X28257000Y9230556D01*
X28257000Y8863667D01*
X29668111Y8863667D01*
X29668111Y10387667D01*
X30712333Y10387667D01*
X30712333Y6747000D01*
X32095222Y6747000D01*
X32095222Y10387667D01*
X33478111Y10387667D01*
X33478111Y6747000D01*
X32095222Y6747000D01*
X30712333Y6747000D01*
X29668111Y6747000D01*
X29668111Y8242778D01*
X28257000Y8242778D01*
X28257000Y7847667D01*
X26930556Y7847667D01*
X26930556Y7509000D01*
X28257000Y7509000D01*
X28257000Y7113889D01*
X26930556Y7113889D01*
X26930556Y6775222D01*
X28257000Y6775222D01*
X28257000Y6380111D01*
X26930556Y6380111D01*
X26930556Y6041444D01*
X28257000Y6041444D01*
X28257000Y5646333D01*
X26930556Y5646333D01*
X26930556Y5279444D01*
X28257000Y5279444D01*
X28257000Y4912556D01*
X29668111Y4912556D01*
X29668111Y6409607D01*
X30183167Y6401914D01*
X30698222Y6394222D01*
X30713270Y4912556D01*
X30909889Y4912556D01*
X30909889Y4037667D01*
X31248556Y4037667D01*
X31248556Y4912556D01*
X31587222Y4912556D01*
X31587222Y4037667D01*
X31248556Y4037667D01*
X30909889Y4037667D01*
X26930556Y4037667D01*
X26930556Y3671159D01*
X30895778Y3656667D01*
X30903729Y3325056D01*
X30911680Y2993444D01*
X31248556Y2993444D01*
X31248556Y3673595D01*
%TD*%
D13*
%TO.C,X4*%
X2210000Y17750000D03*
D14*
X4750000Y17750000D03*
%TD*%
D13*
%TO.C,X3*%
X2210000Y2250000D03*
D14*
X4750000Y2250000D03*
%TD*%
D15*
%TO.C,X2*%
X46170000Y3650000D03*
D14*
X43630000Y3650000D03*
D13*
X46170000Y6190000D03*
X43630000Y6190000D03*
X46170000Y8730000D03*
X43630000Y8730000D03*
X46170000Y11270000D03*
X43630000Y11270000D03*
X46170000Y13810000D03*
X43630000Y13810000D03*
X46170000Y16350000D03*
X43630000Y16350000D03*
%TD*%
D16*
%TO.C,X1*%
X2000000Y10000000D03*
X8000000Y10000000D03*
D17*
X8800000Y12450000D03*
X3800000Y7550000D03*
X2000000Y12450000D03*
%TD*%
M02*
