%TF.GenerationSoftware,KiCad,Pcbnew,5.1.9*%
%TF.CreationDate,2021-02-16T17:41:26+03:00*%
%TF.ProjectId,dual-mcp3201-pmod,6475616c-2d6d-4637-9033-3230312d706d,rev?*%
%TF.SameCoordinates,PX4c4b400PY8583b00*%
%TF.FileFunction,Legend,Top*%
%TF.FilePolarity,Positive*%
%FSLAX46Y46*%
G04 Gerber Fmt 4.6, Leading zero omitted, Abs format (unit mm)*
G04 Created by KiCad (PCBNEW 5.1.9) date 2021-02-16 17:41:26*
%MOMM*%
%LPD*%
G01*
G04 APERTURE LIST*
%ADD10C,0.150000*%
%ADD11C,0.120000*%
%TA.AperFunction,Profile*%
%ADD12C,0.050000*%
%TD*%
G04 APERTURE END LIST*
D10*
X41502380Y5092858D02*
X40502380Y5092858D01*
X40502380Y5473810D01*
X40550000Y5569048D01*
X40597619Y5616667D01*
X40692857Y5664286D01*
X40835714Y5664286D01*
X40930952Y5616667D01*
X40978571Y5569048D01*
X41026190Y5473810D01*
X41026190Y5092858D01*
X41502380Y6092858D02*
X40502380Y6092858D01*
X41216666Y6426191D01*
X40502380Y6759524D01*
X41502380Y6759524D01*
X40502380Y7426191D02*
X40502380Y7616667D01*
X40550000Y7711905D01*
X40645238Y7807143D01*
X40835714Y7854762D01*
X41169047Y7854762D01*
X41359523Y7807143D01*
X41454761Y7711905D01*
X41502380Y7616667D01*
X41502380Y7426191D01*
X41454761Y7330953D01*
X41359523Y7235715D01*
X41169047Y7188096D01*
X40835714Y7188096D01*
X40645238Y7235715D01*
X40550000Y7330953D01*
X40502380Y7426191D01*
X41502380Y8283334D02*
X40502380Y8283334D01*
X40502380Y8521429D01*
X40550000Y8664286D01*
X40645238Y8759524D01*
X40740476Y8807143D01*
X40930952Y8854762D01*
X41073809Y8854762D01*
X41264285Y8807143D01*
X41359523Y8759524D01*
X41454761Y8664286D01*
X41502380Y8521429D01*
X41502380Y8283334D01*
D11*
X10300000Y17950000D02*
X12900000Y17200000D01*
X10750000Y2000000D02*
X13000000Y2850000D01*
D10*
X2497619Y14547620D02*
X2021428Y14547620D01*
X2021428Y15547620D01*
X2830952Y15071429D02*
X3164285Y15071429D01*
X3307142Y14547620D02*
X2830952Y14547620D01*
X2830952Y15547620D01*
X3307142Y15547620D01*
X4069047Y15071429D02*
X3735714Y15071429D01*
X3735714Y14547620D02*
X3735714Y15547620D01*
X4211904Y15547620D01*
X4450000Y15547620D02*
X5021428Y15547620D01*
X4735714Y14547620D02*
X4735714Y15547620D01*
X2066666Y4397620D02*
X1733333Y4873810D01*
X1495238Y4397620D02*
X1495238Y5397620D01*
X1876190Y5397620D01*
X1971428Y5350000D01*
X2019047Y5302381D01*
X2066666Y5207143D01*
X2066666Y5064286D01*
X2019047Y4969048D01*
X1971428Y4921429D01*
X1876190Y4873810D01*
X1495238Y4873810D01*
X2495238Y4397620D02*
X2495238Y5397620D01*
X3495238Y5350000D02*
X3400000Y5397620D01*
X3257142Y5397620D01*
X3114285Y5350000D01*
X3019047Y5254762D01*
X2971428Y5159524D01*
X2923809Y4969048D01*
X2923809Y4826191D01*
X2971428Y4635715D01*
X3019047Y4540477D01*
X3114285Y4445239D01*
X3257142Y4397620D01*
X3352380Y4397620D01*
X3495238Y4445239D01*
X3542857Y4492858D01*
X3542857Y4826191D01*
X3352380Y4826191D01*
X3971428Y4397620D02*
X3971428Y5397620D01*
X3971428Y4921429D02*
X4542857Y4921429D01*
X4542857Y4397620D02*
X4542857Y5397620D01*
X4876190Y5397620D02*
X5447619Y5397620D01*
X5161904Y4397620D02*
X5161904Y5397620D01*
D12*
X50000000Y20000000D02*
X0Y20000000D01*
X50000000Y0D02*
X50000000Y20000000D01*
X0Y0D02*
X50000000Y0D01*
X0Y20000000D02*
X0Y0D01*
D11*
%TO.C,X4*%
X880000Y19080000D02*
X880000Y16420000D01*
X3480000Y19080000D02*
X880000Y19080000D01*
X3480000Y16420000D02*
X880000Y16420000D01*
X3480000Y19080000D02*
X3480000Y16420000D01*
X4750000Y19080000D02*
X6080000Y19080000D01*
X6080000Y19080000D02*
X6080000Y17750000D01*
%TO.C,X3*%
X880000Y3580000D02*
X880000Y920000D01*
X3480000Y3580000D02*
X880000Y3580000D01*
X3480000Y920000D02*
X880000Y920000D01*
X3480000Y3580000D02*
X3480000Y920000D01*
X4750000Y3580000D02*
X6080000Y3580000D01*
X6080000Y3580000D02*
X6080000Y2250000D01*
%TO.C,C12*%
X25740000Y16653733D02*
X25740000Y16996267D01*
X26760000Y16653733D02*
X26760000Y16996267D01*
%TO.C,C11*%
X23850000Y13185000D02*
X19765000Y13185000D01*
X19765000Y13185000D02*
X19765000Y11315000D01*
X19765000Y11315000D02*
X23850000Y11315000D01*
%TO.C,C10*%
X14921267Y13490000D02*
X14578733Y13490000D01*
X14921267Y14510000D02*
X14578733Y14510000D01*
%TO.C,C9*%
X8400000Y15065000D02*
X12485000Y15065000D01*
X12485000Y15065000D02*
X12485000Y16935000D01*
X12485000Y16935000D02*
X8400000Y16935000D01*
%TO.C,C8*%
X18260000Y17671267D02*
X18260000Y17328733D01*
X17240000Y17671267D02*
X17240000Y17328733D01*
%TO.C,C7*%
X41435000Y12712500D02*
X41435000Y16797500D01*
X41435000Y16797500D02*
X39565000Y16797500D01*
X39565000Y16797500D02*
X39565000Y12712500D01*
%TO.C,C14*%
X31185000Y8900000D02*
X31185000Y12985000D01*
X31185000Y12985000D02*
X29315000Y12985000D01*
X29315000Y12985000D02*
X29315000Y8900000D01*
%TO.C,C6*%
X38046267Y6740000D02*
X37703733Y6740000D01*
X38046267Y7760000D02*
X37703733Y7760000D01*
%TO.C,X2*%
X47610000Y2320000D02*
X47610000Y17680000D01*
X47610000Y17680000D02*
X50270000Y17680000D01*
X50270000Y17680000D02*
X50270000Y2320000D01*
X50270000Y2320000D02*
X47610000Y2320000D01*
X50270000Y3270000D02*
X56270000Y3270000D01*
X56270000Y3270000D02*
X56270000Y4030000D01*
X56270000Y4030000D02*
X50270000Y4030000D01*
X50270000Y3330000D02*
X56270000Y3330000D01*
X50270000Y3450000D02*
X56270000Y3450000D01*
X50270000Y3570000D02*
X56270000Y3570000D01*
X50270000Y3690000D02*
X56270000Y3690000D01*
X50270000Y3810000D02*
X56270000Y3810000D01*
X50270000Y3930000D02*
X56270000Y3930000D01*
X47212929Y3270000D02*
X47610000Y3270000D01*
X47212929Y4030000D02*
X47610000Y4030000D01*
X44740000Y3270000D02*
X45127071Y3270000D01*
X44740000Y4030000D02*
X45127071Y4030000D01*
X47610000Y4920000D02*
X50270000Y4920000D01*
X50270000Y5810000D02*
X56270000Y5810000D01*
X56270000Y5810000D02*
X56270000Y6570000D01*
X56270000Y6570000D02*
X50270000Y6570000D01*
X47212929Y5810000D02*
X47610000Y5810000D01*
X47212929Y6570000D02*
X47610000Y6570000D01*
X44672929Y5810000D02*
X45127071Y5810000D01*
X44672929Y6570000D02*
X45127071Y6570000D01*
X47610000Y7460000D02*
X50270000Y7460000D01*
X50270000Y8350000D02*
X56270000Y8350000D01*
X56270000Y8350000D02*
X56270000Y9110000D01*
X56270000Y9110000D02*
X50270000Y9110000D01*
X47212929Y8350000D02*
X47610000Y8350000D01*
X47212929Y9110000D02*
X47610000Y9110000D01*
X44672929Y8350000D02*
X45127071Y8350000D01*
X44672929Y9110000D02*
X45127071Y9110000D01*
X47610000Y10000000D02*
X50270000Y10000000D01*
X50270000Y10890000D02*
X56270000Y10890000D01*
X56270000Y10890000D02*
X56270000Y11650000D01*
X56270000Y11650000D02*
X50270000Y11650000D01*
X47212929Y10890000D02*
X47610000Y10890000D01*
X47212929Y11650000D02*
X47610000Y11650000D01*
X44672929Y10890000D02*
X45127071Y10890000D01*
X44672929Y11650000D02*
X45127071Y11650000D01*
X47610000Y12540000D02*
X50270000Y12540000D01*
X50270000Y13430000D02*
X56270000Y13430000D01*
X56270000Y13430000D02*
X56270000Y14190000D01*
X56270000Y14190000D02*
X50270000Y14190000D01*
X47212929Y13430000D02*
X47610000Y13430000D01*
X47212929Y14190000D02*
X47610000Y14190000D01*
X44672929Y13430000D02*
X45127071Y13430000D01*
X44672929Y14190000D02*
X45127071Y14190000D01*
X47610000Y15080000D02*
X50270000Y15080000D01*
X50270000Y15970000D02*
X56270000Y15970000D01*
X56270000Y15970000D02*
X56270000Y16730000D01*
X56270000Y16730000D02*
X50270000Y16730000D01*
X47212929Y15970000D02*
X47610000Y15970000D01*
X47212929Y16730000D02*
X47610000Y16730000D01*
X44672929Y15970000D02*
X45127071Y15970000D01*
X44672929Y16730000D02*
X45127071Y16730000D01*
X42360000Y3650000D02*
X42360000Y2380000D01*
X42360000Y2380000D02*
X43630000Y2380000D01*
%TO.C,X1*%
X11000000Y7000000D02*
X11000000Y13000000D01*
X11000000Y13000000D02*
X10000000Y13000000D01*
X11000000Y7000000D02*
X5000000Y7000000D01*
X2600000Y7000000D02*
X0Y7000000D01*
X0Y7000000D02*
X0Y13000000D01*
X0Y13000000D02*
X800000Y13000000D01*
X0Y7500000D02*
X-3000000Y7500000D01*
X-3000000Y7500000D02*
X-3000000Y12500000D01*
X-3000000Y12500000D02*
X0Y12500000D01*
%TO.C,R10*%
X18260000Y13171267D02*
X18260000Y12828733D01*
X17240000Y13171267D02*
X17240000Y12828733D01*
%TO.C,R9*%
X14578733Y19010000D02*
X14921267Y19010000D01*
X14578733Y17990000D02*
X14921267Y17990000D01*
%TO.C,R8*%
X14578733Y12510000D02*
X14921267Y12510000D01*
X14578733Y11490000D02*
X14921267Y11490000D01*
%TO.C,R7*%
X26760000Y12671267D02*
X26760000Y12328733D01*
X25740000Y12671267D02*
X25740000Y12328733D01*
%TO.C,R6*%
X14578733Y17010000D02*
X14921267Y17010000D01*
X14578733Y15990000D02*
X14921267Y15990000D01*
%TO.C,R5*%
X18260000Y2921267D02*
X18260000Y2578733D01*
X17240000Y2921267D02*
X17240000Y2578733D01*
%TO.C,R4*%
X14578733Y8760000D02*
X14921267Y8760000D01*
X14578733Y7740000D02*
X14921267Y7740000D01*
%TO.C,R3*%
X14578733Y2260000D02*
X14921267Y2260000D01*
X14578733Y1240000D02*
X14921267Y1240000D01*
%TO.C,R2*%
X25740000Y3328733D02*
X25740000Y3671267D01*
X26760000Y3328733D02*
X26760000Y3671267D01*
%TO.C,R1*%
X14578733Y6760000D02*
X14921267Y6760000D01*
X14578733Y5740000D02*
X14921267Y5740000D01*
%TO.C,D5*%
X32420000Y9240000D02*
X33350000Y9240000D01*
X35580000Y9240000D02*
X34650000Y9240000D01*
X35580000Y9240000D02*
X35580000Y12400000D01*
X32420000Y9240000D02*
X32420000Y10700000D01*
%TO.C,D4*%
X33250000Y13410000D02*
X35130000Y13410000D01*
X33250000Y13410000D02*
X31370000Y13410000D01*
X33250000Y18590000D02*
X35130000Y18590000D01*
X33250000Y18590000D02*
X29725000Y18590000D01*
%TO.C,D3*%
X21350000Y15140000D02*
X23150000Y15140000D01*
X23150000Y18360000D02*
X20700000Y18360000D01*
%TO.C,D2*%
X33250000Y910000D02*
X35130000Y910000D01*
X33250000Y910000D02*
X31370000Y910000D01*
X33250000Y6090000D02*
X35130000Y6090000D01*
X33250000Y6090000D02*
X29725000Y6090000D01*
%TO.C,D1*%
X21350000Y4640000D02*
X23150000Y4640000D01*
X23150000Y7860000D02*
X20700000Y7860000D01*
%TO.C,C13*%
X39921267Y17740000D02*
X39578733Y17740000D01*
X39921267Y18760000D02*
X39578733Y18760000D01*
%TO.C,C5*%
X26760000Y7421267D02*
X26760000Y7078733D01*
X25740000Y7421267D02*
X25740000Y7078733D01*
%TO.C,C4*%
X23850000Y2935000D02*
X19765000Y2935000D01*
X19765000Y2935000D02*
X19765000Y1065000D01*
X19765000Y1065000D02*
X23850000Y1065000D01*
%TO.C,C3*%
X14921267Y3240000D02*
X14578733Y3240000D01*
X14921267Y4260000D02*
X14578733Y4260000D01*
%TO.C,C2*%
X8400000Y3065000D02*
X12485000Y3065000D01*
X12485000Y3065000D02*
X12485000Y4935000D01*
X12485000Y4935000D02*
X8400000Y4935000D01*
%TO.C,C1*%
X18260000Y7421267D02*
X18260000Y7078733D01*
X17240000Y7421267D02*
X17240000Y7078733D01*
%TD*%
%TO.C,C12*%
D10*
X28207142Y16207143D02*
X28254761Y16159524D01*
X28302380Y16016667D01*
X28302380Y15921429D01*
X28254761Y15778572D01*
X28159523Y15683334D01*
X28064285Y15635715D01*
X27873809Y15588096D01*
X27730952Y15588096D01*
X27540476Y15635715D01*
X27445238Y15683334D01*
X27350000Y15778572D01*
X27302380Y15921429D01*
X27302380Y16016667D01*
X27350000Y16159524D01*
X27397619Y16207143D01*
X28302380Y17159524D02*
X28302380Y16588096D01*
X28302380Y16873810D02*
X27302380Y16873810D01*
X27445238Y16778572D01*
X27540476Y16683334D01*
X27588095Y16588096D01*
X27397619Y17540477D02*
X27350000Y17588096D01*
X27302380Y17683334D01*
X27302380Y17921429D01*
X27350000Y18016667D01*
X27397619Y18064286D01*
X27492857Y18111905D01*
X27588095Y18111905D01*
X27730952Y18064286D01*
X28302380Y17492858D01*
X28302380Y18111905D01*
%TO.C,C11*%
X23107142Y10142858D02*
X23059523Y10095239D01*
X22916666Y10047620D01*
X22821428Y10047620D01*
X22678571Y10095239D01*
X22583333Y10190477D01*
X22535714Y10285715D01*
X22488095Y10476191D01*
X22488095Y10619048D01*
X22535714Y10809524D01*
X22583333Y10904762D01*
X22678571Y11000000D01*
X22821428Y11047620D01*
X22916666Y11047620D01*
X23059523Y11000000D01*
X23107142Y10952381D01*
X24059523Y10047620D02*
X23488095Y10047620D01*
X23773809Y10047620D02*
X23773809Y11047620D01*
X23678571Y10904762D01*
X23583333Y10809524D01*
X23488095Y10761905D01*
X25011904Y10047620D02*
X24440476Y10047620D01*
X24726190Y10047620D02*
X24726190Y11047620D01*
X24630952Y10904762D01*
X24535714Y10809524D01*
X24440476Y10761905D01*
%TO.C,C10*%
X10857142Y13642858D02*
X10809523Y13595239D01*
X10666666Y13547620D01*
X10571428Y13547620D01*
X10428571Y13595239D01*
X10333333Y13690477D01*
X10285714Y13785715D01*
X10238095Y13976191D01*
X10238095Y14119048D01*
X10285714Y14309524D01*
X10333333Y14404762D01*
X10428571Y14500000D01*
X10571428Y14547620D01*
X10666666Y14547620D01*
X10809523Y14500000D01*
X10857142Y14452381D01*
X11809523Y13547620D02*
X11238095Y13547620D01*
X11523809Y13547620D02*
X11523809Y14547620D01*
X11428571Y14404762D01*
X11333333Y14309524D01*
X11238095Y14261905D01*
X12428571Y14547620D02*
X12523809Y14547620D01*
X12619047Y14500000D01*
X12666666Y14452381D01*
X12714285Y14357143D01*
X12761904Y14166667D01*
X12761904Y13928572D01*
X12714285Y13738096D01*
X12666666Y13642858D01*
X12619047Y13595239D01*
X12523809Y13547620D01*
X12428571Y13547620D01*
X12333333Y13595239D01*
X12285714Y13642858D01*
X12238095Y13738096D01*
X12190476Y13928572D01*
X12190476Y14166667D01*
X12238095Y14357143D01*
X12285714Y14452381D01*
X12333333Y14500000D01*
X12428571Y14547620D01*
%TO.C,C9*%
X6833333Y13892858D02*
X6785714Y13845239D01*
X6642857Y13797620D01*
X6547619Y13797620D01*
X6404761Y13845239D01*
X6309523Y13940477D01*
X6261904Y14035715D01*
X6214285Y14226191D01*
X6214285Y14369048D01*
X6261904Y14559524D01*
X6309523Y14654762D01*
X6404761Y14750000D01*
X6547619Y14797620D01*
X6642857Y14797620D01*
X6785714Y14750000D01*
X6833333Y14702381D01*
X7309523Y13797620D02*
X7500000Y13797620D01*
X7595238Y13845239D01*
X7642857Y13892858D01*
X7738095Y14035715D01*
X7785714Y14226191D01*
X7785714Y14607143D01*
X7738095Y14702381D01*
X7690476Y14750000D01*
X7595238Y14797620D01*
X7404761Y14797620D01*
X7309523Y14750000D01*
X7261904Y14702381D01*
X7214285Y14607143D01*
X7214285Y14369048D01*
X7261904Y14273810D01*
X7309523Y14226191D01*
X7404761Y14178572D01*
X7595238Y14178572D01*
X7690476Y14226191D01*
X7738095Y14273810D01*
X7785714Y14369048D01*
%TO.C,C8*%
X19537142Y16333334D02*
X19584761Y16285715D01*
X19632380Y16142858D01*
X19632380Y16047620D01*
X19584761Y15904762D01*
X19489523Y15809524D01*
X19394285Y15761905D01*
X19203809Y15714286D01*
X19060952Y15714286D01*
X18870476Y15761905D01*
X18775238Y15809524D01*
X18680000Y15904762D01*
X18632380Y16047620D01*
X18632380Y16142858D01*
X18680000Y16285715D01*
X18727619Y16333334D01*
X19060952Y16904762D02*
X19013333Y16809524D01*
X18965714Y16761905D01*
X18870476Y16714286D01*
X18822857Y16714286D01*
X18727619Y16761905D01*
X18680000Y16809524D01*
X18632380Y16904762D01*
X18632380Y17095239D01*
X18680000Y17190477D01*
X18727619Y17238096D01*
X18822857Y17285715D01*
X18870476Y17285715D01*
X18965714Y17238096D01*
X19013333Y17190477D01*
X19060952Y17095239D01*
X19060952Y16904762D01*
X19108571Y16809524D01*
X19156190Y16761905D01*
X19251428Y16714286D01*
X19441904Y16714286D01*
X19537142Y16761905D01*
X19584761Y16809524D01*
X19632380Y16904762D01*
X19632380Y17095239D01*
X19584761Y17190477D01*
X19537142Y17238096D01*
X19441904Y17285715D01*
X19251428Y17285715D01*
X19156190Y17238096D01*
X19108571Y17190477D01*
X19060952Y17095239D01*
%TO.C,C7*%
X39107142Y11833334D02*
X39154761Y11785715D01*
X39202380Y11642858D01*
X39202380Y11547620D01*
X39154761Y11404762D01*
X39059523Y11309524D01*
X38964285Y11261905D01*
X38773809Y11214286D01*
X38630952Y11214286D01*
X38440476Y11261905D01*
X38345238Y11309524D01*
X38250000Y11404762D01*
X38202380Y11547620D01*
X38202380Y11642858D01*
X38250000Y11785715D01*
X38297619Y11833334D01*
X38202380Y12166667D02*
X38202380Y12833334D01*
X39202380Y12404762D01*
%TO.C,C14*%
X29857142Y6892858D02*
X29809523Y6845239D01*
X29666666Y6797620D01*
X29571428Y6797620D01*
X29428571Y6845239D01*
X29333333Y6940477D01*
X29285714Y7035715D01*
X29238095Y7226191D01*
X29238095Y7369048D01*
X29285714Y7559524D01*
X29333333Y7654762D01*
X29428571Y7750000D01*
X29571428Y7797620D01*
X29666666Y7797620D01*
X29809523Y7750000D01*
X29857142Y7702381D01*
X30809523Y6797620D02*
X30238095Y6797620D01*
X30523809Y6797620D02*
X30523809Y7797620D01*
X30428571Y7654762D01*
X30333333Y7559524D01*
X30238095Y7511905D01*
X31666666Y7464286D02*
X31666666Y6797620D01*
X31428571Y7845239D02*
X31190476Y7130953D01*
X31809523Y7130953D01*
%TO.C,C6*%
X38533333Y5342858D02*
X38485714Y5295239D01*
X38342857Y5247620D01*
X38247619Y5247620D01*
X38104761Y5295239D01*
X38009523Y5390477D01*
X37961904Y5485715D01*
X37914285Y5676191D01*
X37914285Y5819048D01*
X37961904Y6009524D01*
X38009523Y6104762D01*
X38104761Y6200000D01*
X38247619Y6247620D01*
X38342857Y6247620D01*
X38485714Y6200000D01*
X38533333Y6152381D01*
X39390476Y6247620D02*
X39200000Y6247620D01*
X39104761Y6200000D01*
X39057142Y6152381D01*
X38961904Y6009524D01*
X38914285Y5819048D01*
X38914285Y5438096D01*
X38961904Y5342858D01*
X39009523Y5295239D01*
X39104761Y5247620D01*
X39295238Y5247620D01*
X39390476Y5295239D01*
X39438095Y5342858D01*
X39485714Y5438096D01*
X39485714Y5676191D01*
X39438095Y5771429D01*
X39390476Y5819048D01*
X39295238Y5866667D01*
X39104761Y5866667D01*
X39009523Y5819048D01*
X38961904Y5771429D01*
X38914285Y5676191D01*
%TO.C,X2*%
X40502380Y1990477D02*
X41502380Y2657143D01*
X40502380Y2657143D02*
X41502380Y1990477D01*
X40597619Y2990477D02*
X40550000Y3038096D01*
X40502380Y3133334D01*
X40502380Y3371429D01*
X40550000Y3466667D01*
X40597619Y3514286D01*
X40692857Y3561905D01*
X40788095Y3561905D01*
X40930952Y3514286D01*
X41502380Y2942858D01*
X41502380Y3561905D01*
%TO.C,R10*%
X17357142Y10047620D02*
X17023809Y10523810D01*
X16785714Y10047620D02*
X16785714Y11047620D01*
X17166666Y11047620D01*
X17261904Y11000000D01*
X17309523Y10952381D01*
X17357142Y10857143D01*
X17357142Y10714286D01*
X17309523Y10619048D01*
X17261904Y10571429D01*
X17166666Y10523810D01*
X16785714Y10523810D01*
X18309523Y10047620D02*
X17738095Y10047620D01*
X18023809Y10047620D02*
X18023809Y11047620D01*
X17928571Y10904762D01*
X17833333Y10809524D01*
X17738095Y10761905D01*
X18928571Y11047620D02*
X19023809Y11047620D01*
X19119047Y11000000D01*
X19166666Y10952381D01*
X19214285Y10857143D01*
X19261904Y10666667D01*
X19261904Y10428572D01*
X19214285Y10238096D01*
X19166666Y10142858D01*
X19119047Y10095239D01*
X19023809Y10047620D01*
X18928571Y10047620D01*
X18833333Y10095239D01*
X18785714Y10142858D01*
X18738095Y10238096D01*
X18690476Y10428572D01*
X18690476Y10666667D01*
X18738095Y10857143D01*
X18785714Y10952381D01*
X18833333Y11000000D01*
X18928571Y11047620D01*
%TO.C,R9*%
X11933333Y18247620D02*
X11600000Y18723810D01*
X11361904Y18247620D02*
X11361904Y19247620D01*
X11742857Y19247620D01*
X11838095Y19200000D01*
X11885714Y19152381D01*
X11933333Y19057143D01*
X11933333Y18914286D01*
X11885714Y18819048D01*
X11838095Y18771429D01*
X11742857Y18723810D01*
X11361904Y18723810D01*
X12409523Y18247620D02*
X12600000Y18247620D01*
X12695238Y18295239D01*
X12742857Y18342858D01*
X12838095Y18485715D01*
X12885714Y18676191D01*
X12885714Y19057143D01*
X12838095Y19152381D01*
X12790476Y19200000D01*
X12695238Y19247620D01*
X12504761Y19247620D01*
X12409523Y19200000D01*
X12361904Y19152381D01*
X12314285Y19057143D01*
X12314285Y18819048D01*
X12361904Y18723810D01*
X12409523Y18676191D01*
X12504761Y18628572D01*
X12695238Y18628572D01*
X12790476Y18676191D01*
X12838095Y18723810D01*
X12885714Y18819048D01*
%TO.C,R8*%
X14633333Y9997620D02*
X14300000Y10473810D01*
X14061904Y9997620D02*
X14061904Y10997620D01*
X14442857Y10997620D01*
X14538095Y10950000D01*
X14585714Y10902381D01*
X14633333Y10807143D01*
X14633333Y10664286D01*
X14585714Y10569048D01*
X14538095Y10521429D01*
X14442857Y10473810D01*
X14061904Y10473810D01*
X15204761Y10569048D02*
X15109523Y10616667D01*
X15061904Y10664286D01*
X15014285Y10759524D01*
X15014285Y10807143D01*
X15061904Y10902381D01*
X15109523Y10950000D01*
X15204761Y10997620D01*
X15395238Y10997620D01*
X15490476Y10950000D01*
X15538095Y10902381D01*
X15585714Y10807143D01*
X15585714Y10759524D01*
X15538095Y10664286D01*
X15490476Y10616667D01*
X15395238Y10569048D01*
X15204761Y10569048D01*
X15109523Y10521429D01*
X15061904Y10473810D01*
X15014285Y10378572D01*
X15014285Y10188096D01*
X15061904Y10092858D01*
X15109523Y10045239D01*
X15204761Y9997620D01*
X15395238Y9997620D01*
X15490476Y10045239D01*
X15538095Y10092858D01*
X15585714Y10188096D01*
X15585714Y10378572D01*
X15538095Y10473810D01*
X15490476Y10521429D01*
X15395238Y10569048D01*
%TO.C,R7*%
X28252380Y12983334D02*
X27776190Y12650000D01*
X28252380Y12411905D02*
X27252380Y12411905D01*
X27252380Y12792858D01*
X27300000Y12888096D01*
X27347619Y12935715D01*
X27442857Y12983334D01*
X27585714Y12983334D01*
X27680952Y12935715D01*
X27728571Y12888096D01*
X27776190Y12792858D01*
X27776190Y12411905D01*
X27252380Y13316667D02*
X27252380Y13983334D01*
X28252380Y13554762D01*
%TO.C,R6*%
X9883333Y18247620D02*
X9550000Y18723810D01*
X9311904Y18247620D02*
X9311904Y19247620D01*
X9692857Y19247620D01*
X9788095Y19200000D01*
X9835714Y19152381D01*
X9883333Y19057143D01*
X9883333Y18914286D01*
X9835714Y18819048D01*
X9788095Y18771429D01*
X9692857Y18723810D01*
X9311904Y18723810D01*
X10740476Y19247620D02*
X10550000Y19247620D01*
X10454761Y19200000D01*
X10407142Y19152381D01*
X10311904Y19009524D01*
X10264285Y18819048D01*
X10264285Y18438096D01*
X10311904Y18342858D01*
X10359523Y18295239D01*
X10454761Y18247620D01*
X10645238Y18247620D01*
X10740476Y18295239D01*
X10788095Y18342858D01*
X10835714Y18438096D01*
X10835714Y18676191D01*
X10788095Y18771429D01*
X10740476Y18819048D01*
X10645238Y18866667D01*
X10454761Y18866667D01*
X10359523Y18819048D01*
X10311904Y18771429D01*
X10264285Y18676191D01*
%TO.C,R5*%
X19652380Y4033334D02*
X19176190Y3700000D01*
X19652380Y3461905D02*
X18652380Y3461905D01*
X18652380Y3842858D01*
X18700000Y3938096D01*
X18747619Y3985715D01*
X18842857Y4033334D01*
X18985714Y4033334D01*
X19080952Y3985715D01*
X19128571Y3938096D01*
X19176190Y3842858D01*
X19176190Y3461905D01*
X18652380Y4938096D02*
X18652380Y4461905D01*
X19128571Y4414286D01*
X19080952Y4461905D01*
X19033333Y4557143D01*
X19033333Y4795239D01*
X19080952Y4890477D01*
X19128571Y4938096D01*
X19223809Y4985715D01*
X19461904Y4985715D01*
X19557142Y4938096D01*
X19604761Y4890477D01*
X19652380Y4795239D01*
X19652380Y4557143D01*
X19604761Y4461905D01*
X19557142Y4414286D01*
%TO.C,R4*%
X11933333Y7747620D02*
X11600000Y8223810D01*
X11361904Y7747620D02*
X11361904Y8747620D01*
X11742857Y8747620D01*
X11838095Y8700000D01*
X11885714Y8652381D01*
X11933333Y8557143D01*
X11933333Y8414286D01*
X11885714Y8319048D01*
X11838095Y8271429D01*
X11742857Y8223810D01*
X11361904Y8223810D01*
X12790476Y8414286D02*
X12790476Y7747620D01*
X12552380Y8795239D02*
X12314285Y8080953D01*
X12933333Y8080953D01*
%TO.C,R3*%
X11783333Y547620D02*
X11450000Y1023810D01*
X11211904Y547620D02*
X11211904Y1547620D01*
X11592857Y1547620D01*
X11688095Y1500000D01*
X11735714Y1452381D01*
X11783333Y1357143D01*
X11783333Y1214286D01*
X11735714Y1119048D01*
X11688095Y1071429D01*
X11592857Y1023810D01*
X11211904Y1023810D01*
X12116666Y1547620D02*
X12735714Y1547620D01*
X12402380Y1166667D01*
X12545238Y1166667D01*
X12640476Y1119048D01*
X12688095Y1071429D01*
X12735714Y976191D01*
X12735714Y738096D01*
X12688095Y642858D01*
X12640476Y595239D01*
X12545238Y547620D01*
X12259523Y547620D01*
X12164285Y595239D01*
X12116666Y642858D01*
%TO.C,R2*%
X28302380Y3333334D02*
X27826190Y3000000D01*
X28302380Y2761905D02*
X27302380Y2761905D01*
X27302380Y3142858D01*
X27350000Y3238096D01*
X27397619Y3285715D01*
X27492857Y3333334D01*
X27635714Y3333334D01*
X27730952Y3285715D01*
X27778571Y3238096D01*
X27826190Y3142858D01*
X27826190Y2761905D01*
X27397619Y3714286D02*
X27350000Y3761905D01*
X27302380Y3857143D01*
X27302380Y4095239D01*
X27350000Y4190477D01*
X27397619Y4238096D01*
X27492857Y4285715D01*
X27588095Y4285715D01*
X27730952Y4238096D01*
X28302380Y3666667D01*
X28302380Y4285715D01*
%TO.C,R1*%
X11933333Y5747620D02*
X11600000Y6223810D01*
X11361904Y5747620D02*
X11361904Y6747620D01*
X11742857Y6747620D01*
X11838095Y6700000D01*
X11885714Y6652381D01*
X11933333Y6557143D01*
X11933333Y6414286D01*
X11885714Y6319048D01*
X11838095Y6271429D01*
X11742857Y6223810D01*
X11361904Y6223810D01*
X12885714Y5747620D02*
X12314285Y5747620D01*
X12600000Y5747620D02*
X12600000Y6747620D01*
X12504761Y6604762D01*
X12409523Y6509524D01*
X12314285Y6461905D01*
%TO.C,D5*%
X37102380Y9211905D02*
X36102380Y9211905D01*
X36102380Y9450000D01*
X36150000Y9592858D01*
X36245238Y9688096D01*
X36340476Y9735715D01*
X36530952Y9783334D01*
X36673809Y9783334D01*
X36864285Y9735715D01*
X36959523Y9688096D01*
X37054761Y9592858D01*
X37102380Y9450000D01*
X37102380Y9211905D01*
X36102380Y10688096D02*
X36102380Y10211905D01*
X36578571Y10164286D01*
X36530952Y10211905D01*
X36483333Y10307143D01*
X36483333Y10545239D01*
X36530952Y10640477D01*
X36578571Y10688096D01*
X36673809Y10735715D01*
X36911904Y10735715D01*
X37007142Y10688096D01*
X37054761Y10640477D01*
X37102380Y10545239D01*
X37102380Y10307143D01*
X37054761Y10211905D01*
X37007142Y10164286D01*
%TO.C,D4*%
X38552380Y14761905D02*
X37552380Y14761905D01*
X37552380Y15000000D01*
X37600000Y15142858D01*
X37695238Y15238096D01*
X37790476Y15285715D01*
X37980952Y15333334D01*
X38123809Y15333334D01*
X38314285Y15285715D01*
X38409523Y15238096D01*
X38504761Y15142858D01*
X38552380Y15000000D01*
X38552380Y14761905D01*
X37885714Y16190477D02*
X38552380Y16190477D01*
X37504761Y15952381D02*
X38219047Y15714286D01*
X38219047Y16333334D01*
%TO.C,D3*%
X21161904Y13597620D02*
X21161904Y14597620D01*
X21400000Y14597620D01*
X21542857Y14550000D01*
X21638095Y14454762D01*
X21685714Y14359524D01*
X21733333Y14169048D01*
X21733333Y14026191D01*
X21685714Y13835715D01*
X21638095Y13740477D01*
X21542857Y13645239D01*
X21400000Y13597620D01*
X21161904Y13597620D01*
X22066666Y14597620D02*
X22685714Y14597620D01*
X22352380Y14216667D01*
X22495238Y14216667D01*
X22590476Y14169048D01*
X22638095Y14121429D01*
X22685714Y14026191D01*
X22685714Y13788096D01*
X22638095Y13692858D01*
X22590476Y13645239D01*
X22495238Y13597620D01*
X22209523Y13597620D01*
X22114285Y13645239D01*
X22066666Y13692858D01*
%TO.C,D2*%
X37411904Y1897620D02*
X37411904Y2897620D01*
X37650000Y2897620D01*
X37792857Y2850000D01*
X37888095Y2754762D01*
X37935714Y2659524D01*
X37983333Y2469048D01*
X37983333Y2326191D01*
X37935714Y2135715D01*
X37888095Y2040477D01*
X37792857Y1945239D01*
X37650000Y1897620D01*
X37411904Y1897620D01*
X38364285Y2802381D02*
X38411904Y2850000D01*
X38507142Y2897620D01*
X38745238Y2897620D01*
X38840476Y2850000D01*
X38888095Y2802381D01*
X38935714Y2707143D01*
X38935714Y2611905D01*
X38888095Y2469048D01*
X38316666Y1897620D01*
X38935714Y1897620D01*
%TO.C,D1*%
X21511904Y8297620D02*
X21511904Y9297620D01*
X21750000Y9297620D01*
X21892857Y9250000D01*
X21988095Y9154762D01*
X22035714Y9059524D01*
X22083333Y8869048D01*
X22083333Y8726191D01*
X22035714Y8535715D01*
X21988095Y8440477D01*
X21892857Y8345239D01*
X21750000Y8297620D01*
X21511904Y8297620D01*
X23035714Y8297620D02*
X22464285Y8297620D01*
X22750000Y8297620D02*
X22750000Y9297620D01*
X22654761Y9154762D01*
X22559523Y9059524D01*
X22464285Y9011905D01*
%TO.C,C13*%
X42407142Y18392858D02*
X42359523Y18345239D01*
X42216666Y18297620D01*
X42121428Y18297620D01*
X41978571Y18345239D01*
X41883333Y18440477D01*
X41835714Y18535715D01*
X41788095Y18726191D01*
X41788095Y18869048D01*
X41835714Y19059524D01*
X41883333Y19154762D01*
X41978571Y19250000D01*
X42121428Y19297620D01*
X42216666Y19297620D01*
X42359523Y19250000D01*
X42407142Y19202381D01*
X43359523Y18297620D02*
X42788095Y18297620D01*
X43073809Y18297620D02*
X43073809Y19297620D01*
X42978571Y19154762D01*
X42883333Y19059524D01*
X42788095Y19011905D01*
X43692857Y19297620D02*
X44311904Y19297620D01*
X43978571Y18916667D01*
X44121428Y18916667D01*
X44216666Y18869048D01*
X44264285Y18821429D01*
X44311904Y18726191D01*
X44311904Y18488096D01*
X44264285Y18392858D01*
X44216666Y18345239D01*
X44121428Y18297620D01*
X43835714Y18297620D01*
X43740476Y18345239D01*
X43692857Y18392858D01*
%TO.C,C5*%
X28207142Y7033334D02*
X28254761Y6985715D01*
X28302380Y6842858D01*
X28302380Y6747620D01*
X28254761Y6604762D01*
X28159523Y6509524D01*
X28064285Y6461905D01*
X27873809Y6414286D01*
X27730952Y6414286D01*
X27540476Y6461905D01*
X27445238Y6509524D01*
X27350000Y6604762D01*
X27302380Y6747620D01*
X27302380Y6842858D01*
X27350000Y6985715D01*
X27397619Y7033334D01*
X27302380Y7938096D02*
X27302380Y7461905D01*
X27778571Y7414286D01*
X27730952Y7461905D01*
X27683333Y7557143D01*
X27683333Y7795239D01*
X27730952Y7890477D01*
X27778571Y7938096D01*
X27873809Y7985715D01*
X28111904Y7985715D01*
X28207142Y7938096D01*
X28254761Y7890477D01*
X28302380Y7795239D01*
X28302380Y7557143D01*
X28254761Y7461905D01*
X28207142Y7414286D01*
%TO.C,C4*%
X21833333Y3392858D02*
X21785714Y3345239D01*
X21642857Y3297620D01*
X21547619Y3297620D01*
X21404761Y3345239D01*
X21309523Y3440477D01*
X21261904Y3535715D01*
X21214285Y3726191D01*
X21214285Y3869048D01*
X21261904Y4059524D01*
X21309523Y4154762D01*
X21404761Y4250000D01*
X21547619Y4297620D01*
X21642857Y4297620D01*
X21785714Y4250000D01*
X21833333Y4202381D01*
X22690476Y3964286D02*
X22690476Y3297620D01*
X22452380Y4345239D02*
X22214285Y3630953D01*
X22833333Y3630953D01*
%TO.C,C3*%
X9433333Y1292858D02*
X9385714Y1245239D01*
X9242857Y1197620D01*
X9147619Y1197620D01*
X9004761Y1245239D01*
X8909523Y1340477D01*
X8861904Y1435715D01*
X8814285Y1626191D01*
X8814285Y1769048D01*
X8861904Y1959524D01*
X8909523Y2054762D01*
X9004761Y2150000D01*
X9147619Y2197620D01*
X9242857Y2197620D01*
X9385714Y2150000D01*
X9433333Y2102381D01*
X9766666Y2197620D02*
X10385714Y2197620D01*
X10052380Y1816667D01*
X10195238Y1816667D01*
X10290476Y1769048D01*
X10338095Y1721429D01*
X10385714Y1626191D01*
X10385714Y1388096D01*
X10338095Y1292858D01*
X10290476Y1245239D01*
X10195238Y1197620D01*
X9909523Y1197620D01*
X9814285Y1245239D01*
X9766666Y1292858D01*
%TO.C,C2*%
X7833333Y5392858D02*
X7785714Y5345239D01*
X7642857Y5297620D01*
X7547619Y5297620D01*
X7404761Y5345239D01*
X7309523Y5440477D01*
X7261904Y5535715D01*
X7214285Y5726191D01*
X7214285Y5869048D01*
X7261904Y6059524D01*
X7309523Y6154762D01*
X7404761Y6250000D01*
X7547619Y6297620D01*
X7642857Y6297620D01*
X7785714Y6250000D01*
X7833333Y6202381D01*
X8214285Y6202381D02*
X8261904Y6250000D01*
X8357142Y6297620D01*
X8595238Y6297620D01*
X8690476Y6250000D01*
X8738095Y6202381D01*
X8785714Y6107143D01*
X8785714Y6011905D01*
X8738095Y5869048D01*
X8166666Y5297620D01*
X8785714Y5297620D01*
%TO.C,C1*%
X19607142Y8183334D02*
X19654761Y8135715D01*
X19702380Y7992858D01*
X19702380Y7897620D01*
X19654761Y7754762D01*
X19559523Y7659524D01*
X19464285Y7611905D01*
X19273809Y7564286D01*
X19130952Y7564286D01*
X18940476Y7611905D01*
X18845238Y7659524D01*
X18750000Y7754762D01*
X18702380Y7897620D01*
X18702380Y7992858D01*
X18750000Y8135715D01*
X18797619Y8183334D01*
X19702380Y9135715D02*
X19702380Y8564286D01*
X19702380Y8850000D02*
X18702380Y8850000D01*
X18845238Y8754762D01*
X18940476Y8659524D01*
X18988095Y8564286D01*
%TD*%
M02*
