%TF.GenerationSoftware,KiCad,Pcbnew,5.1.9*%
%TF.CreationDate,2021-01-25T14:22:29+03:00*%
%TF.ProjectId,dual-mcp3201-pmod,6475616c-2d6d-4637-9033-3230312d706d,rev?*%
%TF.SameCoordinates,PX4c4b400PY8583b00*%
%TF.FileFunction,Soldermask,Top*%
%TF.FilePolarity,Negative*%
%FSLAX46Y46*%
G04 Gerber Fmt 4.6, Leading zero omitted, Abs format (unit mm)*
G04 Created by KiCad (PCBNEW 5.1.9) date 2021-01-25 14:22:29*
%MOMM*%
%LPD*%
G01*
G04 APERTURE LIST*
%ADD10O,1.700000X1.700000*%
%ADD11R,1.700000X1.700000*%
%ADD12C,1.700000*%
%ADD13C,1.100000*%
%ADD14C,2.000000*%
%ADD15R,0.800000X1.900000*%
%ADD16R,1.560000X0.650000*%
G04 APERTURE END LIST*
D10*
%TO.C,X4*%
X2210000Y17750000D03*
D11*
X4750000Y17750000D03*
%TD*%
D10*
%TO.C,X3*%
X2210000Y2250000D03*
D11*
X4750000Y2250000D03*
%TD*%
%TO.C,C12*%
G36*
G01*
X26487500Y17175000D02*
X26012500Y17175000D01*
G75*
G02*
X25775000Y17412500I0J237500D01*
G01*
X25775000Y17987500D01*
G75*
G02*
X26012500Y18225000I237500J0D01*
G01*
X26487500Y18225000D01*
G75*
G02*
X26725000Y17987500I0J-237500D01*
G01*
X26725000Y17412500D01*
G75*
G02*
X26487500Y17175000I-237500J0D01*
G01*
G37*
G36*
G01*
X26487500Y15425000D02*
X26012500Y15425000D01*
G75*
G02*
X25775000Y15662500I0J237500D01*
G01*
X25775000Y16237500D01*
G75*
G02*
X26012500Y16475000I237500J0D01*
G01*
X26487500Y16475000D01*
G75*
G02*
X26725000Y16237500I0J-237500D01*
G01*
X26725000Y15662500D01*
G75*
G02*
X26487500Y15425000I-237500J0D01*
G01*
G37*
%TD*%
%TO.C,C11*%
G36*
G01*
X21600000Y12675001D02*
X21600000Y11824999D01*
G75*
G02*
X21350001Y11575000I-249999J0D01*
G01*
X20274999Y11575000D01*
G75*
G02*
X20025000Y11824999I0J249999D01*
G01*
X20025000Y12675001D01*
G75*
G02*
X20274999Y12925000I249999J0D01*
G01*
X21350001Y12925000D01*
G75*
G02*
X21600000Y12675001I0J-249999D01*
G01*
G37*
G36*
G01*
X24475000Y12675001D02*
X24475000Y11824999D01*
G75*
G02*
X24225001Y11575000I-249999J0D01*
G01*
X23149999Y11575000D01*
G75*
G02*
X22900000Y11824999I0J249999D01*
G01*
X22900000Y12675001D01*
G75*
G02*
X23149999Y12925000I249999J0D01*
G01*
X24225001Y12925000D01*
G75*
G02*
X24475000Y12675001I0J-249999D01*
G01*
G37*
%TD*%
%TO.C,C10*%
G36*
G01*
X14400000Y14237500D02*
X14400000Y13762500D01*
G75*
G02*
X14162500Y13525000I-237500J0D01*
G01*
X13587500Y13525000D01*
G75*
G02*
X13350000Y13762500I0J237500D01*
G01*
X13350000Y14237500D01*
G75*
G02*
X13587500Y14475000I237500J0D01*
G01*
X14162500Y14475000D01*
G75*
G02*
X14400000Y14237500I0J-237500D01*
G01*
G37*
G36*
G01*
X16150000Y14237500D02*
X16150000Y13762500D01*
G75*
G02*
X15912500Y13525000I-237500J0D01*
G01*
X15337500Y13525000D01*
G75*
G02*
X15100000Y13762500I0J237500D01*
G01*
X15100000Y14237500D01*
G75*
G02*
X15337500Y14475000I237500J0D01*
G01*
X15912500Y14475000D01*
G75*
G02*
X16150000Y14237500I0J-237500D01*
G01*
G37*
%TD*%
%TO.C,C9*%
G36*
G01*
X10650000Y15574999D02*
X10650000Y16425001D01*
G75*
G02*
X10899999Y16675000I249999J0D01*
G01*
X11975001Y16675000D01*
G75*
G02*
X12225000Y16425001I0J-249999D01*
G01*
X12225000Y15574999D01*
G75*
G02*
X11975001Y15325000I-249999J0D01*
G01*
X10899999Y15325000D01*
G75*
G02*
X10650000Y15574999I0J249999D01*
G01*
G37*
G36*
G01*
X7775000Y15574999D02*
X7775000Y16425001D01*
G75*
G02*
X8024999Y16675000I249999J0D01*
G01*
X9100001Y16675000D01*
G75*
G02*
X9350000Y16425001I0J-249999D01*
G01*
X9350000Y15574999D01*
G75*
G02*
X9100001Y15325000I-249999J0D01*
G01*
X8024999Y15325000D01*
G75*
G02*
X7775000Y15574999I0J249999D01*
G01*
G37*
%TD*%
%TO.C,C8*%
G36*
G01*
X17512500Y17150000D02*
X17987500Y17150000D01*
G75*
G02*
X18225000Y16912500I0J-237500D01*
G01*
X18225000Y16337500D01*
G75*
G02*
X17987500Y16100000I-237500J0D01*
G01*
X17512500Y16100000D01*
G75*
G02*
X17275000Y16337500I0J237500D01*
G01*
X17275000Y16912500D01*
G75*
G02*
X17512500Y17150000I237500J0D01*
G01*
G37*
G36*
G01*
X17512500Y18900000D02*
X17987500Y18900000D01*
G75*
G02*
X18225000Y18662500I0J-237500D01*
G01*
X18225000Y18087500D01*
G75*
G02*
X17987500Y17850000I-237500J0D01*
G01*
X17512500Y17850000D01*
G75*
G02*
X17275000Y18087500I0J237500D01*
G01*
X17275000Y18662500D01*
G75*
G02*
X17512500Y18900000I237500J0D01*
G01*
G37*
%TD*%
%TO.C,C7*%
G36*
G01*
X40925001Y14962500D02*
X40074999Y14962500D01*
G75*
G02*
X39825000Y15212499I0J249999D01*
G01*
X39825000Y16287501D01*
G75*
G02*
X40074999Y16537500I249999J0D01*
G01*
X40925001Y16537500D01*
G75*
G02*
X41175000Y16287501I0J-249999D01*
G01*
X41175000Y15212499D01*
G75*
G02*
X40925001Y14962500I-249999J0D01*
G01*
G37*
G36*
G01*
X40925001Y12087500D02*
X40074999Y12087500D01*
G75*
G02*
X39825000Y12337499I0J249999D01*
G01*
X39825000Y13412501D01*
G75*
G02*
X40074999Y13662500I249999J0D01*
G01*
X40925001Y13662500D01*
G75*
G02*
X41175000Y13412501I0J-249999D01*
G01*
X41175000Y12337499D01*
G75*
G02*
X40925001Y12087500I-249999J0D01*
G01*
G37*
%TD*%
%TO.C,C14*%
G36*
G01*
X30675001Y11150000D02*
X29824999Y11150000D01*
G75*
G02*
X29575000Y11399999I0J249999D01*
G01*
X29575000Y12475001D01*
G75*
G02*
X29824999Y12725000I249999J0D01*
G01*
X30675001Y12725000D01*
G75*
G02*
X30925000Y12475001I0J-249999D01*
G01*
X30925000Y11399999D01*
G75*
G02*
X30675001Y11150000I-249999J0D01*
G01*
G37*
G36*
G01*
X30675001Y8275000D02*
X29824999Y8275000D01*
G75*
G02*
X29575000Y8524999I0J249999D01*
G01*
X29575000Y9600001D01*
G75*
G02*
X29824999Y9850000I249999J0D01*
G01*
X30675001Y9850000D01*
G75*
G02*
X30925000Y9600001I0J-249999D01*
G01*
X30925000Y8524999D01*
G75*
G02*
X30675001Y8275000I-249999J0D01*
G01*
G37*
%TD*%
%TO.C,C6*%
G36*
G01*
X37525000Y7487500D02*
X37525000Y7012500D01*
G75*
G02*
X37287500Y6775000I-237500J0D01*
G01*
X36712500Y6775000D01*
G75*
G02*
X36475000Y7012500I0J237500D01*
G01*
X36475000Y7487500D01*
G75*
G02*
X36712500Y7725000I237500J0D01*
G01*
X37287500Y7725000D01*
G75*
G02*
X37525000Y7487500I0J-237500D01*
G01*
G37*
G36*
G01*
X39275000Y7487500D02*
X39275000Y7012500D01*
G75*
G02*
X39037500Y6775000I-237500J0D01*
G01*
X38462500Y6775000D01*
G75*
G02*
X38225000Y7012500I0J237500D01*
G01*
X38225000Y7487500D01*
G75*
G02*
X38462500Y7725000I237500J0D01*
G01*
X39037500Y7725000D01*
G75*
G02*
X39275000Y7487500I0J-237500D01*
G01*
G37*
%TD*%
D12*
%TO.C,X2*%
X46170000Y3650000D03*
D11*
X43630000Y3650000D03*
D10*
X46170000Y6190000D03*
X43630000Y6190000D03*
X46170000Y8730000D03*
X43630000Y8730000D03*
X46170000Y11270000D03*
X43630000Y11270000D03*
X46170000Y13810000D03*
X43630000Y13810000D03*
X46170000Y16350000D03*
X43630000Y16350000D03*
%TD*%
D13*
%TO.C,X1*%
X2000000Y10000000D03*
X8000000Y10000000D03*
D14*
X8800000Y12450000D03*
X3800000Y7550000D03*
X2000000Y12450000D03*
%TD*%
%TO.C,R10*%
G36*
G01*
X17512500Y12650000D02*
X17987500Y12650000D01*
G75*
G02*
X18225000Y12412500I0J-237500D01*
G01*
X18225000Y11837500D01*
G75*
G02*
X17987500Y11600000I-237500J0D01*
G01*
X17512500Y11600000D01*
G75*
G02*
X17275000Y11837500I0J237500D01*
G01*
X17275000Y12412500D01*
G75*
G02*
X17512500Y12650000I237500J0D01*
G01*
G37*
G36*
G01*
X17512500Y14400000D02*
X17987500Y14400000D01*
G75*
G02*
X18225000Y14162500I0J-237500D01*
G01*
X18225000Y13587500D01*
G75*
G02*
X17987500Y13350000I-237500J0D01*
G01*
X17512500Y13350000D01*
G75*
G02*
X17275000Y13587500I0J237500D01*
G01*
X17275000Y14162500D01*
G75*
G02*
X17512500Y14400000I237500J0D01*
G01*
G37*
%TD*%
%TO.C,R9*%
G36*
G01*
X15100000Y18262500D02*
X15100000Y18737500D01*
G75*
G02*
X15337500Y18975000I237500J0D01*
G01*
X15912500Y18975000D01*
G75*
G02*
X16150000Y18737500I0J-237500D01*
G01*
X16150000Y18262500D01*
G75*
G02*
X15912500Y18025000I-237500J0D01*
G01*
X15337500Y18025000D01*
G75*
G02*
X15100000Y18262500I0J237500D01*
G01*
G37*
G36*
G01*
X13350000Y18262500D02*
X13350000Y18737500D01*
G75*
G02*
X13587500Y18975000I237500J0D01*
G01*
X14162500Y18975000D01*
G75*
G02*
X14400000Y18737500I0J-237500D01*
G01*
X14400000Y18262500D01*
G75*
G02*
X14162500Y18025000I-237500J0D01*
G01*
X13587500Y18025000D01*
G75*
G02*
X13350000Y18262500I0J237500D01*
G01*
G37*
%TD*%
%TO.C,R8*%
G36*
G01*
X15100000Y11762500D02*
X15100000Y12237500D01*
G75*
G02*
X15337500Y12475000I237500J0D01*
G01*
X15912500Y12475000D01*
G75*
G02*
X16150000Y12237500I0J-237500D01*
G01*
X16150000Y11762500D01*
G75*
G02*
X15912500Y11525000I-237500J0D01*
G01*
X15337500Y11525000D01*
G75*
G02*
X15100000Y11762500I0J237500D01*
G01*
G37*
G36*
G01*
X13350000Y11762500D02*
X13350000Y12237500D01*
G75*
G02*
X13587500Y12475000I237500J0D01*
G01*
X14162500Y12475000D01*
G75*
G02*
X14400000Y12237500I0J-237500D01*
G01*
X14400000Y11762500D01*
G75*
G02*
X14162500Y11525000I-237500J0D01*
G01*
X13587500Y11525000D01*
G75*
G02*
X13350000Y11762500I0J237500D01*
G01*
G37*
%TD*%
%TO.C,R7*%
G36*
G01*
X26012500Y12150000D02*
X26487500Y12150000D01*
G75*
G02*
X26725000Y11912500I0J-237500D01*
G01*
X26725000Y11337500D01*
G75*
G02*
X26487500Y11100000I-237500J0D01*
G01*
X26012500Y11100000D01*
G75*
G02*
X25775000Y11337500I0J237500D01*
G01*
X25775000Y11912500D01*
G75*
G02*
X26012500Y12150000I237500J0D01*
G01*
G37*
G36*
G01*
X26012500Y13900000D02*
X26487500Y13900000D01*
G75*
G02*
X26725000Y13662500I0J-237500D01*
G01*
X26725000Y13087500D01*
G75*
G02*
X26487500Y12850000I-237500J0D01*
G01*
X26012500Y12850000D01*
G75*
G02*
X25775000Y13087500I0J237500D01*
G01*
X25775000Y13662500D01*
G75*
G02*
X26012500Y13900000I237500J0D01*
G01*
G37*
%TD*%
%TO.C,R6*%
G36*
G01*
X15100000Y16262500D02*
X15100000Y16737500D01*
G75*
G02*
X15337500Y16975000I237500J0D01*
G01*
X15912500Y16975000D01*
G75*
G02*
X16150000Y16737500I0J-237500D01*
G01*
X16150000Y16262500D01*
G75*
G02*
X15912500Y16025000I-237500J0D01*
G01*
X15337500Y16025000D01*
G75*
G02*
X15100000Y16262500I0J237500D01*
G01*
G37*
G36*
G01*
X13350000Y16262500D02*
X13350000Y16737500D01*
G75*
G02*
X13587500Y16975000I237500J0D01*
G01*
X14162500Y16975000D01*
G75*
G02*
X14400000Y16737500I0J-237500D01*
G01*
X14400000Y16262500D01*
G75*
G02*
X14162500Y16025000I-237500J0D01*
G01*
X13587500Y16025000D01*
G75*
G02*
X13350000Y16262500I0J237500D01*
G01*
G37*
%TD*%
%TO.C,R5*%
G36*
G01*
X17512500Y2400000D02*
X17987500Y2400000D01*
G75*
G02*
X18225000Y2162500I0J-237500D01*
G01*
X18225000Y1587500D01*
G75*
G02*
X17987500Y1350000I-237500J0D01*
G01*
X17512500Y1350000D01*
G75*
G02*
X17275000Y1587500I0J237500D01*
G01*
X17275000Y2162500D01*
G75*
G02*
X17512500Y2400000I237500J0D01*
G01*
G37*
G36*
G01*
X17512500Y4150000D02*
X17987500Y4150000D01*
G75*
G02*
X18225000Y3912500I0J-237500D01*
G01*
X18225000Y3337500D01*
G75*
G02*
X17987500Y3100000I-237500J0D01*
G01*
X17512500Y3100000D01*
G75*
G02*
X17275000Y3337500I0J237500D01*
G01*
X17275000Y3912500D01*
G75*
G02*
X17512500Y4150000I237500J0D01*
G01*
G37*
%TD*%
%TO.C,R4*%
G36*
G01*
X15100000Y8012500D02*
X15100000Y8487500D01*
G75*
G02*
X15337500Y8725000I237500J0D01*
G01*
X15912500Y8725000D01*
G75*
G02*
X16150000Y8487500I0J-237500D01*
G01*
X16150000Y8012500D01*
G75*
G02*
X15912500Y7775000I-237500J0D01*
G01*
X15337500Y7775000D01*
G75*
G02*
X15100000Y8012500I0J237500D01*
G01*
G37*
G36*
G01*
X13350000Y8012500D02*
X13350000Y8487500D01*
G75*
G02*
X13587500Y8725000I237500J0D01*
G01*
X14162500Y8725000D01*
G75*
G02*
X14400000Y8487500I0J-237500D01*
G01*
X14400000Y8012500D01*
G75*
G02*
X14162500Y7775000I-237500J0D01*
G01*
X13587500Y7775000D01*
G75*
G02*
X13350000Y8012500I0J237500D01*
G01*
G37*
%TD*%
%TO.C,R3*%
G36*
G01*
X15100000Y1512500D02*
X15100000Y1987500D01*
G75*
G02*
X15337500Y2225000I237500J0D01*
G01*
X15912500Y2225000D01*
G75*
G02*
X16150000Y1987500I0J-237500D01*
G01*
X16150000Y1512500D01*
G75*
G02*
X15912500Y1275000I-237500J0D01*
G01*
X15337500Y1275000D01*
G75*
G02*
X15100000Y1512500I0J237500D01*
G01*
G37*
G36*
G01*
X13350000Y1512500D02*
X13350000Y1987500D01*
G75*
G02*
X13587500Y2225000I237500J0D01*
G01*
X14162500Y2225000D01*
G75*
G02*
X14400000Y1987500I0J-237500D01*
G01*
X14400000Y1512500D01*
G75*
G02*
X14162500Y1275000I-237500J0D01*
G01*
X13587500Y1275000D01*
G75*
G02*
X13350000Y1512500I0J237500D01*
G01*
G37*
%TD*%
%TO.C,R2*%
G36*
G01*
X26487500Y3850000D02*
X26012500Y3850000D01*
G75*
G02*
X25775000Y4087500I0J237500D01*
G01*
X25775000Y4662500D01*
G75*
G02*
X26012500Y4900000I237500J0D01*
G01*
X26487500Y4900000D01*
G75*
G02*
X26725000Y4662500I0J-237500D01*
G01*
X26725000Y4087500D01*
G75*
G02*
X26487500Y3850000I-237500J0D01*
G01*
G37*
G36*
G01*
X26487500Y2100000D02*
X26012500Y2100000D01*
G75*
G02*
X25775000Y2337500I0J237500D01*
G01*
X25775000Y2912500D01*
G75*
G02*
X26012500Y3150000I237500J0D01*
G01*
X26487500Y3150000D01*
G75*
G02*
X26725000Y2912500I0J-237500D01*
G01*
X26725000Y2337500D01*
G75*
G02*
X26487500Y2100000I-237500J0D01*
G01*
G37*
%TD*%
%TO.C,R1*%
G36*
G01*
X15100000Y6012500D02*
X15100000Y6487500D01*
G75*
G02*
X15337500Y6725000I237500J0D01*
G01*
X15912500Y6725000D01*
G75*
G02*
X16150000Y6487500I0J-237500D01*
G01*
X16150000Y6012500D01*
G75*
G02*
X15912500Y5775000I-237500J0D01*
G01*
X15337500Y5775000D01*
G75*
G02*
X15100000Y6012500I0J237500D01*
G01*
G37*
G36*
G01*
X13350000Y6012500D02*
X13350000Y6487500D01*
G75*
G02*
X13587500Y6725000I237500J0D01*
G01*
X14162500Y6725000D01*
G75*
G02*
X14400000Y6487500I0J-237500D01*
G01*
X14400000Y6012500D01*
G75*
G02*
X14162500Y5775000I-237500J0D01*
G01*
X13587500Y5775000D01*
G75*
G02*
X13350000Y6012500I0J237500D01*
G01*
G37*
%TD*%
D15*
%TO.C,D5*%
X34000000Y8500000D03*
X33050000Y11500000D03*
X34950000Y11500000D03*
%TD*%
%TO.C,D4*%
G36*
G01*
X34800000Y17742500D02*
X34800000Y18067500D01*
G75*
G02*
X34962500Y18230000I162500J0D01*
G01*
X36612500Y18230000D01*
G75*
G02*
X36775000Y18067500I0J-162500D01*
G01*
X36775000Y17742500D01*
G75*
G02*
X36612500Y17580000I-162500J0D01*
G01*
X34962500Y17580000D01*
G75*
G02*
X34800000Y17742500I0J162500D01*
G01*
G37*
G36*
G01*
X34800000Y16472500D02*
X34800000Y16797500D01*
G75*
G02*
X34962500Y16960000I162500J0D01*
G01*
X36612500Y16960000D01*
G75*
G02*
X36775000Y16797500I0J-162500D01*
G01*
X36775000Y16472500D01*
G75*
G02*
X36612500Y16310000I-162500J0D01*
G01*
X34962500Y16310000D01*
G75*
G02*
X34800000Y16472500I0J162500D01*
G01*
G37*
G36*
G01*
X34800000Y15202500D02*
X34800000Y15527500D01*
G75*
G02*
X34962500Y15690000I162500J0D01*
G01*
X36612500Y15690000D01*
G75*
G02*
X36775000Y15527500I0J-162500D01*
G01*
X36775000Y15202500D01*
G75*
G02*
X36612500Y15040000I-162500J0D01*
G01*
X34962500Y15040000D01*
G75*
G02*
X34800000Y15202500I0J162500D01*
G01*
G37*
G36*
G01*
X34800000Y13932500D02*
X34800000Y14257500D01*
G75*
G02*
X34962500Y14420000I162500J0D01*
G01*
X36612500Y14420000D01*
G75*
G02*
X36775000Y14257500I0J-162500D01*
G01*
X36775000Y13932500D01*
G75*
G02*
X36612500Y13770000I-162500J0D01*
G01*
X34962500Y13770000D01*
G75*
G02*
X34800000Y13932500I0J162500D01*
G01*
G37*
G36*
G01*
X29725000Y13932500D02*
X29725000Y14257500D01*
G75*
G02*
X29887500Y14420000I162500J0D01*
G01*
X31537500Y14420000D01*
G75*
G02*
X31700000Y14257500I0J-162500D01*
G01*
X31700000Y13932500D01*
G75*
G02*
X31537500Y13770000I-162500J0D01*
G01*
X29887500Y13770000D01*
G75*
G02*
X29725000Y13932500I0J162500D01*
G01*
G37*
G36*
G01*
X29725000Y15202500D02*
X29725000Y15527500D01*
G75*
G02*
X29887500Y15690000I162500J0D01*
G01*
X31537500Y15690000D01*
G75*
G02*
X31700000Y15527500I0J-162500D01*
G01*
X31700000Y15202500D01*
G75*
G02*
X31537500Y15040000I-162500J0D01*
G01*
X29887500Y15040000D01*
G75*
G02*
X29725000Y15202500I0J162500D01*
G01*
G37*
G36*
G01*
X29725000Y16472500D02*
X29725000Y16797500D01*
G75*
G02*
X29887500Y16960000I162500J0D01*
G01*
X31537500Y16960000D01*
G75*
G02*
X31700000Y16797500I0J-162500D01*
G01*
X31700000Y16472500D01*
G75*
G02*
X31537500Y16310000I-162500J0D01*
G01*
X29887500Y16310000D01*
G75*
G02*
X29725000Y16472500I0J162500D01*
G01*
G37*
G36*
G01*
X29725000Y17742500D02*
X29725000Y18067500D01*
G75*
G02*
X29887500Y18230000I162500J0D01*
G01*
X31537500Y18230000D01*
G75*
G02*
X31700000Y18067500I0J-162500D01*
G01*
X31700000Y17742500D01*
G75*
G02*
X31537500Y17580000I-162500J0D01*
G01*
X29887500Y17580000D01*
G75*
G02*
X29725000Y17742500I0J162500D01*
G01*
G37*
%TD*%
D16*
%TO.C,D3*%
X23600000Y17700000D03*
X23600000Y15800000D03*
X20900000Y15800000D03*
X20900000Y16750000D03*
X20900000Y17700000D03*
%TD*%
%TO.C,D2*%
G36*
G01*
X34800000Y5242500D02*
X34800000Y5567500D01*
G75*
G02*
X34962500Y5730000I162500J0D01*
G01*
X36612500Y5730000D01*
G75*
G02*
X36775000Y5567500I0J-162500D01*
G01*
X36775000Y5242500D01*
G75*
G02*
X36612500Y5080000I-162500J0D01*
G01*
X34962500Y5080000D01*
G75*
G02*
X34800000Y5242500I0J162500D01*
G01*
G37*
G36*
G01*
X34800000Y3972500D02*
X34800000Y4297500D01*
G75*
G02*
X34962500Y4460000I162500J0D01*
G01*
X36612500Y4460000D01*
G75*
G02*
X36775000Y4297500I0J-162500D01*
G01*
X36775000Y3972500D01*
G75*
G02*
X36612500Y3810000I-162500J0D01*
G01*
X34962500Y3810000D01*
G75*
G02*
X34800000Y3972500I0J162500D01*
G01*
G37*
G36*
G01*
X34800000Y2702500D02*
X34800000Y3027500D01*
G75*
G02*
X34962500Y3190000I162500J0D01*
G01*
X36612500Y3190000D01*
G75*
G02*
X36775000Y3027500I0J-162500D01*
G01*
X36775000Y2702500D01*
G75*
G02*
X36612500Y2540000I-162500J0D01*
G01*
X34962500Y2540000D01*
G75*
G02*
X34800000Y2702500I0J162500D01*
G01*
G37*
G36*
G01*
X34800000Y1432500D02*
X34800000Y1757500D01*
G75*
G02*
X34962500Y1920000I162500J0D01*
G01*
X36612500Y1920000D01*
G75*
G02*
X36775000Y1757500I0J-162500D01*
G01*
X36775000Y1432500D01*
G75*
G02*
X36612500Y1270000I-162500J0D01*
G01*
X34962500Y1270000D01*
G75*
G02*
X34800000Y1432500I0J162500D01*
G01*
G37*
G36*
G01*
X29725000Y1432500D02*
X29725000Y1757500D01*
G75*
G02*
X29887500Y1920000I162500J0D01*
G01*
X31537500Y1920000D01*
G75*
G02*
X31700000Y1757500I0J-162500D01*
G01*
X31700000Y1432500D01*
G75*
G02*
X31537500Y1270000I-162500J0D01*
G01*
X29887500Y1270000D01*
G75*
G02*
X29725000Y1432500I0J162500D01*
G01*
G37*
G36*
G01*
X29725000Y2702500D02*
X29725000Y3027500D01*
G75*
G02*
X29887500Y3190000I162500J0D01*
G01*
X31537500Y3190000D01*
G75*
G02*
X31700000Y3027500I0J-162500D01*
G01*
X31700000Y2702500D01*
G75*
G02*
X31537500Y2540000I-162500J0D01*
G01*
X29887500Y2540000D01*
G75*
G02*
X29725000Y2702500I0J162500D01*
G01*
G37*
G36*
G01*
X29725000Y3972500D02*
X29725000Y4297500D01*
G75*
G02*
X29887500Y4460000I162500J0D01*
G01*
X31537500Y4460000D01*
G75*
G02*
X31700000Y4297500I0J-162500D01*
G01*
X31700000Y3972500D01*
G75*
G02*
X31537500Y3810000I-162500J0D01*
G01*
X29887500Y3810000D01*
G75*
G02*
X29725000Y3972500I0J162500D01*
G01*
G37*
G36*
G01*
X29725000Y5242500D02*
X29725000Y5567500D01*
G75*
G02*
X29887500Y5730000I162500J0D01*
G01*
X31537500Y5730000D01*
G75*
G02*
X31700000Y5567500I0J-162500D01*
G01*
X31700000Y5242500D01*
G75*
G02*
X31537500Y5080000I-162500J0D01*
G01*
X29887500Y5080000D01*
G75*
G02*
X29725000Y5242500I0J162500D01*
G01*
G37*
%TD*%
%TO.C,D1*%
X23600000Y7200000D03*
X23600000Y5300000D03*
X20900000Y5300000D03*
X20900000Y6250000D03*
X20900000Y7200000D03*
%TD*%
%TO.C,C13*%
G36*
G01*
X39400000Y18487500D02*
X39400000Y18012500D01*
G75*
G02*
X39162500Y17775000I-237500J0D01*
G01*
X38587500Y17775000D01*
G75*
G02*
X38350000Y18012500I0J237500D01*
G01*
X38350000Y18487500D01*
G75*
G02*
X38587500Y18725000I237500J0D01*
G01*
X39162500Y18725000D01*
G75*
G02*
X39400000Y18487500I0J-237500D01*
G01*
G37*
G36*
G01*
X41150000Y18487500D02*
X41150000Y18012500D01*
G75*
G02*
X40912500Y17775000I-237500J0D01*
G01*
X40337500Y17775000D01*
G75*
G02*
X40100000Y18012500I0J237500D01*
G01*
X40100000Y18487500D01*
G75*
G02*
X40337500Y18725000I237500J0D01*
G01*
X40912500Y18725000D01*
G75*
G02*
X41150000Y18487500I0J-237500D01*
G01*
G37*
%TD*%
%TO.C,C5*%
G36*
G01*
X26012500Y6900000D02*
X26487500Y6900000D01*
G75*
G02*
X26725000Y6662500I0J-237500D01*
G01*
X26725000Y6087500D01*
G75*
G02*
X26487500Y5850000I-237500J0D01*
G01*
X26012500Y5850000D01*
G75*
G02*
X25775000Y6087500I0J237500D01*
G01*
X25775000Y6662500D01*
G75*
G02*
X26012500Y6900000I237500J0D01*
G01*
G37*
G36*
G01*
X26012500Y8650000D02*
X26487500Y8650000D01*
G75*
G02*
X26725000Y8412500I0J-237500D01*
G01*
X26725000Y7837500D01*
G75*
G02*
X26487500Y7600000I-237500J0D01*
G01*
X26012500Y7600000D01*
G75*
G02*
X25775000Y7837500I0J237500D01*
G01*
X25775000Y8412500D01*
G75*
G02*
X26012500Y8650000I237500J0D01*
G01*
G37*
%TD*%
%TO.C,C4*%
G36*
G01*
X21600000Y2425001D02*
X21600000Y1574999D01*
G75*
G02*
X21350001Y1325000I-249999J0D01*
G01*
X20274999Y1325000D01*
G75*
G02*
X20025000Y1574999I0J249999D01*
G01*
X20025000Y2425001D01*
G75*
G02*
X20274999Y2675000I249999J0D01*
G01*
X21350001Y2675000D01*
G75*
G02*
X21600000Y2425001I0J-249999D01*
G01*
G37*
G36*
G01*
X24475000Y2425001D02*
X24475000Y1574999D01*
G75*
G02*
X24225001Y1325000I-249999J0D01*
G01*
X23149999Y1325000D01*
G75*
G02*
X22900000Y1574999I0J249999D01*
G01*
X22900000Y2425001D01*
G75*
G02*
X23149999Y2675000I249999J0D01*
G01*
X24225001Y2675000D01*
G75*
G02*
X24475000Y2425001I0J-249999D01*
G01*
G37*
%TD*%
%TO.C,C3*%
G36*
G01*
X14400000Y3987500D02*
X14400000Y3512500D01*
G75*
G02*
X14162500Y3275000I-237500J0D01*
G01*
X13587500Y3275000D01*
G75*
G02*
X13350000Y3512500I0J237500D01*
G01*
X13350000Y3987500D01*
G75*
G02*
X13587500Y4225000I237500J0D01*
G01*
X14162500Y4225000D01*
G75*
G02*
X14400000Y3987500I0J-237500D01*
G01*
G37*
G36*
G01*
X16150000Y3987500D02*
X16150000Y3512500D01*
G75*
G02*
X15912500Y3275000I-237500J0D01*
G01*
X15337500Y3275000D01*
G75*
G02*
X15100000Y3512500I0J237500D01*
G01*
X15100000Y3987500D01*
G75*
G02*
X15337500Y4225000I237500J0D01*
G01*
X15912500Y4225000D01*
G75*
G02*
X16150000Y3987500I0J-237500D01*
G01*
G37*
%TD*%
%TO.C,C2*%
G36*
G01*
X10650000Y3574999D02*
X10650000Y4425001D01*
G75*
G02*
X10899999Y4675000I249999J0D01*
G01*
X11975001Y4675000D01*
G75*
G02*
X12225000Y4425001I0J-249999D01*
G01*
X12225000Y3574999D01*
G75*
G02*
X11975001Y3325000I-249999J0D01*
G01*
X10899999Y3325000D01*
G75*
G02*
X10650000Y3574999I0J249999D01*
G01*
G37*
G36*
G01*
X7775000Y3574999D02*
X7775000Y4425001D01*
G75*
G02*
X8024999Y4675000I249999J0D01*
G01*
X9100001Y4675000D01*
G75*
G02*
X9350000Y4425001I0J-249999D01*
G01*
X9350000Y3574999D01*
G75*
G02*
X9100001Y3325000I-249999J0D01*
G01*
X8024999Y3325000D01*
G75*
G02*
X7775000Y3574999I0J249999D01*
G01*
G37*
%TD*%
%TO.C,C1*%
G36*
G01*
X17512500Y6900000D02*
X17987500Y6900000D01*
G75*
G02*
X18225000Y6662500I0J-237500D01*
G01*
X18225000Y6087500D01*
G75*
G02*
X17987500Y5850000I-237500J0D01*
G01*
X17512500Y5850000D01*
G75*
G02*
X17275000Y6087500I0J237500D01*
G01*
X17275000Y6662500D01*
G75*
G02*
X17512500Y6900000I237500J0D01*
G01*
G37*
G36*
G01*
X17512500Y8650000D02*
X17987500Y8650000D01*
G75*
G02*
X18225000Y8412500I0J-237500D01*
G01*
X18225000Y7837500D01*
G75*
G02*
X17987500Y7600000I-237500J0D01*
G01*
X17512500Y7600000D01*
G75*
G02*
X17275000Y7837500I0J237500D01*
G01*
X17275000Y8412500D01*
G75*
G02*
X17512500Y8650000I237500J0D01*
G01*
G37*
%TD*%
M02*
