%TF.GenerationSoftware,KiCad,Pcbnew,5.1.9*%
%TF.CreationDate,2021-01-26T07:42:57+03:00*%
%TF.ProjectId,dual-mcp3201-pmod,6475616c-2d6d-4637-9033-3230312d706d,rev?*%
%TF.SameCoordinates,PX4c4b400PY8583b00*%
%TF.FileFunction,Copper,L1,Top*%
%TF.FilePolarity,Positive*%
%FSLAX46Y46*%
G04 Gerber Fmt 4.6, Leading zero omitted, Abs format (unit mm)*
G04 Created by KiCad (PCBNEW 5.1.9) date 2021-01-26 07:42:57*
%MOMM*%
%LPD*%
G01*
G04 APERTURE LIST*
%TA.AperFunction,ComponentPad*%
%ADD10O,1.700000X1.700000*%
%TD*%
%TA.AperFunction,ComponentPad*%
%ADD11R,1.700000X1.700000*%
%TD*%
%TA.AperFunction,ComponentPad*%
%ADD12C,1.700000*%
%TD*%
%TA.AperFunction,ComponentPad*%
%ADD13C,2.000000*%
%TD*%
%TA.AperFunction,SMDPad,CuDef*%
%ADD14R,0.800000X1.900000*%
%TD*%
%TA.AperFunction,SMDPad,CuDef*%
%ADD15R,1.560000X0.650000*%
%TD*%
%TA.AperFunction,ViaPad*%
%ADD16C,0.800000*%
%TD*%
%TA.AperFunction,Conductor*%
%ADD17C,0.400000*%
%TD*%
%TA.AperFunction,Conductor*%
%ADD18C,1.000000*%
%TD*%
%TA.AperFunction,Conductor*%
%ADD19C,0.500000*%
%TD*%
%TA.AperFunction,Conductor*%
%ADD20C,0.750000*%
%TD*%
%TA.AperFunction,Conductor*%
%ADD21C,0.250000*%
%TD*%
%TA.AperFunction,Conductor*%
%ADD22C,0.100000*%
%TD*%
%TA.AperFunction,Conductor*%
%ADD23C,0.350000*%
%TD*%
G04 APERTURE END LIST*
D10*
%TO.P,X4,2*%
%TO.N,GND*%
X2210000Y17750000D03*
D11*
%TO.P,X4,1*%
%TO.N,Net-(C9-Pad2)*%
X4750000Y17750000D03*
%TD*%
D10*
%TO.P,X3,2*%
%TO.N,GND*%
X2210000Y2250000D03*
D11*
%TO.P,X3,1*%
%TO.N,Net-(C2-Pad2)*%
X4750000Y2250000D03*
%TD*%
%TO.P,C12,2*%
%TO.N,+VREF*%
%TA.AperFunction,SMDPad,CuDef*%
G36*
G01*
X26487500Y17175000D02*
X26012500Y17175000D01*
G75*
G02*
X25775000Y17412500I0J237500D01*
G01*
X25775000Y17987500D01*
G75*
G02*
X26012500Y18225000I237500J0D01*
G01*
X26487500Y18225000D01*
G75*
G02*
X26725000Y17987500I0J-237500D01*
G01*
X26725000Y17412500D01*
G75*
G02*
X26487500Y17175000I-237500J0D01*
G01*
G37*
%TD.AperFunction*%
%TO.P,C12,1*%
%TO.N,GND*%
%TA.AperFunction,SMDPad,CuDef*%
G36*
G01*
X26487500Y15425000D02*
X26012500Y15425000D01*
G75*
G02*
X25775000Y15662500I0J237500D01*
G01*
X25775000Y16237500D01*
G75*
G02*
X26012500Y16475000I237500J0D01*
G01*
X26487500Y16475000D01*
G75*
G02*
X26725000Y16237500I0J-237500D01*
G01*
X26725000Y15662500D01*
G75*
G02*
X26487500Y15425000I-237500J0D01*
G01*
G37*
%TD.AperFunction*%
%TD*%
%TO.P,C11,2*%
%TO.N,GND*%
%TA.AperFunction,SMDPad,CuDef*%
G36*
G01*
X22900000Y11824999D02*
X22900000Y12675001D01*
G75*
G02*
X23149999Y12925000I249999J0D01*
G01*
X24225001Y12925000D01*
G75*
G02*
X24475000Y12675001I0J-249999D01*
G01*
X24475000Y11824999D01*
G75*
G02*
X24225001Y11575000I-249999J0D01*
G01*
X23149999Y11575000D01*
G75*
G02*
X22900000Y11824999I0J249999D01*
G01*
G37*
%TD.AperFunction*%
%TO.P,C11,1*%
%TO.N,Net-(C11-Pad1)*%
%TA.AperFunction,SMDPad,CuDef*%
G36*
G01*
X20025000Y11824999D02*
X20025000Y12675001D01*
G75*
G02*
X20274999Y12925000I249999J0D01*
G01*
X21350001Y12925000D01*
G75*
G02*
X21600000Y12675001I0J-249999D01*
G01*
X21600000Y11824999D01*
G75*
G02*
X21350001Y11575000I-249999J0D01*
G01*
X20274999Y11575000D01*
G75*
G02*
X20025000Y11824999I0J249999D01*
G01*
G37*
%TD.AperFunction*%
%TD*%
%TO.P,C10,2*%
%TO.N,Net-(C10-Pad2)*%
%TA.AperFunction,SMDPad,CuDef*%
G36*
G01*
X14400000Y14237500D02*
X14400000Y13762500D01*
G75*
G02*
X14162500Y13525000I-237500J0D01*
G01*
X13587500Y13525000D01*
G75*
G02*
X13350000Y13762500I0J237500D01*
G01*
X13350000Y14237500D01*
G75*
G02*
X13587500Y14475000I237500J0D01*
G01*
X14162500Y14475000D01*
G75*
G02*
X14400000Y14237500I0J-237500D01*
G01*
G37*
%TD.AperFunction*%
%TO.P,C10,1*%
%TO.N,GND*%
%TA.AperFunction,SMDPad,CuDef*%
G36*
G01*
X16150000Y14237500D02*
X16150000Y13762500D01*
G75*
G02*
X15912500Y13525000I-237500J0D01*
G01*
X15337500Y13525000D01*
G75*
G02*
X15100000Y13762500I0J237500D01*
G01*
X15100000Y14237500D01*
G75*
G02*
X15337500Y14475000I237500J0D01*
G01*
X15912500Y14475000D01*
G75*
G02*
X16150000Y14237500I0J-237500D01*
G01*
G37*
%TD.AperFunction*%
%TD*%
%TO.P,C9,2*%
%TO.N,Net-(C9-Pad2)*%
%TA.AperFunction,SMDPad,CuDef*%
G36*
G01*
X9350000Y16425001D02*
X9350000Y15574999D01*
G75*
G02*
X9100001Y15325000I-249999J0D01*
G01*
X8024999Y15325000D01*
G75*
G02*
X7775000Y15574999I0J249999D01*
G01*
X7775000Y16425001D01*
G75*
G02*
X8024999Y16675000I249999J0D01*
G01*
X9100001Y16675000D01*
G75*
G02*
X9350000Y16425001I0J-249999D01*
G01*
G37*
%TD.AperFunction*%
%TO.P,C9,1*%
%TO.N,Net-(C9-Pad1)*%
%TA.AperFunction,SMDPad,CuDef*%
G36*
G01*
X12225000Y16425001D02*
X12225000Y15574999D01*
G75*
G02*
X11975001Y15325000I-249999J0D01*
G01*
X10899999Y15325000D01*
G75*
G02*
X10650000Y15574999I0J249999D01*
G01*
X10650000Y16425001D01*
G75*
G02*
X10899999Y16675000I249999J0D01*
G01*
X11975001Y16675000D01*
G75*
G02*
X12225000Y16425001I0J-249999D01*
G01*
G37*
%TD.AperFunction*%
%TD*%
%TO.P,C8,2*%
%TO.N,Net-(C8-Pad2)*%
%TA.AperFunction,SMDPad,CuDef*%
G36*
G01*
X17512500Y17150000D02*
X17987500Y17150000D01*
G75*
G02*
X18225000Y16912500I0J-237500D01*
G01*
X18225000Y16337500D01*
G75*
G02*
X17987500Y16100000I-237500J0D01*
G01*
X17512500Y16100000D01*
G75*
G02*
X17275000Y16337500I0J237500D01*
G01*
X17275000Y16912500D01*
G75*
G02*
X17512500Y17150000I237500J0D01*
G01*
G37*
%TD.AperFunction*%
%TO.P,C8,1*%
%TO.N,Net-(C8-Pad1)*%
%TA.AperFunction,SMDPad,CuDef*%
G36*
G01*
X17512500Y18900000D02*
X17987500Y18900000D01*
G75*
G02*
X18225000Y18662500I0J-237500D01*
G01*
X18225000Y18087500D01*
G75*
G02*
X17987500Y17850000I-237500J0D01*
G01*
X17512500Y17850000D01*
G75*
G02*
X17275000Y18087500I0J237500D01*
G01*
X17275000Y18662500D01*
G75*
G02*
X17512500Y18900000I237500J0D01*
G01*
G37*
%TD.AperFunction*%
%TD*%
%TO.P,C7,2*%
%TO.N,GND*%
%TA.AperFunction,SMDPad,CuDef*%
G36*
G01*
X40074999Y13662500D02*
X40925001Y13662500D01*
G75*
G02*
X41175000Y13412501I0J-249999D01*
G01*
X41175000Y12337499D01*
G75*
G02*
X40925001Y12087500I-249999J0D01*
G01*
X40074999Y12087500D01*
G75*
G02*
X39825000Y12337499I0J249999D01*
G01*
X39825000Y13412501D01*
G75*
G02*
X40074999Y13662500I249999J0D01*
G01*
G37*
%TD.AperFunction*%
%TO.P,C7,1*%
%TO.N,+VDD_3.3V*%
%TA.AperFunction,SMDPad,CuDef*%
G36*
G01*
X40074999Y16537500D02*
X40925001Y16537500D01*
G75*
G02*
X41175000Y16287501I0J-249999D01*
G01*
X41175000Y15212499D01*
G75*
G02*
X40925001Y14962500I-249999J0D01*
G01*
X40074999Y14962500D01*
G75*
G02*
X39825000Y15212499I0J249999D01*
G01*
X39825000Y16287501D01*
G75*
G02*
X40074999Y16537500I249999J0D01*
G01*
G37*
%TD.AperFunction*%
%TD*%
%TO.P,C14,2*%
%TO.N,GND*%
%TA.AperFunction,SMDPad,CuDef*%
G36*
G01*
X29824999Y9850000D02*
X30675001Y9850000D01*
G75*
G02*
X30925000Y9600001I0J-249999D01*
G01*
X30925000Y8524999D01*
G75*
G02*
X30675001Y8275000I-249999J0D01*
G01*
X29824999Y8275000D01*
G75*
G02*
X29575000Y8524999I0J249999D01*
G01*
X29575000Y9600001D01*
G75*
G02*
X29824999Y9850000I249999J0D01*
G01*
G37*
%TD.AperFunction*%
%TO.P,C14,1*%
%TO.N,+VREF*%
%TA.AperFunction,SMDPad,CuDef*%
G36*
G01*
X29824999Y12725000D02*
X30675001Y12725000D01*
G75*
G02*
X30925000Y12475001I0J-249999D01*
G01*
X30925000Y11399999D01*
G75*
G02*
X30675001Y11150000I-249999J0D01*
G01*
X29824999Y11150000D01*
G75*
G02*
X29575000Y11399999I0J249999D01*
G01*
X29575000Y12475001D01*
G75*
G02*
X29824999Y12725000I249999J0D01*
G01*
G37*
%TD.AperFunction*%
%TD*%
%TO.P,C6,2*%
%TO.N,+VDD_3.3V*%
%TA.AperFunction,SMDPad,CuDef*%
G36*
G01*
X37525000Y7487500D02*
X37525000Y7012500D01*
G75*
G02*
X37287500Y6775000I-237500J0D01*
G01*
X36712500Y6775000D01*
G75*
G02*
X36475000Y7012500I0J237500D01*
G01*
X36475000Y7487500D01*
G75*
G02*
X36712500Y7725000I237500J0D01*
G01*
X37287500Y7725000D01*
G75*
G02*
X37525000Y7487500I0J-237500D01*
G01*
G37*
%TD.AperFunction*%
%TO.P,C6,1*%
%TO.N,GND*%
%TA.AperFunction,SMDPad,CuDef*%
G36*
G01*
X39275000Y7487500D02*
X39275000Y7012500D01*
G75*
G02*
X39037500Y6775000I-237500J0D01*
G01*
X38462500Y6775000D01*
G75*
G02*
X38225000Y7012500I0J237500D01*
G01*
X38225000Y7487500D01*
G75*
G02*
X38462500Y7725000I237500J0D01*
G01*
X39037500Y7725000D01*
G75*
G02*
X39275000Y7487500I0J-237500D01*
G01*
G37*
%TD.AperFunction*%
%TD*%
D12*
%TO.P,X2,7*%
%TO.N,/CS_N1*%
X46170000Y3650000D03*
D11*
%TO.P,X2,1*%
%TO.N,/CS_N0*%
X43630000Y3650000D03*
D10*
%TO.P,X2,8*%
%TO.N,Net-(X2-Pad8)*%
X46170000Y6190000D03*
%TO.P,X2,2*%
%TO.N,Net-(X2-Pad2)*%
X43630000Y6190000D03*
%TO.P,X2,9*%
%TO.N,/MISO1*%
X46170000Y8730000D03*
%TO.P,X2,3*%
%TO.N,/MISO0*%
X43630000Y8730000D03*
%TO.P,X2,10*%
%TO.N,/SCLK1*%
X46170000Y11270000D03*
%TO.P,X2,4*%
%TO.N,/SCLK0*%
X43630000Y11270000D03*
%TO.P,X2,11*%
%TO.N,GND*%
X46170000Y13810000D03*
%TO.P,X2,5*%
X43630000Y13810000D03*
%TO.P,X2,12*%
%TO.N,+VDD_3.3V*%
X46170000Y16350000D03*
%TO.P,X2,6*%
X43630000Y16350000D03*
%TD*%
D13*
%TO.P,X1,3*%
%TO.N,Net-(C9-Pad2)*%
X8800000Y12450000D03*
%TO.P,X1,2*%
%TO.N,Net-(C2-Pad2)*%
X3800000Y7550000D03*
%TO.P,X1,1*%
%TO.N,GND*%
X2000000Y12450000D03*
%TD*%
%TO.P,R10,2*%
%TO.N,Net-(C11-Pad1)*%
%TA.AperFunction,SMDPad,CuDef*%
G36*
G01*
X17512500Y12650000D02*
X17987500Y12650000D01*
G75*
G02*
X18225000Y12412500I0J-237500D01*
G01*
X18225000Y11837500D01*
G75*
G02*
X17987500Y11600000I-237500J0D01*
G01*
X17512500Y11600000D01*
G75*
G02*
X17275000Y11837500I0J237500D01*
G01*
X17275000Y12412500D01*
G75*
G02*
X17512500Y12650000I237500J0D01*
G01*
G37*
%TD.AperFunction*%
%TO.P,R10,1*%
%TO.N,GND*%
%TA.AperFunction,SMDPad,CuDef*%
G36*
G01*
X17512500Y14400000D02*
X17987500Y14400000D01*
G75*
G02*
X18225000Y14162500I0J-237500D01*
G01*
X18225000Y13587500D01*
G75*
G02*
X17987500Y13350000I-237500J0D01*
G01*
X17512500Y13350000D01*
G75*
G02*
X17275000Y13587500I0J237500D01*
G01*
X17275000Y14162500D01*
G75*
G02*
X17512500Y14400000I237500J0D01*
G01*
G37*
%TD.AperFunction*%
%TD*%
%TO.P,R9,2*%
%TO.N,Net-(C8-Pad1)*%
%TA.AperFunction,SMDPad,CuDef*%
G36*
G01*
X15100000Y18262500D02*
X15100000Y18737500D01*
G75*
G02*
X15337500Y18975000I237500J0D01*
G01*
X15912500Y18975000D01*
G75*
G02*
X16150000Y18737500I0J-237500D01*
G01*
X16150000Y18262500D01*
G75*
G02*
X15912500Y18025000I-237500J0D01*
G01*
X15337500Y18025000D01*
G75*
G02*
X15100000Y18262500I0J237500D01*
G01*
G37*
%TD.AperFunction*%
%TO.P,R9,1*%
%TO.N,Net-(C10-Pad2)*%
%TA.AperFunction,SMDPad,CuDef*%
G36*
G01*
X13350000Y18262500D02*
X13350000Y18737500D01*
G75*
G02*
X13587500Y18975000I237500J0D01*
G01*
X14162500Y18975000D01*
G75*
G02*
X14400000Y18737500I0J-237500D01*
G01*
X14400000Y18262500D01*
G75*
G02*
X14162500Y18025000I-237500J0D01*
G01*
X13587500Y18025000D01*
G75*
G02*
X13350000Y18262500I0J237500D01*
G01*
G37*
%TD.AperFunction*%
%TD*%
%TO.P,R8,2*%
%TO.N,Net-(C10-Pad2)*%
%TA.AperFunction,SMDPad,CuDef*%
G36*
G01*
X15100000Y11762500D02*
X15100000Y12237500D01*
G75*
G02*
X15337500Y12475000I237500J0D01*
G01*
X15912500Y12475000D01*
G75*
G02*
X16150000Y12237500I0J-237500D01*
G01*
X16150000Y11762500D01*
G75*
G02*
X15912500Y11525000I-237500J0D01*
G01*
X15337500Y11525000D01*
G75*
G02*
X15100000Y11762500I0J237500D01*
G01*
G37*
%TD.AperFunction*%
%TO.P,R8,1*%
%TO.N,Net-(C9-Pad1)*%
%TA.AperFunction,SMDPad,CuDef*%
G36*
G01*
X13350000Y11762500D02*
X13350000Y12237500D01*
G75*
G02*
X13587500Y12475000I237500J0D01*
G01*
X14162500Y12475000D01*
G75*
G02*
X14400000Y12237500I0J-237500D01*
G01*
X14400000Y11762500D01*
G75*
G02*
X14162500Y11525000I-237500J0D01*
G01*
X13587500Y11525000D01*
G75*
G02*
X13350000Y11762500I0J237500D01*
G01*
G37*
%TD.AperFunction*%
%TD*%
%TO.P,R7,2*%
%TO.N,+VREF*%
%TA.AperFunction,SMDPad,CuDef*%
G36*
G01*
X26012500Y12150000D02*
X26487500Y12150000D01*
G75*
G02*
X26725000Y11912500I0J-237500D01*
G01*
X26725000Y11337500D01*
G75*
G02*
X26487500Y11100000I-237500J0D01*
G01*
X26012500Y11100000D01*
G75*
G02*
X25775000Y11337500I0J237500D01*
G01*
X25775000Y11912500D01*
G75*
G02*
X26012500Y12150000I237500J0D01*
G01*
G37*
%TD.AperFunction*%
%TO.P,R7,1*%
%TO.N,Net-(C11-Pad1)*%
%TA.AperFunction,SMDPad,CuDef*%
G36*
G01*
X26012500Y13900000D02*
X26487500Y13900000D01*
G75*
G02*
X26725000Y13662500I0J-237500D01*
G01*
X26725000Y13087500D01*
G75*
G02*
X26487500Y12850000I-237500J0D01*
G01*
X26012500Y12850000D01*
G75*
G02*
X25775000Y13087500I0J237500D01*
G01*
X25775000Y13662500D01*
G75*
G02*
X26012500Y13900000I237500J0D01*
G01*
G37*
%TD.AperFunction*%
%TD*%
%TO.P,R6,2*%
%TO.N,Net-(C8-Pad2)*%
%TA.AperFunction,SMDPad,CuDef*%
G36*
G01*
X15100000Y16262500D02*
X15100000Y16737500D01*
G75*
G02*
X15337500Y16975000I237500J0D01*
G01*
X15912500Y16975000D01*
G75*
G02*
X16150000Y16737500I0J-237500D01*
G01*
X16150000Y16262500D01*
G75*
G02*
X15912500Y16025000I-237500J0D01*
G01*
X15337500Y16025000D01*
G75*
G02*
X15100000Y16262500I0J237500D01*
G01*
G37*
%TD.AperFunction*%
%TO.P,R6,1*%
%TO.N,Net-(C10-Pad2)*%
%TA.AperFunction,SMDPad,CuDef*%
G36*
G01*
X13350000Y16262500D02*
X13350000Y16737500D01*
G75*
G02*
X13587500Y16975000I237500J0D01*
G01*
X14162500Y16975000D01*
G75*
G02*
X14400000Y16737500I0J-237500D01*
G01*
X14400000Y16262500D01*
G75*
G02*
X14162500Y16025000I-237500J0D01*
G01*
X13587500Y16025000D01*
G75*
G02*
X13350000Y16262500I0J237500D01*
G01*
G37*
%TD.AperFunction*%
%TD*%
%TO.P,R5,2*%
%TO.N,Net-(C4-Pad1)*%
%TA.AperFunction,SMDPad,CuDef*%
G36*
G01*
X17512500Y2400000D02*
X17987500Y2400000D01*
G75*
G02*
X18225000Y2162500I0J-237500D01*
G01*
X18225000Y1587500D01*
G75*
G02*
X17987500Y1350000I-237500J0D01*
G01*
X17512500Y1350000D01*
G75*
G02*
X17275000Y1587500I0J237500D01*
G01*
X17275000Y2162500D01*
G75*
G02*
X17512500Y2400000I237500J0D01*
G01*
G37*
%TD.AperFunction*%
%TO.P,R5,1*%
%TO.N,GND*%
%TA.AperFunction,SMDPad,CuDef*%
G36*
G01*
X17512500Y4150000D02*
X17987500Y4150000D01*
G75*
G02*
X18225000Y3912500I0J-237500D01*
G01*
X18225000Y3337500D01*
G75*
G02*
X17987500Y3100000I-237500J0D01*
G01*
X17512500Y3100000D01*
G75*
G02*
X17275000Y3337500I0J237500D01*
G01*
X17275000Y3912500D01*
G75*
G02*
X17512500Y4150000I237500J0D01*
G01*
G37*
%TD.AperFunction*%
%TD*%
%TO.P,R4,2*%
%TO.N,Net-(C1-Pad1)*%
%TA.AperFunction,SMDPad,CuDef*%
G36*
G01*
X15100000Y8012500D02*
X15100000Y8487500D01*
G75*
G02*
X15337500Y8725000I237500J0D01*
G01*
X15912500Y8725000D01*
G75*
G02*
X16150000Y8487500I0J-237500D01*
G01*
X16150000Y8012500D01*
G75*
G02*
X15912500Y7775000I-237500J0D01*
G01*
X15337500Y7775000D01*
G75*
G02*
X15100000Y8012500I0J237500D01*
G01*
G37*
%TD.AperFunction*%
%TO.P,R4,1*%
%TO.N,Net-(C3-Pad2)*%
%TA.AperFunction,SMDPad,CuDef*%
G36*
G01*
X13350000Y8012500D02*
X13350000Y8487500D01*
G75*
G02*
X13587500Y8725000I237500J0D01*
G01*
X14162500Y8725000D01*
G75*
G02*
X14400000Y8487500I0J-237500D01*
G01*
X14400000Y8012500D01*
G75*
G02*
X14162500Y7775000I-237500J0D01*
G01*
X13587500Y7775000D01*
G75*
G02*
X13350000Y8012500I0J237500D01*
G01*
G37*
%TD.AperFunction*%
%TD*%
%TO.P,R3,2*%
%TO.N,Net-(C3-Pad2)*%
%TA.AperFunction,SMDPad,CuDef*%
G36*
G01*
X15100000Y1512500D02*
X15100000Y1987500D01*
G75*
G02*
X15337500Y2225000I237500J0D01*
G01*
X15912500Y2225000D01*
G75*
G02*
X16150000Y1987500I0J-237500D01*
G01*
X16150000Y1512500D01*
G75*
G02*
X15912500Y1275000I-237500J0D01*
G01*
X15337500Y1275000D01*
G75*
G02*
X15100000Y1512500I0J237500D01*
G01*
G37*
%TD.AperFunction*%
%TO.P,R3,1*%
%TO.N,Net-(C2-Pad1)*%
%TA.AperFunction,SMDPad,CuDef*%
G36*
G01*
X13350000Y1512500D02*
X13350000Y1987500D01*
G75*
G02*
X13587500Y2225000I237500J0D01*
G01*
X14162500Y2225000D01*
G75*
G02*
X14400000Y1987500I0J-237500D01*
G01*
X14400000Y1512500D01*
G75*
G02*
X14162500Y1275000I-237500J0D01*
G01*
X13587500Y1275000D01*
G75*
G02*
X13350000Y1512500I0J237500D01*
G01*
G37*
%TD.AperFunction*%
%TD*%
%TO.P,R2,2*%
%TO.N,+VREF*%
%TA.AperFunction,SMDPad,CuDef*%
G36*
G01*
X26487500Y3850000D02*
X26012500Y3850000D01*
G75*
G02*
X25775000Y4087500I0J237500D01*
G01*
X25775000Y4662500D01*
G75*
G02*
X26012500Y4900000I237500J0D01*
G01*
X26487500Y4900000D01*
G75*
G02*
X26725000Y4662500I0J-237500D01*
G01*
X26725000Y4087500D01*
G75*
G02*
X26487500Y3850000I-237500J0D01*
G01*
G37*
%TD.AperFunction*%
%TO.P,R2,1*%
%TO.N,Net-(C4-Pad1)*%
%TA.AperFunction,SMDPad,CuDef*%
G36*
G01*
X26487500Y2100000D02*
X26012500Y2100000D01*
G75*
G02*
X25775000Y2337500I0J237500D01*
G01*
X25775000Y2912500D01*
G75*
G02*
X26012500Y3150000I237500J0D01*
G01*
X26487500Y3150000D01*
G75*
G02*
X26725000Y2912500I0J-237500D01*
G01*
X26725000Y2337500D01*
G75*
G02*
X26487500Y2100000I-237500J0D01*
G01*
G37*
%TD.AperFunction*%
%TD*%
%TO.P,R1,2*%
%TO.N,Net-(C1-Pad2)*%
%TA.AperFunction,SMDPad,CuDef*%
G36*
G01*
X15100000Y6012500D02*
X15100000Y6487500D01*
G75*
G02*
X15337500Y6725000I237500J0D01*
G01*
X15912500Y6725000D01*
G75*
G02*
X16150000Y6487500I0J-237500D01*
G01*
X16150000Y6012500D01*
G75*
G02*
X15912500Y5775000I-237500J0D01*
G01*
X15337500Y5775000D01*
G75*
G02*
X15100000Y6012500I0J237500D01*
G01*
G37*
%TD.AperFunction*%
%TO.P,R1,1*%
%TO.N,Net-(C3-Pad2)*%
%TA.AperFunction,SMDPad,CuDef*%
G36*
G01*
X13350000Y6012500D02*
X13350000Y6487500D01*
G75*
G02*
X13587500Y6725000I237500J0D01*
G01*
X14162500Y6725000D01*
G75*
G02*
X14400000Y6487500I0J-237500D01*
G01*
X14400000Y6012500D01*
G75*
G02*
X14162500Y5775000I-237500J0D01*
G01*
X13587500Y5775000D01*
G75*
G02*
X13350000Y6012500I0J237500D01*
G01*
G37*
%TD.AperFunction*%
%TD*%
D14*
%TO.P,D5,3*%
%TO.N,GND*%
X34000000Y8500000D03*
%TO.P,D5,2*%
%TO.N,+VREF*%
X33050000Y11500000D03*
%TO.P,D5,1*%
%TO.N,+VDD_3.3V*%
X34950000Y11500000D03*
%TD*%
%TO.P,D4,8*%
%TO.N,+VDD_3.3V*%
%TA.AperFunction,SMDPad,CuDef*%
G36*
G01*
X34800000Y17742500D02*
X34800000Y18067500D01*
G75*
G02*
X34962500Y18230000I162500J0D01*
G01*
X36612500Y18230000D01*
G75*
G02*
X36775000Y18067500I0J-162500D01*
G01*
X36775000Y17742500D01*
G75*
G02*
X36612500Y17580000I-162500J0D01*
G01*
X34962500Y17580000D01*
G75*
G02*
X34800000Y17742500I0J162500D01*
G01*
G37*
%TD.AperFunction*%
%TO.P,D4,7*%
%TO.N,/SCLK1*%
%TA.AperFunction,SMDPad,CuDef*%
G36*
G01*
X34800000Y16472500D02*
X34800000Y16797500D01*
G75*
G02*
X34962500Y16960000I162500J0D01*
G01*
X36612500Y16960000D01*
G75*
G02*
X36775000Y16797500I0J-162500D01*
G01*
X36775000Y16472500D01*
G75*
G02*
X36612500Y16310000I-162500J0D01*
G01*
X34962500Y16310000D01*
G75*
G02*
X34800000Y16472500I0J162500D01*
G01*
G37*
%TD.AperFunction*%
%TO.P,D4,6*%
%TO.N,/MISO1*%
%TA.AperFunction,SMDPad,CuDef*%
G36*
G01*
X34800000Y15202500D02*
X34800000Y15527500D01*
G75*
G02*
X34962500Y15690000I162500J0D01*
G01*
X36612500Y15690000D01*
G75*
G02*
X36775000Y15527500I0J-162500D01*
G01*
X36775000Y15202500D01*
G75*
G02*
X36612500Y15040000I-162500J0D01*
G01*
X34962500Y15040000D01*
G75*
G02*
X34800000Y15202500I0J162500D01*
G01*
G37*
%TD.AperFunction*%
%TO.P,D4,5*%
%TO.N,/CS_N1*%
%TA.AperFunction,SMDPad,CuDef*%
G36*
G01*
X34800000Y13932500D02*
X34800000Y14257500D01*
G75*
G02*
X34962500Y14420000I162500J0D01*
G01*
X36612500Y14420000D01*
G75*
G02*
X36775000Y14257500I0J-162500D01*
G01*
X36775000Y13932500D01*
G75*
G02*
X36612500Y13770000I-162500J0D01*
G01*
X34962500Y13770000D01*
G75*
G02*
X34800000Y13932500I0J162500D01*
G01*
G37*
%TD.AperFunction*%
%TO.P,D4,4*%
%TO.N,GND*%
%TA.AperFunction,SMDPad,CuDef*%
G36*
G01*
X29725000Y13932500D02*
X29725000Y14257500D01*
G75*
G02*
X29887500Y14420000I162500J0D01*
G01*
X31537500Y14420000D01*
G75*
G02*
X31700000Y14257500I0J-162500D01*
G01*
X31700000Y13932500D01*
G75*
G02*
X31537500Y13770000I-162500J0D01*
G01*
X29887500Y13770000D01*
G75*
G02*
X29725000Y13932500I0J162500D01*
G01*
G37*
%TD.AperFunction*%
%TO.P,D4,3*%
%TA.AperFunction,SMDPad,CuDef*%
G36*
G01*
X29725000Y15202500D02*
X29725000Y15527500D01*
G75*
G02*
X29887500Y15690000I162500J0D01*
G01*
X31537500Y15690000D01*
G75*
G02*
X31700000Y15527500I0J-162500D01*
G01*
X31700000Y15202500D01*
G75*
G02*
X31537500Y15040000I-162500J0D01*
G01*
X29887500Y15040000D01*
G75*
G02*
X29725000Y15202500I0J162500D01*
G01*
G37*
%TD.AperFunction*%
%TO.P,D4,2*%
%TO.N,Net-(C8-Pad2)*%
%TA.AperFunction,SMDPad,CuDef*%
G36*
G01*
X29725000Y16472500D02*
X29725000Y16797500D01*
G75*
G02*
X29887500Y16960000I162500J0D01*
G01*
X31537500Y16960000D01*
G75*
G02*
X31700000Y16797500I0J-162500D01*
G01*
X31700000Y16472500D01*
G75*
G02*
X31537500Y16310000I-162500J0D01*
G01*
X29887500Y16310000D01*
G75*
G02*
X29725000Y16472500I0J162500D01*
G01*
G37*
%TD.AperFunction*%
%TO.P,D4,1*%
%TO.N,+VREF*%
%TA.AperFunction,SMDPad,CuDef*%
G36*
G01*
X29725000Y17742500D02*
X29725000Y18067500D01*
G75*
G02*
X29887500Y18230000I162500J0D01*
G01*
X31537500Y18230000D01*
G75*
G02*
X31700000Y18067500I0J-162500D01*
G01*
X31700000Y17742500D01*
G75*
G02*
X31537500Y17580000I-162500J0D01*
G01*
X29887500Y17580000D01*
G75*
G02*
X29725000Y17742500I0J162500D01*
G01*
G37*
%TD.AperFunction*%
%TD*%
D15*
%TO.P,D3,5*%
%TO.N,+VREF*%
X23600000Y17700000D03*
%TO.P,D3,4*%
%TO.N,Net-(C8-Pad1)*%
X23600000Y15800000D03*
%TO.P,D3,3*%
%TO.N,Net-(C11-Pad1)*%
X20900000Y15800000D03*
%TO.P,D3,2*%
%TO.N,GND*%
X20900000Y16750000D03*
%TO.P,D3,1*%
%TO.N,Net-(C8-Pad2)*%
X20900000Y17700000D03*
%TD*%
%TO.P,D2,8*%
%TO.N,+VDD_3.3V*%
%TA.AperFunction,SMDPad,CuDef*%
G36*
G01*
X34800000Y5242500D02*
X34800000Y5567500D01*
G75*
G02*
X34962500Y5730000I162500J0D01*
G01*
X36612500Y5730000D01*
G75*
G02*
X36775000Y5567500I0J-162500D01*
G01*
X36775000Y5242500D01*
G75*
G02*
X36612500Y5080000I-162500J0D01*
G01*
X34962500Y5080000D01*
G75*
G02*
X34800000Y5242500I0J162500D01*
G01*
G37*
%TD.AperFunction*%
%TO.P,D2,7*%
%TO.N,/SCLK0*%
%TA.AperFunction,SMDPad,CuDef*%
G36*
G01*
X34800000Y3972500D02*
X34800000Y4297500D01*
G75*
G02*
X34962500Y4460000I162500J0D01*
G01*
X36612500Y4460000D01*
G75*
G02*
X36775000Y4297500I0J-162500D01*
G01*
X36775000Y3972500D01*
G75*
G02*
X36612500Y3810000I-162500J0D01*
G01*
X34962500Y3810000D01*
G75*
G02*
X34800000Y3972500I0J162500D01*
G01*
G37*
%TD.AperFunction*%
%TO.P,D2,6*%
%TO.N,/MISO0*%
%TA.AperFunction,SMDPad,CuDef*%
G36*
G01*
X34800000Y2702500D02*
X34800000Y3027500D01*
G75*
G02*
X34962500Y3190000I162500J0D01*
G01*
X36612500Y3190000D01*
G75*
G02*
X36775000Y3027500I0J-162500D01*
G01*
X36775000Y2702500D01*
G75*
G02*
X36612500Y2540000I-162500J0D01*
G01*
X34962500Y2540000D01*
G75*
G02*
X34800000Y2702500I0J162500D01*
G01*
G37*
%TD.AperFunction*%
%TO.P,D2,5*%
%TO.N,/CS_N0*%
%TA.AperFunction,SMDPad,CuDef*%
G36*
G01*
X34800000Y1432500D02*
X34800000Y1757500D01*
G75*
G02*
X34962500Y1920000I162500J0D01*
G01*
X36612500Y1920000D01*
G75*
G02*
X36775000Y1757500I0J-162500D01*
G01*
X36775000Y1432500D01*
G75*
G02*
X36612500Y1270000I-162500J0D01*
G01*
X34962500Y1270000D01*
G75*
G02*
X34800000Y1432500I0J162500D01*
G01*
G37*
%TD.AperFunction*%
%TO.P,D2,4*%
%TO.N,GND*%
%TA.AperFunction,SMDPad,CuDef*%
G36*
G01*
X29725000Y1432500D02*
X29725000Y1757500D01*
G75*
G02*
X29887500Y1920000I162500J0D01*
G01*
X31537500Y1920000D01*
G75*
G02*
X31700000Y1757500I0J-162500D01*
G01*
X31700000Y1432500D01*
G75*
G02*
X31537500Y1270000I-162500J0D01*
G01*
X29887500Y1270000D01*
G75*
G02*
X29725000Y1432500I0J162500D01*
G01*
G37*
%TD.AperFunction*%
%TO.P,D2,3*%
%TA.AperFunction,SMDPad,CuDef*%
G36*
G01*
X29725000Y2702500D02*
X29725000Y3027500D01*
G75*
G02*
X29887500Y3190000I162500J0D01*
G01*
X31537500Y3190000D01*
G75*
G02*
X31700000Y3027500I0J-162500D01*
G01*
X31700000Y2702500D01*
G75*
G02*
X31537500Y2540000I-162500J0D01*
G01*
X29887500Y2540000D01*
G75*
G02*
X29725000Y2702500I0J162500D01*
G01*
G37*
%TD.AperFunction*%
%TO.P,D2,2*%
%TO.N,Net-(C1-Pad2)*%
%TA.AperFunction,SMDPad,CuDef*%
G36*
G01*
X29725000Y3972500D02*
X29725000Y4297500D01*
G75*
G02*
X29887500Y4460000I162500J0D01*
G01*
X31537500Y4460000D01*
G75*
G02*
X31700000Y4297500I0J-162500D01*
G01*
X31700000Y3972500D01*
G75*
G02*
X31537500Y3810000I-162500J0D01*
G01*
X29887500Y3810000D01*
G75*
G02*
X29725000Y3972500I0J162500D01*
G01*
G37*
%TD.AperFunction*%
%TO.P,D2,1*%
%TO.N,+VREF*%
%TA.AperFunction,SMDPad,CuDef*%
G36*
G01*
X29725000Y5242500D02*
X29725000Y5567500D01*
G75*
G02*
X29887500Y5730000I162500J0D01*
G01*
X31537500Y5730000D01*
G75*
G02*
X31700000Y5567500I0J-162500D01*
G01*
X31700000Y5242500D01*
G75*
G02*
X31537500Y5080000I-162500J0D01*
G01*
X29887500Y5080000D01*
G75*
G02*
X29725000Y5242500I0J162500D01*
G01*
G37*
%TD.AperFunction*%
%TD*%
%TO.P,D1,5*%
%TO.N,+VREF*%
X23600000Y7200000D03*
%TO.P,D1,4*%
%TO.N,Net-(C1-Pad1)*%
X23600000Y5300000D03*
%TO.P,D1,3*%
%TO.N,Net-(C4-Pad1)*%
X20900000Y5300000D03*
%TO.P,D1,2*%
%TO.N,GND*%
X20900000Y6250000D03*
%TO.P,D1,1*%
%TO.N,Net-(C1-Pad2)*%
X20900000Y7200000D03*
%TD*%
%TO.P,C13,2*%
%TO.N,+VDD_3.3V*%
%TA.AperFunction,SMDPad,CuDef*%
G36*
G01*
X39400000Y18487500D02*
X39400000Y18012500D01*
G75*
G02*
X39162500Y17775000I-237500J0D01*
G01*
X38587500Y17775000D01*
G75*
G02*
X38350000Y18012500I0J237500D01*
G01*
X38350000Y18487500D01*
G75*
G02*
X38587500Y18725000I237500J0D01*
G01*
X39162500Y18725000D01*
G75*
G02*
X39400000Y18487500I0J-237500D01*
G01*
G37*
%TD.AperFunction*%
%TO.P,C13,1*%
%TO.N,GND*%
%TA.AperFunction,SMDPad,CuDef*%
G36*
G01*
X41150000Y18487500D02*
X41150000Y18012500D01*
G75*
G02*
X40912500Y17775000I-237500J0D01*
G01*
X40337500Y17775000D01*
G75*
G02*
X40100000Y18012500I0J237500D01*
G01*
X40100000Y18487500D01*
G75*
G02*
X40337500Y18725000I237500J0D01*
G01*
X40912500Y18725000D01*
G75*
G02*
X41150000Y18487500I0J-237500D01*
G01*
G37*
%TD.AperFunction*%
%TD*%
%TO.P,C5,2*%
%TO.N,+VREF*%
%TA.AperFunction,SMDPad,CuDef*%
G36*
G01*
X26012500Y6900000D02*
X26487500Y6900000D01*
G75*
G02*
X26725000Y6662500I0J-237500D01*
G01*
X26725000Y6087500D01*
G75*
G02*
X26487500Y5850000I-237500J0D01*
G01*
X26012500Y5850000D01*
G75*
G02*
X25775000Y6087500I0J237500D01*
G01*
X25775000Y6662500D01*
G75*
G02*
X26012500Y6900000I237500J0D01*
G01*
G37*
%TD.AperFunction*%
%TO.P,C5,1*%
%TO.N,GND*%
%TA.AperFunction,SMDPad,CuDef*%
G36*
G01*
X26012500Y8650000D02*
X26487500Y8650000D01*
G75*
G02*
X26725000Y8412500I0J-237500D01*
G01*
X26725000Y7837500D01*
G75*
G02*
X26487500Y7600000I-237500J0D01*
G01*
X26012500Y7600000D01*
G75*
G02*
X25775000Y7837500I0J237500D01*
G01*
X25775000Y8412500D01*
G75*
G02*
X26012500Y8650000I237500J0D01*
G01*
G37*
%TD.AperFunction*%
%TD*%
%TO.P,C4,2*%
%TO.N,GND*%
%TA.AperFunction,SMDPad,CuDef*%
G36*
G01*
X22900000Y1574999D02*
X22900000Y2425001D01*
G75*
G02*
X23149999Y2675000I249999J0D01*
G01*
X24225001Y2675000D01*
G75*
G02*
X24475000Y2425001I0J-249999D01*
G01*
X24475000Y1574999D01*
G75*
G02*
X24225001Y1325000I-249999J0D01*
G01*
X23149999Y1325000D01*
G75*
G02*
X22900000Y1574999I0J249999D01*
G01*
G37*
%TD.AperFunction*%
%TO.P,C4,1*%
%TO.N,Net-(C4-Pad1)*%
%TA.AperFunction,SMDPad,CuDef*%
G36*
G01*
X20025000Y1574999D02*
X20025000Y2425001D01*
G75*
G02*
X20274999Y2675000I249999J0D01*
G01*
X21350001Y2675000D01*
G75*
G02*
X21600000Y2425001I0J-249999D01*
G01*
X21600000Y1574999D01*
G75*
G02*
X21350001Y1325000I-249999J0D01*
G01*
X20274999Y1325000D01*
G75*
G02*
X20025000Y1574999I0J249999D01*
G01*
G37*
%TD.AperFunction*%
%TD*%
%TO.P,C3,2*%
%TO.N,Net-(C3-Pad2)*%
%TA.AperFunction,SMDPad,CuDef*%
G36*
G01*
X14400000Y3987500D02*
X14400000Y3512500D01*
G75*
G02*
X14162500Y3275000I-237500J0D01*
G01*
X13587500Y3275000D01*
G75*
G02*
X13350000Y3512500I0J237500D01*
G01*
X13350000Y3987500D01*
G75*
G02*
X13587500Y4225000I237500J0D01*
G01*
X14162500Y4225000D01*
G75*
G02*
X14400000Y3987500I0J-237500D01*
G01*
G37*
%TD.AperFunction*%
%TO.P,C3,1*%
%TO.N,GND*%
%TA.AperFunction,SMDPad,CuDef*%
G36*
G01*
X16150000Y3987500D02*
X16150000Y3512500D01*
G75*
G02*
X15912500Y3275000I-237500J0D01*
G01*
X15337500Y3275000D01*
G75*
G02*
X15100000Y3512500I0J237500D01*
G01*
X15100000Y3987500D01*
G75*
G02*
X15337500Y4225000I237500J0D01*
G01*
X15912500Y4225000D01*
G75*
G02*
X16150000Y3987500I0J-237500D01*
G01*
G37*
%TD.AperFunction*%
%TD*%
%TO.P,C2,2*%
%TO.N,Net-(C2-Pad2)*%
%TA.AperFunction,SMDPad,CuDef*%
G36*
G01*
X9350000Y4425001D02*
X9350000Y3574999D01*
G75*
G02*
X9100001Y3325000I-249999J0D01*
G01*
X8024999Y3325000D01*
G75*
G02*
X7775000Y3574999I0J249999D01*
G01*
X7775000Y4425001D01*
G75*
G02*
X8024999Y4675000I249999J0D01*
G01*
X9100001Y4675000D01*
G75*
G02*
X9350000Y4425001I0J-249999D01*
G01*
G37*
%TD.AperFunction*%
%TO.P,C2,1*%
%TO.N,Net-(C2-Pad1)*%
%TA.AperFunction,SMDPad,CuDef*%
G36*
G01*
X12225000Y4425001D02*
X12225000Y3574999D01*
G75*
G02*
X11975001Y3325000I-249999J0D01*
G01*
X10899999Y3325000D01*
G75*
G02*
X10650000Y3574999I0J249999D01*
G01*
X10650000Y4425001D01*
G75*
G02*
X10899999Y4675000I249999J0D01*
G01*
X11975001Y4675000D01*
G75*
G02*
X12225000Y4425001I0J-249999D01*
G01*
G37*
%TD.AperFunction*%
%TD*%
%TO.P,C1,2*%
%TO.N,Net-(C1-Pad2)*%
%TA.AperFunction,SMDPad,CuDef*%
G36*
G01*
X17512500Y6900000D02*
X17987500Y6900000D01*
G75*
G02*
X18225000Y6662500I0J-237500D01*
G01*
X18225000Y6087500D01*
G75*
G02*
X17987500Y5850000I-237500J0D01*
G01*
X17512500Y5850000D01*
G75*
G02*
X17275000Y6087500I0J237500D01*
G01*
X17275000Y6662500D01*
G75*
G02*
X17512500Y6900000I237500J0D01*
G01*
G37*
%TD.AperFunction*%
%TO.P,C1,1*%
%TO.N,Net-(C1-Pad1)*%
%TA.AperFunction,SMDPad,CuDef*%
G36*
G01*
X17512500Y8650000D02*
X17987500Y8650000D01*
G75*
G02*
X18225000Y8412500I0J-237500D01*
G01*
X18225000Y7837500D01*
G75*
G02*
X17987500Y7600000I-237500J0D01*
G01*
X17512500Y7600000D01*
G75*
G02*
X17275000Y7837500I0J237500D01*
G01*
X17275000Y8412500D01*
G75*
G02*
X17512500Y8650000I237500J0D01*
G01*
G37*
%TD.AperFunction*%
%TD*%
D16*
%TO.N,GND*%
X41350000Y1200000D03*
%TO.N,Net-(C1-Pad2)*%
X25670000Y1190000D03*
X19170000Y2470000D03*
%TO.N,GND*%
X11700000Y18650000D03*
X11700000Y8400000D03*
X11700000Y11600000D03*
X38750000Y8450000D03*
X30250000Y7500000D03*
X35250000Y8500000D03*
X29095000Y14095000D03*
X19450000Y6250000D03*
X19450000Y16750000D03*
X26250000Y14750000D03*
X26250000Y9300000D03*
X29050000Y1600000D03*
X23700000Y3375000D03*
X17750000Y4800000D03*
X17750000Y15050000D03*
X23700000Y13640000D03*
X41799998Y18250000D03*
%TO.N,/SCLK1*%
X37775000Y16675000D03*
%TO.N,/MISO1*%
X37775000Y15350000D03*
%TO.N,/CS_N1*%
X37775000Y14100000D03*
%TO.N,Net-(C8-Pad2)*%
X19460000Y18070000D03*
X32740000Y18560000D03*
%TD*%
D17*
%TO.N,Net-(C1-Pad2)*%
X30712500Y4135000D02*
X28905000Y4135000D01*
X28905000Y4135000D02*
X27680000Y2910000D01*
X27680000Y2910000D02*
X27680000Y1770000D01*
X27100000Y1190000D02*
X25670000Y1190000D01*
X27680000Y1770000D02*
X27100000Y1190000D01*
X19170000Y4955000D02*
X17750000Y6375000D01*
X19170000Y2470000D02*
X19170000Y4955000D01*
X18575000Y7200000D02*
X17750000Y6375000D01*
X20900000Y7200000D02*
X18575000Y7200000D01*
X15750000Y6375000D02*
X15625000Y6250000D01*
X17750000Y6375000D02*
X15750000Y6375000D01*
%TO.N,Net-(C1-Pad1)*%
X17775000Y8150000D02*
X17750000Y8125000D01*
X22260000Y7900000D02*
X22010000Y8150000D01*
X22010000Y8150000D02*
X17775000Y8150000D01*
X22260000Y5700000D02*
X22260000Y7900000D01*
X22660000Y5300000D02*
X22260000Y5700000D01*
X23600000Y5300000D02*
X22660000Y5300000D01*
X15750000Y8125000D02*
X15625000Y8250000D01*
X17750000Y8125000D02*
X15750000Y8125000D01*
D18*
%TO.N,Net-(C2-Pad2)*%
X6800000Y2250000D02*
X4750000Y2250000D01*
X8550000Y4000000D02*
X6800000Y2250000D01*
X8562500Y4000000D02*
X8550000Y4000000D01*
X4750000Y6550000D02*
X4750000Y2250000D01*
X3800000Y7500000D02*
X4750000Y6550000D01*
X3800000Y7550000D02*
X3800000Y7500000D01*
D19*
%TO.N,Net-(C2-Pad1)*%
X11600000Y4000000D02*
X11437500Y4000000D01*
X13850000Y1750000D02*
X11600000Y4000000D01*
X13875000Y1750000D02*
X13850000Y1750000D01*
D17*
%TO.N,Net-(C3-Pad2)*%
X15625000Y2000000D02*
X13875000Y3750000D01*
X15625000Y1750000D02*
X15625000Y2000000D01*
X13875000Y3750000D02*
X13875000Y6250000D01*
X13875000Y6250000D02*
X13875000Y8250000D01*
D18*
%TO.N,GND*%
X43630000Y13810000D02*
X46170000Y13810000D01*
X41775000Y12875000D02*
X43630000Y13810000D01*
X40500000Y12875000D02*
X41775000Y12875000D01*
D20*
X38750000Y7250000D02*
X38750000Y8450000D01*
X30250000Y9062500D02*
X30250000Y7500000D01*
X30250000Y9062500D02*
X31937500Y9062500D01*
X32500000Y8500000D02*
X34000000Y8500000D01*
X31937500Y9062500D02*
X32500000Y8500000D01*
X34000000Y8500000D02*
X35250000Y8500000D01*
D19*
X30712500Y15365000D02*
X30712500Y14095000D01*
X30712500Y14095000D02*
X29095000Y14095000D01*
X20900000Y6250000D02*
X19450000Y6250000D01*
X20900000Y16750000D02*
X19450000Y16750000D01*
D20*
X26250000Y15950000D02*
X26250000Y14750000D01*
X26250000Y8125000D02*
X26250000Y9300000D01*
D19*
X30712500Y1595000D02*
X30712500Y2865000D01*
X29055000Y1595000D02*
X29050000Y1600000D01*
X30712500Y1595000D02*
X29055000Y1595000D01*
D20*
X23687500Y3362500D02*
X23700000Y3375000D01*
X23687500Y2000000D02*
X23687500Y3362500D01*
X17750000Y3625000D02*
X17750000Y4800000D01*
X17750000Y13875000D02*
X17750000Y15050000D01*
X23687500Y13627500D02*
X23700000Y13640000D01*
X23687500Y12250000D02*
X23687500Y13627500D01*
X17625000Y14000000D02*
X17750000Y13875000D01*
X15625000Y14000000D02*
X17625000Y14000000D01*
X17625000Y3750000D02*
X17750000Y3625000D01*
X15625000Y3750000D02*
X17625000Y3750000D01*
X41799998Y18250000D02*
X41800000Y18249998D01*
X40625000Y18250000D02*
X41799998Y18250000D01*
%TO.N,+VREF*%
X30250000Y11937500D02*
X31312500Y11937500D01*
X31750000Y11500000D02*
X33050000Y11500000D01*
X31312500Y11937500D02*
X31750000Y11500000D01*
D18*
%TO.N,+VDD_3.3V*%
X43630000Y16350000D02*
X46170000Y16350000D01*
X42050000Y15750000D02*
X43630000Y16350000D01*
X40500000Y15750000D02*
X42050000Y15750000D01*
D19*
X38780000Y18155000D02*
X38875000Y18250000D01*
D18*
%TO.N,Net-(C9-Pad2)*%
X8750000Y12500000D02*
X8800000Y12450000D01*
X8750000Y15812500D02*
X8750000Y12500000D01*
X8562500Y16000000D02*
X8750000Y15812500D01*
X6500000Y16000000D02*
X8562500Y16000000D01*
X4750000Y17750000D02*
X6500000Y16000000D01*
D19*
%TO.N,Net-(C9-Pad1)*%
X11437500Y14412500D02*
X13850000Y12000000D01*
X13850000Y12000000D02*
X13875000Y12000000D01*
X11437500Y16000000D02*
X11437500Y14412500D01*
D17*
%TO.N,Net-(C10-Pad2)*%
X15625000Y12250000D02*
X13875000Y14000000D01*
X15625000Y12000000D02*
X15625000Y12250000D01*
X13875000Y16500000D02*
X13875000Y14000000D01*
X13875000Y16500000D02*
X13875000Y18500000D01*
%TO.N,/SCLK0*%
X40380000Y8020000D02*
X43630000Y11270000D01*
X40380000Y6130000D02*
X40380000Y8020000D01*
X38385000Y4135000D02*
X40380000Y6130000D01*
X35787500Y4135000D02*
X38385000Y4135000D01*
%TO.N,/MISO0*%
X41430000Y6530000D02*
X43630000Y8730000D01*
X41430000Y5590000D02*
X41430000Y6530000D01*
X38705000Y2865000D02*
X41430000Y5590000D01*
X35787500Y2865000D02*
X38705000Y2865000D01*
%TO.N,/CS_N0*%
X41000000Y3650000D02*
X43630000Y3650000D01*
X38945000Y1595000D02*
X41000000Y3650000D01*
X35787500Y1595000D02*
X38945000Y1595000D01*
D21*
%TO.N,/SCLK1*%
X37735000Y16635000D02*
X37775000Y16675000D01*
X35787500Y16635000D02*
X37735000Y16635000D01*
%TO.N,/MISO1*%
X37760000Y15365000D02*
X37775000Y15350000D01*
X35787500Y15365000D02*
X37760000Y15365000D01*
%TO.N,/CS_N1*%
X37770000Y14095000D02*
X37775000Y14100000D01*
X35787500Y14095000D02*
X37770000Y14095000D01*
D17*
%TO.N,Net-(C8-Pad2)*%
X19830000Y17700000D02*
X19460000Y18070000D01*
X20900000Y17700000D02*
X19830000Y17700000D01*
X19310000Y18070000D02*
X19460000Y18070000D01*
X17865000Y16625000D02*
X19310000Y18070000D01*
X17750000Y16625000D02*
X17865000Y16625000D01*
X30712500Y16635000D02*
X32265000Y16635000D01*
X32740000Y17110000D02*
X32740000Y18560000D01*
X32265000Y16635000D02*
X32740000Y17110000D01*
X15750000Y16625000D02*
X15625000Y16500000D01*
X17750000Y16625000D02*
X15750000Y16625000D01*
%TO.N,Net-(C8-Pad1)*%
X22530000Y15800000D02*
X23600000Y15800000D01*
X22280000Y16050000D02*
X22530000Y15800000D01*
X22280000Y18290000D02*
X22280000Y16050000D01*
X21640000Y18930000D02*
X22280000Y18290000D01*
X18305000Y18930000D02*
X21640000Y18930000D01*
X17750000Y18375000D02*
X18305000Y18930000D01*
X15750000Y18375000D02*
X15625000Y18500000D01*
X17750000Y18375000D02*
X15750000Y18375000D01*
%TO.N,Net-(C4-Pad1)*%
X20812500Y5212500D02*
X20900000Y5300000D01*
X20812500Y4262500D02*
X20812500Y5212500D01*
X20812500Y2000000D02*
X20812500Y4262500D01*
X24587500Y4262500D02*
X20812500Y4262500D01*
X26225000Y2625000D02*
X24587500Y4262500D01*
X26250000Y2625000D02*
X26225000Y2625000D01*
X20452500Y1640000D02*
X20812500Y2000000D01*
X17985000Y1640000D02*
X20452500Y1640000D01*
X17750000Y1875000D02*
X17985000Y1640000D01*
%TO.N,Net-(C11-Pad1)*%
X20900000Y12337500D02*
X20812500Y12250000D01*
X20900000Y14480000D02*
X20900000Y12337500D01*
X20900000Y15800000D02*
X20900000Y14480000D01*
X20687500Y12125000D02*
X20812500Y12250000D01*
X17750000Y12125000D02*
X20687500Y12125000D01*
X21020000Y14600000D02*
X20900000Y14480000D01*
X24300000Y14600000D02*
X21020000Y14600000D01*
X25525000Y13375000D02*
X24300000Y14600000D01*
X26250000Y13375000D02*
X25525000Y13375000D01*
%TD*%
D21*
%TO.N,+VREF*%
X29540728Y18217978D02*
X29822461Y18097235D01*
X29846568Y18089681D01*
X29905656Y18077553D01*
X29930789Y18075000D01*
X30983543Y18075000D01*
X31010297Y18067831D01*
X31017831Y18060297D01*
X31025000Y18033543D01*
X31025000Y17766457D01*
X31017831Y17739703D01*
X31010297Y17732169D01*
X30983543Y17725000D01*
X29956096Y17725000D01*
X29931710Y17722598D01*
X29912311Y17717081D01*
X29813884Y17680272D01*
X29791884Y17669480D01*
X29775647Y17657517D01*
X28690417Y16713838D01*
X28673640Y16696087D01*
X28637903Y16649978D01*
X28624899Y16629305D01*
X28397180Y16173869D01*
X28390749Y16158534D01*
X28377826Y16120869D01*
X28373487Y16104816D01*
X28230340Y15389078D01*
X28228521Y15376882D01*
X28225608Y15347465D01*
X28225000Y15335147D01*
X28225000Y13774342D01*
X28226614Y13754318D01*
X28234312Y13706883D01*
X28239113Y13687379D01*
X28369729Y13295531D01*
X28382628Y13268310D01*
X28420950Y13207633D01*
X28439986Y13184289D01*
X28733445Y12902044D01*
X28749601Y12888911D01*
X28790722Y12860829D01*
X28808834Y12850560D01*
X29567705Y12500311D01*
X29593272Y12491716D01*
X29656131Y12477910D01*
X29682946Y12475000D01*
X30483543Y12475000D01*
X30510297Y12467831D01*
X30517831Y12460297D01*
X30525000Y12433543D01*
X30525000Y11416457D01*
X30517831Y11389703D01*
X30510297Y11382169D01*
X30483543Y11375000D01*
X29697283Y11375000D01*
X29672897Y11372598D01*
X29659703Y11369217D01*
X29573684Y11342102D01*
X29551148Y11332480D01*
X29539581Y11325289D01*
X29111512Y11025640D01*
X29087288Y11003404D01*
X29037113Y10943378D01*
X29019525Y10915592D01*
X28750311Y10332295D01*
X28741716Y10306728D01*
X28727910Y10243869D01*
X28725000Y10217054D01*
X28725000Y7463134D01*
X28725476Y7452233D01*
X28727758Y7426165D01*
X28729184Y7415343D01*
X28872529Y6603058D01*
X28877820Y6582990D01*
X28894414Y6536212D01*
X28902951Y6517298D01*
X29127137Y6113763D01*
X29140127Y6094749D01*
X29175223Y6052362D01*
X29191480Y6036053D01*
X29728257Y5588739D01*
X29748529Y5574973D01*
X29765726Y5567233D01*
X29861753Y5532466D01*
X29885501Y5526423D01*
X29904307Y5525000D01*
X31083543Y5525000D01*
X31110297Y5517831D01*
X31117831Y5510297D01*
X31125000Y5483543D01*
X31125000Y5316457D01*
X31117831Y5289703D01*
X31110297Y5282169D01*
X31083543Y5275000D01*
X29864853Y5275000D01*
X29852535Y5274392D01*
X29823118Y5271479D01*
X29810921Y5269660D01*
X28583471Y5024170D01*
X28576867Y5022661D01*
X28561115Y5018612D01*
X28554593Y5016746D01*
X27627670Y4724033D01*
X27615197Y4719349D01*
X27585946Y4706548D01*
X27574043Y4700564D01*
X26586735Y4136389D01*
X26543851Y4125000D01*
X26066457Y4125000D01*
X26039703Y4132169D01*
X26032169Y4139703D01*
X26025000Y4166457D01*
X26025000Y5920512D01*
X26021308Y5950668D01*
X26003848Y6020904D01*
X25995634Y6043991D01*
X25975607Y6074195D01*
X25927292Y6128080D01*
X25904413Y6148067D01*
X24608325Y7027555D01*
X24586797Y7039261D01*
X24574851Y7043608D01*
X24490626Y7069487D01*
X24466609Y7074353D01*
X24453912Y7075000D01*
X23216457Y7075000D01*
X23189703Y7082169D01*
X23182169Y7089703D01*
X23175000Y7116457D01*
X23175000Y7283543D01*
X23182169Y7310297D01*
X23189703Y7317831D01*
X23216457Y7325000D01*
X24792215Y7325000D01*
X24836157Y7312987D01*
X25851106Y6713245D01*
X25881735Y6700285D01*
X25958044Y6679424D01*
X25991006Y6675000D01*
X26727906Y6675000D01*
X26755675Y6678123D01*
X26820654Y6692928D01*
X26843897Y6700688D01*
X26870708Y6716986D01*
X26922860Y6758477D01*
X26942646Y6778209D01*
X27464739Y7430826D01*
X27478097Y7451369D01*
X27485083Y7467537D01*
X27517953Y7561241D01*
X27523759Y7585047D01*
X27525000Y7602617D01*
X27525000Y9893196D01*
X27524872Y9898860D01*
X27524256Y9912440D01*
X27523871Y9918093D01*
X27476638Y10437651D01*
X27473334Y10456989D01*
X27461822Y10502497D01*
X27455532Y10521082D01*
X27326272Y10822688D01*
X27314888Y10843526D01*
X27283083Y10890504D01*
X27267962Y10908814D01*
X27058814Y11117962D01*
X27040504Y11133083D01*
X26993526Y11164888D01*
X26972688Y11176272D01*
X26677539Y11302765D01*
X26653432Y11310319D01*
X26594344Y11322447D01*
X26569211Y11325000D01*
X26116457Y11325000D01*
X26089703Y11332169D01*
X26082169Y11339703D01*
X26075000Y11366457D01*
X26075000Y11833543D01*
X26082169Y11860297D01*
X26089703Y11867831D01*
X26116457Y11875000D01*
X26571113Y11875000D01*
X26594751Y11877255D01*
X26650459Y11887983D01*
X26673245Y11894668D01*
X26867837Y11972505D01*
X26890225Y11984210D01*
X26940583Y12017416D01*
X26960159Y12033383D01*
X27169155Y12242379D01*
X27183507Y12259567D01*
X27213996Y12303562D01*
X27225052Y12323037D01*
X27453030Y12824589D01*
X27460196Y12844797D01*
X27473123Y12894411D01*
X27476729Y12915547D01*
X27524050Y13483401D01*
X27524374Y13488589D01*
X27524892Y13501046D01*
X27525000Y13506239D01*
X27525000Y16414590D01*
X27521656Y16443309D01*
X27505820Y16510391D01*
X27495967Y16537574D01*
X27277639Y16974230D01*
X27261805Y16998421D01*
X27217641Y17051339D01*
X27196672Y17071246D01*
X26865000Y17320000D01*
X26844050Y17332710D01*
X26829528Y17338585D01*
X26739528Y17368585D01*
X26715634Y17374018D01*
X26700000Y17375000D01*
X25326129Y17375000D01*
X25304971Y17377605D01*
X24548231Y17566789D01*
X24533188Y17569584D01*
X24496808Y17574063D01*
X24481534Y17575000D01*
X23116457Y17575000D01*
X23089703Y17582169D01*
X23082169Y17589703D01*
X23075000Y17616457D01*
X23075000Y17783543D01*
X23082169Y17810297D01*
X23089703Y17817831D01*
X23116457Y17825000D01*
X24486059Y17825000D01*
X24497626Y17825536D01*
X24525269Y17828105D01*
X24536738Y17829710D01*
X25303633Y17973503D01*
X25319741Y17975000D01*
X26778399Y17975000D01*
X26796216Y17976276D01*
X26838541Y17982371D01*
X26855995Y17986174D01*
X27655957Y18221457D01*
X27680557Y18225000D01*
X29506516Y18225000D01*
X29540728Y18217978D01*
%TA.AperFunction,Conductor*%
D22*
G36*
X29540728Y18217978D02*
G01*
X29822461Y18097235D01*
X29846568Y18089681D01*
X29905656Y18077553D01*
X29930789Y18075000D01*
X30983543Y18075000D01*
X31010297Y18067831D01*
X31017831Y18060297D01*
X31025000Y18033543D01*
X31025000Y17766457D01*
X31017831Y17739703D01*
X31010297Y17732169D01*
X30983543Y17725000D01*
X29956096Y17725000D01*
X29931710Y17722598D01*
X29912311Y17717081D01*
X29813884Y17680272D01*
X29791884Y17669480D01*
X29775647Y17657517D01*
X28690417Y16713838D01*
X28673640Y16696087D01*
X28637903Y16649978D01*
X28624899Y16629305D01*
X28397180Y16173869D01*
X28390749Y16158534D01*
X28377826Y16120869D01*
X28373487Y16104816D01*
X28230340Y15389078D01*
X28228521Y15376882D01*
X28225608Y15347465D01*
X28225000Y15335147D01*
X28225000Y13774342D01*
X28226614Y13754318D01*
X28234312Y13706883D01*
X28239113Y13687379D01*
X28369729Y13295531D01*
X28382628Y13268310D01*
X28420950Y13207633D01*
X28439986Y13184289D01*
X28733445Y12902044D01*
X28749601Y12888911D01*
X28790722Y12860829D01*
X28808834Y12850560D01*
X29567705Y12500311D01*
X29593272Y12491716D01*
X29656131Y12477910D01*
X29682946Y12475000D01*
X30483543Y12475000D01*
X30510297Y12467831D01*
X30517831Y12460297D01*
X30525000Y12433543D01*
X30525000Y11416457D01*
X30517831Y11389703D01*
X30510297Y11382169D01*
X30483543Y11375000D01*
X29697283Y11375000D01*
X29672897Y11372598D01*
X29659703Y11369217D01*
X29573684Y11342102D01*
X29551148Y11332480D01*
X29539581Y11325289D01*
X29111512Y11025640D01*
X29087288Y11003404D01*
X29037113Y10943378D01*
X29019525Y10915592D01*
X28750311Y10332295D01*
X28741716Y10306728D01*
X28727910Y10243869D01*
X28725000Y10217054D01*
X28725000Y7463134D01*
X28725476Y7452233D01*
X28727758Y7426165D01*
X28729184Y7415343D01*
X28872529Y6603058D01*
X28877820Y6582990D01*
X28894414Y6536212D01*
X28902951Y6517298D01*
X29127137Y6113763D01*
X29140127Y6094749D01*
X29175223Y6052362D01*
X29191480Y6036053D01*
X29728257Y5588739D01*
X29748529Y5574973D01*
X29765726Y5567233D01*
X29861753Y5532466D01*
X29885501Y5526423D01*
X29904307Y5525000D01*
X31083543Y5525000D01*
X31110297Y5517831D01*
X31117831Y5510297D01*
X31125000Y5483543D01*
X31125000Y5316457D01*
X31117831Y5289703D01*
X31110297Y5282169D01*
X31083543Y5275000D01*
X29864853Y5275000D01*
X29852535Y5274392D01*
X29823118Y5271479D01*
X29810921Y5269660D01*
X28583471Y5024170D01*
X28576867Y5022661D01*
X28561115Y5018612D01*
X28554593Y5016746D01*
X27627670Y4724033D01*
X27615197Y4719349D01*
X27585946Y4706548D01*
X27574043Y4700564D01*
X26586735Y4136389D01*
X26543851Y4125000D01*
X26066457Y4125000D01*
X26039703Y4132169D01*
X26032169Y4139703D01*
X26025000Y4166457D01*
X26025000Y5920512D01*
X26021308Y5950668D01*
X26003848Y6020904D01*
X25995634Y6043991D01*
X25975607Y6074195D01*
X25927292Y6128080D01*
X25904413Y6148067D01*
X24608325Y7027555D01*
X24586797Y7039261D01*
X24574851Y7043608D01*
X24490626Y7069487D01*
X24466609Y7074353D01*
X24453912Y7075000D01*
X23216457Y7075000D01*
X23189703Y7082169D01*
X23182169Y7089703D01*
X23175000Y7116457D01*
X23175000Y7283543D01*
X23182169Y7310297D01*
X23189703Y7317831D01*
X23216457Y7325000D01*
X24792215Y7325000D01*
X24836157Y7312987D01*
X25851106Y6713245D01*
X25881735Y6700285D01*
X25958044Y6679424D01*
X25991006Y6675000D01*
X26727906Y6675000D01*
X26755675Y6678123D01*
X26820654Y6692928D01*
X26843897Y6700688D01*
X26870708Y6716986D01*
X26922860Y6758477D01*
X26942646Y6778209D01*
X27464739Y7430826D01*
X27478097Y7451369D01*
X27485083Y7467537D01*
X27517953Y7561241D01*
X27523759Y7585047D01*
X27525000Y7602617D01*
X27525000Y9893196D01*
X27524872Y9898860D01*
X27524256Y9912440D01*
X27523871Y9918093D01*
X27476638Y10437651D01*
X27473334Y10456989D01*
X27461822Y10502497D01*
X27455532Y10521082D01*
X27326272Y10822688D01*
X27314888Y10843526D01*
X27283083Y10890504D01*
X27267962Y10908814D01*
X27058814Y11117962D01*
X27040504Y11133083D01*
X26993526Y11164888D01*
X26972688Y11176272D01*
X26677539Y11302765D01*
X26653432Y11310319D01*
X26594344Y11322447D01*
X26569211Y11325000D01*
X26116457Y11325000D01*
X26089703Y11332169D01*
X26082169Y11339703D01*
X26075000Y11366457D01*
X26075000Y11833543D01*
X26082169Y11860297D01*
X26089703Y11867831D01*
X26116457Y11875000D01*
X26571113Y11875000D01*
X26594751Y11877255D01*
X26650459Y11887983D01*
X26673245Y11894668D01*
X26867837Y11972505D01*
X26890225Y11984210D01*
X26940583Y12017416D01*
X26960159Y12033383D01*
X27169155Y12242379D01*
X27183507Y12259567D01*
X27213996Y12303562D01*
X27225052Y12323037D01*
X27453030Y12824589D01*
X27460196Y12844797D01*
X27473123Y12894411D01*
X27476729Y12915547D01*
X27524050Y13483401D01*
X27524374Y13488589D01*
X27524892Y13501046D01*
X27525000Y13506239D01*
X27525000Y16414590D01*
X27521656Y16443309D01*
X27505820Y16510391D01*
X27495967Y16537574D01*
X27277639Y16974230D01*
X27261805Y16998421D01*
X27217641Y17051339D01*
X27196672Y17071246D01*
X26865000Y17320000D01*
X26844050Y17332710D01*
X26829528Y17338585D01*
X26739528Y17368585D01*
X26715634Y17374018D01*
X26700000Y17375000D01*
X25326129Y17375000D01*
X25304971Y17377605D01*
X24548231Y17566789D01*
X24533188Y17569584D01*
X24496808Y17574063D01*
X24481534Y17575000D01*
X23116457Y17575000D01*
X23089703Y17582169D01*
X23082169Y17589703D01*
X23075000Y17616457D01*
X23075000Y17783543D01*
X23082169Y17810297D01*
X23089703Y17817831D01*
X23116457Y17825000D01*
X24486059Y17825000D01*
X24497626Y17825536D01*
X24525269Y17828105D01*
X24536738Y17829710D01*
X25303633Y17973503D01*
X25319741Y17975000D01*
X26778399Y17975000D01*
X26796216Y17976276D01*
X26838541Y17982371D01*
X26855995Y17986174D01*
X27655957Y18221457D01*
X27680557Y18225000D01*
X29506516Y18225000D01*
X29540728Y18217978D01*
G37*
%TD.AperFunction*%
%TD*%
D21*
%TO.N,+VDD_3.3V*%
X39110297Y18467831D02*
X39117831Y18460297D01*
X39125000Y18433543D01*
X39125000Y17624342D01*
X39126614Y17604318D01*
X39134312Y17556883D01*
X39139113Y17537379D01*
X39319019Y16997660D01*
X39332866Y16968960D01*
X39374268Y16905403D01*
X39394922Y16881139D01*
X39873006Y16446517D01*
X39892666Y16431890D01*
X39912015Y16422419D01*
X40012916Y16383410D01*
X40036528Y16376856D01*
X40057991Y16375000D01*
X41412629Y16375000D01*
X41442848Y16378708D01*
X41513222Y16396241D01*
X41541647Y16407144D01*
X43062096Y17214882D01*
X43102707Y17225000D01*
X46472491Y17225000D01*
X46527946Y17204582D01*
X46973985Y16824623D01*
X46996656Y16794588D01*
X47067174Y16639994D01*
X47075000Y16603979D01*
X47075000Y16101252D01*
X47065402Y16061625D01*
X46971443Y15879039D01*
X46950310Y15852469D01*
X46528129Y15495238D01*
X46472880Y15475000D01*
X42819839Y15475000D01*
X42803448Y15473921D01*
X42764452Y15468763D01*
X42748346Y15465544D01*
X41494609Y15128000D01*
X41471928Y15125000D01*
X39956360Y15125000D01*
X39931974Y15122598D01*
X39912394Y15117013D01*
X39813619Y15079900D01*
X39791636Y15069074D01*
X39775272Y15056959D01*
X39448336Y14770889D01*
X39426564Y14746036D01*
X39383037Y14680584D01*
X39368537Y14650893D01*
X39189113Y14112621D01*
X39184312Y14093117D01*
X39176614Y14045682D01*
X39175000Y14025658D01*
X39175000Y12436323D01*
X39170038Y12407351D01*
X38888630Y11610031D01*
X38881939Y11595483D01*
X37575995Y9329733D01*
X37568700Y9314885D01*
X37553624Y9278254D01*
X37548355Y9262576D01*
X37334103Y8450711D01*
X37331004Y8434896D01*
X37326039Y8396622D01*
X37325000Y8380541D01*
X37325000Y6666240D01*
X37323984Y6652947D01*
X37230727Y6046781D01*
X37224305Y6024800D01*
X36996068Y5508039D01*
X36964173Y5470583D01*
X36684383Y5288901D01*
X36637449Y5275000D01*
X35366457Y5275000D01*
X35339703Y5282169D01*
X35332169Y5289703D01*
X35325000Y5316457D01*
X35325000Y5483543D01*
X35332169Y5510297D01*
X35339703Y5517831D01*
X35366457Y5525000D01*
X35910165Y5525000D01*
X35942249Y5529188D01*
X36016670Y5548952D01*
X36046603Y5561234D01*
X36328151Y5722118D01*
X36353468Y5741218D01*
X36407483Y5793967D01*
X36427179Y5818824D01*
X36573443Y6061257D01*
X36583538Y6082165D01*
X36602919Y6134152D01*
X36608974Y6156567D01*
X36670997Y6516093D01*
X36672361Y6526681D01*
X36674544Y6552182D01*
X36675000Y6562844D01*
X36675000Y8932917D01*
X36674197Y8947060D01*
X36670356Y8980789D01*
X36667958Y8994753D01*
X36525279Y9613028D01*
X36521751Y9625380D01*
X36511786Y9654510D01*
X36507010Y9666433D01*
X36230475Y10265592D01*
X36212887Y10293378D01*
X36162712Y10353404D01*
X36138488Y10375640D01*
X35710419Y10675289D01*
X35689064Y10687306D01*
X35676316Y10692102D01*
X35590297Y10719217D01*
X35566317Y10724258D01*
X35552717Y10725000D01*
X34816457Y10725000D01*
X34789703Y10732169D01*
X34782169Y10739703D01*
X34775000Y10766457D01*
X34775000Y12233543D01*
X34782169Y12260297D01*
X34789703Y12267831D01*
X34816457Y12275000D01*
X36036059Y12275000D01*
X36047626Y12275536D01*
X36075269Y12278105D01*
X36086738Y12279710D01*
X36850106Y12422842D01*
X36868714Y12427842D01*
X36912185Y12443202D01*
X36929803Y12451002D01*
X37545958Y12782777D01*
X37556694Y12789273D01*
X37581606Y12806111D01*
X37591631Y12813646D01*
X38165704Y13292039D01*
X38176937Y13302643D01*
X38202219Y13329651D01*
X38212055Y13341554D01*
X38294478Y13454885D01*
X38300907Y13459181D01*
X38415819Y13574093D01*
X38506106Y13709216D01*
X38541381Y13794377D01*
X38572402Y13837031D01*
X38584803Y13858165D01*
X38590183Y13871896D01*
X38618873Y13960122D01*
X38624130Y13984056D01*
X38625000Y13998778D01*
X38625000Y16814590D01*
X38621656Y16843309D01*
X38605820Y16910391D01*
X38595967Y16937574D01*
X38475350Y17178809D01*
X38462072Y17199835D01*
X38425526Y17246641D01*
X38408350Y17264620D01*
X38103658Y17525785D01*
X38083897Y17539653D01*
X38033713Y17568067D01*
X38011653Y17577877D01*
X37462621Y17760887D01*
X37443117Y17765688D01*
X37395682Y17773386D01*
X37375658Y17775000D01*
X35216457Y17775000D01*
X35189703Y17782169D01*
X35182169Y17789703D01*
X35175000Y17816457D01*
X35175000Y17983543D01*
X35182169Y18010297D01*
X35189703Y18017831D01*
X35216457Y18025000D01*
X37077985Y18025000D01*
X37096137Y18026325D01*
X37139239Y18032651D01*
X37157006Y18036598D01*
X37614459Y18173834D01*
X37631752Y18180454D01*
X37671854Y18199320D01*
X37687980Y18208422D01*
X37932859Y18371675D01*
X37965493Y18384858D01*
X38453522Y18473590D01*
X38469154Y18475000D01*
X39083543Y18475000D01*
X39110297Y18467831D01*
%TA.AperFunction,Conductor*%
D22*
G36*
X39110297Y18467831D02*
G01*
X39117831Y18460297D01*
X39125000Y18433543D01*
X39125000Y17624342D01*
X39126614Y17604318D01*
X39134312Y17556883D01*
X39139113Y17537379D01*
X39319019Y16997660D01*
X39332866Y16968960D01*
X39374268Y16905403D01*
X39394922Y16881139D01*
X39873006Y16446517D01*
X39892666Y16431890D01*
X39912015Y16422419D01*
X40012916Y16383410D01*
X40036528Y16376856D01*
X40057991Y16375000D01*
X41412629Y16375000D01*
X41442848Y16378708D01*
X41513222Y16396241D01*
X41541647Y16407144D01*
X43062096Y17214882D01*
X43102707Y17225000D01*
X46472491Y17225000D01*
X46527946Y17204582D01*
X46973985Y16824623D01*
X46996656Y16794588D01*
X47067174Y16639994D01*
X47075000Y16603979D01*
X47075000Y16101252D01*
X47065402Y16061625D01*
X46971443Y15879039D01*
X46950310Y15852469D01*
X46528129Y15495238D01*
X46472880Y15475000D01*
X42819839Y15475000D01*
X42803448Y15473921D01*
X42764452Y15468763D01*
X42748346Y15465544D01*
X41494609Y15128000D01*
X41471928Y15125000D01*
X39956360Y15125000D01*
X39931974Y15122598D01*
X39912394Y15117013D01*
X39813619Y15079900D01*
X39791636Y15069074D01*
X39775272Y15056959D01*
X39448336Y14770889D01*
X39426564Y14746036D01*
X39383037Y14680584D01*
X39368537Y14650893D01*
X39189113Y14112621D01*
X39184312Y14093117D01*
X39176614Y14045682D01*
X39175000Y14025658D01*
X39175000Y12436323D01*
X39170038Y12407351D01*
X38888630Y11610031D01*
X38881939Y11595483D01*
X37575995Y9329733D01*
X37568700Y9314885D01*
X37553624Y9278254D01*
X37548355Y9262576D01*
X37334103Y8450711D01*
X37331004Y8434896D01*
X37326039Y8396622D01*
X37325000Y8380541D01*
X37325000Y6666240D01*
X37323984Y6652947D01*
X37230727Y6046781D01*
X37224305Y6024800D01*
X36996068Y5508039D01*
X36964173Y5470583D01*
X36684383Y5288901D01*
X36637449Y5275000D01*
X35366457Y5275000D01*
X35339703Y5282169D01*
X35332169Y5289703D01*
X35325000Y5316457D01*
X35325000Y5483543D01*
X35332169Y5510297D01*
X35339703Y5517831D01*
X35366457Y5525000D01*
X35910165Y5525000D01*
X35942249Y5529188D01*
X36016670Y5548952D01*
X36046603Y5561234D01*
X36328151Y5722118D01*
X36353468Y5741218D01*
X36407483Y5793967D01*
X36427179Y5818824D01*
X36573443Y6061257D01*
X36583538Y6082165D01*
X36602919Y6134152D01*
X36608974Y6156567D01*
X36670997Y6516093D01*
X36672361Y6526681D01*
X36674544Y6552182D01*
X36675000Y6562844D01*
X36675000Y8932917D01*
X36674197Y8947060D01*
X36670356Y8980789D01*
X36667958Y8994753D01*
X36525279Y9613028D01*
X36521751Y9625380D01*
X36511786Y9654510D01*
X36507010Y9666433D01*
X36230475Y10265592D01*
X36212887Y10293378D01*
X36162712Y10353404D01*
X36138488Y10375640D01*
X35710419Y10675289D01*
X35689064Y10687306D01*
X35676316Y10692102D01*
X35590297Y10719217D01*
X35566317Y10724258D01*
X35552717Y10725000D01*
X34816457Y10725000D01*
X34789703Y10732169D01*
X34782169Y10739703D01*
X34775000Y10766457D01*
X34775000Y12233543D01*
X34782169Y12260297D01*
X34789703Y12267831D01*
X34816457Y12275000D01*
X36036059Y12275000D01*
X36047626Y12275536D01*
X36075269Y12278105D01*
X36086738Y12279710D01*
X36850106Y12422842D01*
X36868714Y12427842D01*
X36912185Y12443202D01*
X36929803Y12451002D01*
X37545958Y12782777D01*
X37556694Y12789273D01*
X37581606Y12806111D01*
X37591631Y12813646D01*
X38165704Y13292039D01*
X38176937Y13302643D01*
X38202219Y13329651D01*
X38212055Y13341554D01*
X38294478Y13454885D01*
X38300907Y13459181D01*
X38415819Y13574093D01*
X38506106Y13709216D01*
X38541381Y13794377D01*
X38572402Y13837031D01*
X38584803Y13858165D01*
X38590183Y13871896D01*
X38618873Y13960122D01*
X38624130Y13984056D01*
X38625000Y13998778D01*
X38625000Y16814590D01*
X38621656Y16843309D01*
X38605820Y16910391D01*
X38595967Y16937574D01*
X38475350Y17178809D01*
X38462072Y17199835D01*
X38425526Y17246641D01*
X38408350Y17264620D01*
X38103658Y17525785D01*
X38083897Y17539653D01*
X38033713Y17568067D01*
X38011653Y17577877D01*
X37462621Y17760887D01*
X37443117Y17765688D01*
X37395682Y17773386D01*
X37375658Y17775000D01*
X35216457Y17775000D01*
X35189703Y17782169D01*
X35182169Y17789703D01*
X35175000Y17816457D01*
X35175000Y17983543D01*
X35182169Y18010297D01*
X35189703Y18017831D01*
X35216457Y18025000D01*
X37077985Y18025000D01*
X37096137Y18026325D01*
X37139239Y18032651D01*
X37157006Y18036598D01*
X37614459Y18173834D01*
X37631752Y18180454D01*
X37671854Y18199320D01*
X37687980Y18208422D01*
X37932859Y18371675D01*
X37965493Y18384858D01*
X38453522Y18473590D01*
X38469154Y18475000D01*
X39083543Y18475000D01*
X39110297Y18467831D01*
G37*
%TD.AperFunction*%
%TD*%
D23*
%TO.N,GND*%
X49450000Y550000D02*
X27440625Y550000D01*
X27504737Y584269D01*
X27615132Y674868D01*
X27637832Y702528D01*
X28167477Y1232172D01*
X28195132Y1254868D01*
X28229777Y1297082D01*
X28285731Y1365263D01*
X28353053Y1491212D01*
X28355074Y1497876D01*
X28394509Y1627875D01*
X28405000Y1734393D01*
X28405000Y1734403D01*
X28408506Y1770000D01*
X28405000Y1805597D01*
X28405000Y2609696D01*
X29205305Y3410000D01*
X29490429Y3410000D01*
X29504134Y3398753D01*
X29623433Y3334986D01*
X29752880Y3295719D01*
X29887500Y3282460D01*
X31537500Y3282460D01*
X31672120Y3295719D01*
X31801567Y3334986D01*
X31920866Y3398753D01*
X32025432Y3484568D01*
X32111247Y3589134D01*
X32175014Y3708433D01*
X32214281Y3837880D01*
X32227540Y3972500D01*
X32227540Y4297500D01*
X32214281Y4432120D01*
X32175014Y4561567D01*
X32111247Y4680866D01*
X32038097Y4770000D01*
X32111247Y4859134D01*
X32175014Y4978433D01*
X32214281Y5107880D01*
X32227540Y5242500D01*
X32227540Y5567500D01*
X32214281Y5702120D01*
X32175014Y5831567D01*
X32111247Y5950866D01*
X32025432Y6055432D01*
X31920866Y6141247D01*
X31801567Y6205014D01*
X31672120Y6244281D01*
X31537500Y6257540D01*
X29941029Y6257540D01*
X29661357Y6490600D01*
X29501705Y6777974D01*
X29375000Y7495964D01*
X29375000Y10134690D01*
X29567250Y10551231D01*
X29688247Y10635929D01*
X29824999Y10622460D01*
X30675001Y10622460D01*
X30826691Y10637400D01*
X30972552Y10681647D01*
X31106979Y10753499D01*
X31173958Y10808467D01*
X31247568Y10748057D01*
X31403919Y10664486D01*
X31573569Y10613023D01*
X31705793Y10600000D01*
X31705802Y10600000D01*
X31749999Y10595647D01*
X31794196Y10600000D01*
X32122460Y10600000D01*
X32122460Y10550000D01*
X32132597Y10447082D01*
X32162617Y10348119D01*
X32211367Y10256914D01*
X32276973Y10176973D01*
X32356914Y10111367D01*
X32448119Y10062617D01*
X32547082Y10032597D01*
X32650000Y10022460D01*
X33450000Y10022460D01*
X33552918Y10032597D01*
X33651881Y10062617D01*
X33743086Y10111367D01*
X33823027Y10176973D01*
X33888633Y10256914D01*
X33937383Y10348119D01*
X33967403Y10447082D01*
X33977540Y10550000D01*
X33977540Y12450000D01*
X34022460Y12450000D01*
X34022460Y10550000D01*
X34032597Y10447082D01*
X34062617Y10348119D01*
X34111367Y10256914D01*
X34176973Y10176973D01*
X34256914Y10111367D01*
X34348119Y10062617D01*
X34447082Y10032597D01*
X34550000Y10022460D01*
X35350000Y10022460D01*
X35452918Y10032597D01*
X35482336Y10041521D01*
X35682750Y9901231D01*
X35900626Y9429168D01*
X36025000Y8890212D01*
X36025000Y7816385D01*
X36005695Y7780268D01*
X35962160Y7636752D01*
X35947460Y7487500D01*
X35947460Y7012500D01*
X35962160Y6863248D01*
X36005695Y6719732D01*
X36025000Y6683615D01*
X36025000Y6594950D01*
X35980433Y6336612D01*
X35932728Y6257540D01*
X34962500Y6257540D01*
X34827880Y6244281D01*
X34698433Y6205014D01*
X34579134Y6141247D01*
X34474568Y6055432D01*
X34388753Y5950866D01*
X34324986Y5831567D01*
X34285719Y5702120D01*
X34272460Y5567500D01*
X34272460Y5242500D01*
X34285719Y5107880D01*
X34324986Y4978433D01*
X34388753Y4859134D01*
X34461903Y4770000D01*
X34388753Y4680866D01*
X34324986Y4561567D01*
X34285719Y4432120D01*
X34272460Y4297500D01*
X34272460Y3972500D01*
X34285719Y3837880D01*
X34324986Y3708433D01*
X34388753Y3589134D01*
X34461903Y3500000D01*
X34388753Y3410866D01*
X34324986Y3291567D01*
X34285719Y3162120D01*
X34272460Y3027500D01*
X34272460Y2702500D01*
X34285719Y2567880D01*
X34324986Y2438433D01*
X34388753Y2319134D01*
X34461903Y2230000D01*
X34388753Y2140866D01*
X34324986Y2021567D01*
X34285719Y1892120D01*
X34272460Y1757500D01*
X34272460Y1432500D01*
X34285719Y1297880D01*
X34324986Y1168433D01*
X34388753Y1049134D01*
X34474568Y944568D01*
X34579134Y858753D01*
X34698433Y794986D01*
X34827880Y755719D01*
X34962500Y742460D01*
X36612500Y742460D01*
X36747120Y755719D01*
X36876567Y794986D01*
X36995866Y858753D01*
X37009571Y870000D01*
X38909403Y870000D01*
X38945000Y866494D01*
X38980597Y870000D01*
X38980607Y870000D01*
X39087125Y880491D01*
X39223788Y921947D01*
X39349737Y989269D01*
X39460132Y1079868D01*
X39482832Y1107528D01*
X41300305Y2925000D01*
X42252460Y2925000D01*
X42252460Y2800000D01*
X42262597Y2697082D01*
X42292617Y2598119D01*
X42341367Y2506914D01*
X42406973Y2426973D01*
X42486914Y2361367D01*
X42578119Y2312617D01*
X42677082Y2282597D01*
X42780000Y2272460D01*
X44480000Y2272460D01*
X44582918Y2282597D01*
X44681881Y2312617D01*
X44773086Y2361367D01*
X44853027Y2426973D01*
X44918633Y2506914D01*
X44967383Y2598119D01*
X44997403Y2697082D01*
X45007540Y2800000D01*
X45007540Y2914810D01*
X45101968Y2773489D01*
X45293489Y2581968D01*
X45518693Y2431491D01*
X45768927Y2327841D01*
X46034574Y2275000D01*
X46305426Y2275000D01*
X46571073Y2327841D01*
X46821307Y2431491D01*
X47046511Y2581968D01*
X47238032Y2773489D01*
X47388509Y2998693D01*
X47492159Y3248927D01*
X47545000Y3514574D01*
X47545000Y3785426D01*
X47492159Y4051073D01*
X47388509Y4301307D01*
X47238032Y4526511D01*
X47046511Y4718032D01*
X46821307Y4868509D01*
X46696996Y4920000D01*
X46821307Y4971491D01*
X47046511Y5121968D01*
X47238032Y5313489D01*
X47388509Y5538693D01*
X47492159Y5788927D01*
X47545000Y6054574D01*
X47545000Y6325426D01*
X47492159Y6591073D01*
X47388509Y6841307D01*
X47238032Y7066511D01*
X47046511Y7258032D01*
X46821307Y7408509D01*
X46696996Y7460000D01*
X46821307Y7511491D01*
X47046511Y7661968D01*
X47238032Y7853489D01*
X47388509Y8078693D01*
X47492159Y8328927D01*
X47545000Y8594574D01*
X47545000Y8865426D01*
X47492159Y9131073D01*
X47388509Y9381307D01*
X47238032Y9606511D01*
X47046511Y9798032D01*
X46821307Y9948509D01*
X46696996Y10000000D01*
X46821307Y10051491D01*
X47046511Y10201968D01*
X47238032Y10393489D01*
X47388509Y10618693D01*
X47492159Y10868927D01*
X47545000Y11134574D01*
X47545000Y11405426D01*
X47492159Y11671073D01*
X47388509Y11921307D01*
X47238032Y12146511D01*
X47046511Y12338032D01*
X46821307Y12488509D01*
X46571073Y12592159D01*
X46305426Y12645000D01*
X46034574Y12645000D01*
X45768927Y12592159D01*
X45518693Y12488509D01*
X45293489Y12338032D01*
X45101968Y12146511D01*
X44951491Y11921307D01*
X44900000Y11796996D01*
X44848509Y11921307D01*
X44698032Y12146511D01*
X44506511Y12338032D01*
X44281307Y12488509D01*
X44031073Y12592159D01*
X43765426Y12645000D01*
X43494574Y12645000D01*
X43228927Y12592159D01*
X42978693Y12488509D01*
X42753489Y12338032D01*
X42561968Y12146511D01*
X42411491Y11921307D01*
X42307841Y11671073D01*
X42255000Y11405426D01*
X42255000Y11134574D01*
X42290550Y10955855D01*
X39892523Y8557827D01*
X39864869Y8535132D01*
X39842173Y8507477D01*
X39842170Y8507474D01*
X39774269Y8424736D01*
X39706947Y8298787D01*
X39685563Y8228290D01*
X39665492Y8162125D01*
X39661561Y8122215D01*
X39651494Y8020000D01*
X39655001Y7984393D01*
X39655000Y6430305D01*
X38084696Y4860000D01*
X37217402Y4860000D01*
X37333447Y4935354D01*
X37447244Y5035296D01*
X37502766Y5100498D01*
X37583296Y5228762D01*
X37822222Y5769726D01*
X37845906Y5834591D01*
X37856949Y5872385D01*
X37871915Y5939798D01*
X37967151Y6558832D01*
X37971728Y6598637D01*
X37973472Y6621446D01*
X37975000Y6661471D01*
X37975000Y6683615D01*
X37994305Y6719732D01*
X38037840Y6863248D01*
X38052540Y7012500D01*
X38052540Y7487500D01*
X38037840Y7636752D01*
X37994305Y7780268D01*
X37975000Y7816385D01*
X37975000Y8331893D01*
X38164092Y9048421D01*
X39447958Y11275866D01*
X39470078Y11318671D01*
X39481568Y11343654D01*
X39499665Y11388289D01*
X39786519Y12201040D01*
X39808913Y12287138D01*
X39817464Y12337061D01*
X39825000Y12425694D01*
X39825000Y13964802D01*
X39952985Y14348758D01*
X40053879Y14437040D01*
X40074999Y14434960D01*
X40925001Y14434960D01*
X41076691Y14449900D01*
X41159434Y14475000D01*
X41480161Y14475000D01*
X41549003Y14479533D01*
X41587999Y14484691D01*
X41655643Y14498210D01*
X42869437Y14825000D01*
X46495054Y14825000D01*
X46575989Y14831276D01*
X46675632Y14857033D01*
X46772523Y14892525D01*
X46846361Y14926256D01*
X46931065Y14984715D01*
X47379584Y15364232D01*
X47451347Y15438207D01*
X47487832Y15484079D01*
X47543765Y15570656D01*
X47650192Y15777470D01*
X47693623Y15894111D01*
X47710247Y15962747D01*
X47725000Y16086331D01*
X47725000Y16617404D01*
X47713026Y16728890D01*
X47699498Y16791142D01*
X47664126Y16897535D01*
X47582344Y17076825D01*
X47523713Y17175244D01*
X47484510Y17227179D01*
X47405932Y17310534D01*
X46932487Y17713839D01*
X46866067Y17761998D01*
X46773438Y17806853D01*
X46676168Y17842667D01*
X46597194Y17864912D01*
X46494772Y17875000D01*
X43087371Y17875000D01*
X42960452Y17859428D01*
X42890078Y17841895D01*
X42770691Y17796103D01*
X41319202Y17025000D01*
X41159434Y17025000D01*
X41076691Y17050100D01*
X40925001Y17065040D01*
X40158924Y17065040D01*
X39904673Y17296177D01*
X39804132Y17597801D01*
X39869305Y17719732D01*
X39912840Y17863248D01*
X39927540Y18012500D01*
X39927540Y18487500D01*
X39912840Y18636752D01*
X39869305Y18780268D01*
X39798608Y18912533D01*
X39703465Y19028465D01*
X39587533Y19123608D01*
X39455268Y19194305D01*
X39311752Y19237840D01*
X39162500Y19252540D01*
X38587500Y19252540D01*
X38438248Y19237840D01*
X38294732Y19194305D01*
X38162467Y19123608D01*
X38096287Y19069296D01*
X37836628Y19022085D01*
X37733898Y18992334D01*
X37677525Y18969561D01*
X37582952Y18919606D01*
X37374032Y18780326D01*
X37022946Y18675000D01*
X36932719Y18675000D01*
X36876567Y18705014D01*
X36747120Y18744281D01*
X36612500Y18757540D01*
X34962500Y18757540D01*
X34827880Y18744281D01*
X34698433Y18705014D01*
X34579134Y18641247D01*
X34474568Y18555432D01*
X34388753Y18450866D01*
X34324986Y18331567D01*
X34285719Y18202120D01*
X34272460Y18067500D01*
X34272460Y17742500D01*
X34285719Y17607880D01*
X34324986Y17478433D01*
X34388753Y17359134D01*
X34461903Y17270000D01*
X34388753Y17180866D01*
X34324986Y17061567D01*
X34285719Y16932120D01*
X34272460Y16797500D01*
X34272460Y16472500D01*
X34285719Y16337880D01*
X34324986Y16208433D01*
X34388753Y16089134D01*
X34461903Y16000000D01*
X34388753Y15910866D01*
X34324986Y15791567D01*
X34285719Y15662120D01*
X34272460Y15527500D01*
X34272460Y15202500D01*
X34285719Y15067880D01*
X34324986Y14938433D01*
X34388753Y14819134D01*
X34461903Y14730000D01*
X34388753Y14640866D01*
X34324986Y14521567D01*
X34285719Y14392120D01*
X34272460Y14257500D01*
X34272460Y13932500D01*
X34285719Y13797880D01*
X34324986Y13668433D01*
X34388753Y13549134D01*
X34474568Y13444568D01*
X34579134Y13358753D01*
X34698433Y13294986D01*
X34827880Y13255719D01*
X34962500Y13242460D01*
X36612500Y13242460D01*
X36747120Y13255719D01*
X36876567Y13294986D01*
X36995866Y13358753D01*
X37100432Y13444568D01*
X37100787Y13445000D01*
X37121852Y13445000D01*
X37185347Y13381505D01*
X37225518Y13354663D01*
X37204530Y13337173D01*
X36672991Y13050960D01*
X36001206Y12925000D01*
X35575048Y12925000D01*
X35551881Y12937383D01*
X35452918Y12967403D01*
X35350000Y12977540D01*
X34550000Y12977540D01*
X34447082Y12967403D01*
X34348119Y12937383D01*
X34256914Y12888633D01*
X34176973Y12823027D01*
X34111367Y12743086D01*
X34062617Y12651881D01*
X34032597Y12552918D01*
X34022460Y12450000D01*
X33977540Y12450000D01*
X33967403Y12552918D01*
X33937383Y12651881D01*
X33888633Y12743086D01*
X33823027Y12823027D01*
X33743086Y12888633D01*
X33651881Y12937383D01*
X33552918Y12967403D01*
X33450000Y12977540D01*
X32650000Y12977540D01*
X32547082Y12967403D01*
X32448119Y12937383D01*
X32356914Y12888633D01*
X32276973Y12823027D01*
X32211367Y12743086D01*
X32162617Y12651881D01*
X32132597Y12552918D01*
X32122460Y12450000D01*
X32122460Y12400332D01*
X31980158Y12542634D01*
X31951975Y12576975D01*
X31814932Y12689443D01*
X31658581Y12773014D01*
X31488931Y12824477D01*
X31358745Y12837299D01*
X31321501Y12906979D01*
X31224804Y13024804D01*
X31106979Y13121501D01*
X30972552Y13193353D01*
X30826691Y13237600D01*
X30675001Y13252540D01*
X29824999Y13252540D01*
X29673309Y13237600D01*
X29581612Y13209784D01*
X29138533Y13414282D01*
X28957157Y13588726D01*
X28875000Y13835198D01*
X28875000Y15298013D01*
X29001016Y15928097D01*
X29173031Y16272125D01*
X29218636Y16311781D01*
X29249986Y16208433D01*
X29313753Y16089134D01*
X29399568Y15984568D01*
X29504134Y15898753D01*
X29623433Y15834986D01*
X29752880Y15795719D01*
X29887500Y15782460D01*
X31537500Y15782460D01*
X31672120Y15795719D01*
X31801567Y15834986D01*
X31920866Y15898753D01*
X31934571Y15910000D01*
X32229403Y15910000D01*
X32265000Y15906494D01*
X32300597Y15910000D01*
X32300607Y15910000D01*
X32407125Y15920491D01*
X32543788Y15961947D01*
X32669737Y16029269D01*
X32780132Y16119868D01*
X32802832Y16147528D01*
X33227476Y16572172D01*
X33255131Y16594868D01*
X33293914Y16642124D01*
X33345731Y16705263D01*
X33356281Y16725000D01*
X33413053Y16831212D01*
X33454509Y16967875D01*
X33465000Y17074393D01*
X33465000Y17074402D01*
X33468506Y17109999D01*
X33465000Y17145596D01*
X33465000Y17980082D01*
X33559725Y18121848D01*
X33629453Y18290187D01*
X33665000Y18468895D01*
X33665000Y18651105D01*
X33629453Y18829813D01*
X33559725Y18998152D01*
X33458495Y19149653D01*
X33329653Y19278495D01*
X33178152Y19379725D01*
X33009813Y19449453D01*
X33007063Y19450000D01*
X49450001Y19450000D01*
X49450000Y550000D01*
%TA.AperFunction,Conductor*%
D22*
G36*
X49450000Y550000D02*
G01*
X27440625Y550000D01*
X27504737Y584269D01*
X27615132Y674868D01*
X27637832Y702528D01*
X28167477Y1232172D01*
X28195132Y1254868D01*
X28229777Y1297082D01*
X28285731Y1365263D01*
X28353053Y1491212D01*
X28355074Y1497876D01*
X28394509Y1627875D01*
X28405000Y1734393D01*
X28405000Y1734403D01*
X28408506Y1770000D01*
X28405000Y1805597D01*
X28405000Y2609696D01*
X29205305Y3410000D01*
X29490429Y3410000D01*
X29504134Y3398753D01*
X29623433Y3334986D01*
X29752880Y3295719D01*
X29887500Y3282460D01*
X31537500Y3282460D01*
X31672120Y3295719D01*
X31801567Y3334986D01*
X31920866Y3398753D01*
X32025432Y3484568D01*
X32111247Y3589134D01*
X32175014Y3708433D01*
X32214281Y3837880D01*
X32227540Y3972500D01*
X32227540Y4297500D01*
X32214281Y4432120D01*
X32175014Y4561567D01*
X32111247Y4680866D01*
X32038097Y4770000D01*
X32111247Y4859134D01*
X32175014Y4978433D01*
X32214281Y5107880D01*
X32227540Y5242500D01*
X32227540Y5567500D01*
X32214281Y5702120D01*
X32175014Y5831567D01*
X32111247Y5950866D01*
X32025432Y6055432D01*
X31920866Y6141247D01*
X31801567Y6205014D01*
X31672120Y6244281D01*
X31537500Y6257540D01*
X29941029Y6257540D01*
X29661357Y6490600D01*
X29501705Y6777974D01*
X29375000Y7495964D01*
X29375000Y10134690D01*
X29567250Y10551231D01*
X29688247Y10635929D01*
X29824999Y10622460D01*
X30675001Y10622460D01*
X30826691Y10637400D01*
X30972552Y10681647D01*
X31106979Y10753499D01*
X31173958Y10808467D01*
X31247568Y10748057D01*
X31403919Y10664486D01*
X31573569Y10613023D01*
X31705793Y10600000D01*
X31705802Y10600000D01*
X31749999Y10595647D01*
X31794196Y10600000D01*
X32122460Y10600000D01*
X32122460Y10550000D01*
X32132597Y10447082D01*
X32162617Y10348119D01*
X32211367Y10256914D01*
X32276973Y10176973D01*
X32356914Y10111367D01*
X32448119Y10062617D01*
X32547082Y10032597D01*
X32650000Y10022460D01*
X33450000Y10022460D01*
X33552918Y10032597D01*
X33651881Y10062617D01*
X33743086Y10111367D01*
X33823027Y10176973D01*
X33888633Y10256914D01*
X33937383Y10348119D01*
X33967403Y10447082D01*
X33977540Y10550000D01*
X33977540Y12450000D01*
X34022460Y12450000D01*
X34022460Y10550000D01*
X34032597Y10447082D01*
X34062617Y10348119D01*
X34111367Y10256914D01*
X34176973Y10176973D01*
X34256914Y10111367D01*
X34348119Y10062617D01*
X34447082Y10032597D01*
X34550000Y10022460D01*
X35350000Y10022460D01*
X35452918Y10032597D01*
X35482336Y10041521D01*
X35682750Y9901231D01*
X35900626Y9429168D01*
X36025000Y8890212D01*
X36025000Y7816385D01*
X36005695Y7780268D01*
X35962160Y7636752D01*
X35947460Y7487500D01*
X35947460Y7012500D01*
X35962160Y6863248D01*
X36005695Y6719732D01*
X36025000Y6683615D01*
X36025000Y6594950D01*
X35980433Y6336612D01*
X35932728Y6257540D01*
X34962500Y6257540D01*
X34827880Y6244281D01*
X34698433Y6205014D01*
X34579134Y6141247D01*
X34474568Y6055432D01*
X34388753Y5950866D01*
X34324986Y5831567D01*
X34285719Y5702120D01*
X34272460Y5567500D01*
X34272460Y5242500D01*
X34285719Y5107880D01*
X34324986Y4978433D01*
X34388753Y4859134D01*
X34461903Y4770000D01*
X34388753Y4680866D01*
X34324986Y4561567D01*
X34285719Y4432120D01*
X34272460Y4297500D01*
X34272460Y3972500D01*
X34285719Y3837880D01*
X34324986Y3708433D01*
X34388753Y3589134D01*
X34461903Y3500000D01*
X34388753Y3410866D01*
X34324986Y3291567D01*
X34285719Y3162120D01*
X34272460Y3027500D01*
X34272460Y2702500D01*
X34285719Y2567880D01*
X34324986Y2438433D01*
X34388753Y2319134D01*
X34461903Y2230000D01*
X34388753Y2140866D01*
X34324986Y2021567D01*
X34285719Y1892120D01*
X34272460Y1757500D01*
X34272460Y1432500D01*
X34285719Y1297880D01*
X34324986Y1168433D01*
X34388753Y1049134D01*
X34474568Y944568D01*
X34579134Y858753D01*
X34698433Y794986D01*
X34827880Y755719D01*
X34962500Y742460D01*
X36612500Y742460D01*
X36747120Y755719D01*
X36876567Y794986D01*
X36995866Y858753D01*
X37009571Y870000D01*
X38909403Y870000D01*
X38945000Y866494D01*
X38980597Y870000D01*
X38980607Y870000D01*
X39087125Y880491D01*
X39223788Y921947D01*
X39349737Y989269D01*
X39460132Y1079868D01*
X39482832Y1107528D01*
X41300305Y2925000D01*
X42252460Y2925000D01*
X42252460Y2800000D01*
X42262597Y2697082D01*
X42292617Y2598119D01*
X42341367Y2506914D01*
X42406973Y2426973D01*
X42486914Y2361367D01*
X42578119Y2312617D01*
X42677082Y2282597D01*
X42780000Y2272460D01*
X44480000Y2272460D01*
X44582918Y2282597D01*
X44681881Y2312617D01*
X44773086Y2361367D01*
X44853027Y2426973D01*
X44918633Y2506914D01*
X44967383Y2598119D01*
X44997403Y2697082D01*
X45007540Y2800000D01*
X45007540Y2914810D01*
X45101968Y2773489D01*
X45293489Y2581968D01*
X45518693Y2431491D01*
X45768927Y2327841D01*
X46034574Y2275000D01*
X46305426Y2275000D01*
X46571073Y2327841D01*
X46821307Y2431491D01*
X47046511Y2581968D01*
X47238032Y2773489D01*
X47388509Y2998693D01*
X47492159Y3248927D01*
X47545000Y3514574D01*
X47545000Y3785426D01*
X47492159Y4051073D01*
X47388509Y4301307D01*
X47238032Y4526511D01*
X47046511Y4718032D01*
X46821307Y4868509D01*
X46696996Y4920000D01*
X46821307Y4971491D01*
X47046511Y5121968D01*
X47238032Y5313489D01*
X47388509Y5538693D01*
X47492159Y5788927D01*
X47545000Y6054574D01*
X47545000Y6325426D01*
X47492159Y6591073D01*
X47388509Y6841307D01*
X47238032Y7066511D01*
X47046511Y7258032D01*
X46821307Y7408509D01*
X46696996Y7460000D01*
X46821307Y7511491D01*
X47046511Y7661968D01*
X47238032Y7853489D01*
X47388509Y8078693D01*
X47492159Y8328927D01*
X47545000Y8594574D01*
X47545000Y8865426D01*
X47492159Y9131073D01*
X47388509Y9381307D01*
X47238032Y9606511D01*
X47046511Y9798032D01*
X46821307Y9948509D01*
X46696996Y10000000D01*
X46821307Y10051491D01*
X47046511Y10201968D01*
X47238032Y10393489D01*
X47388509Y10618693D01*
X47492159Y10868927D01*
X47545000Y11134574D01*
X47545000Y11405426D01*
X47492159Y11671073D01*
X47388509Y11921307D01*
X47238032Y12146511D01*
X47046511Y12338032D01*
X46821307Y12488509D01*
X46571073Y12592159D01*
X46305426Y12645000D01*
X46034574Y12645000D01*
X45768927Y12592159D01*
X45518693Y12488509D01*
X45293489Y12338032D01*
X45101968Y12146511D01*
X44951491Y11921307D01*
X44900000Y11796996D01*
X44848509Y11921307D01*
X44698032Y12146511D01*
X44506511Y12338032D01*
X44281307Y12488509D01*
X44031073Y12592159D01*
X43765426Y12645000D01*
X43494574Y12645000D01*
X43228927Y12592159D01*
X42978693Y12488509D01*
X42753489Y12338032D01*
X42561968Y12146511D01*
X42411491Y11921307D01*
X42307841Y11671073D01*
X42255000Y11405426D01*
X42255000Y11134574D01*
X42290550Y10955855D01*
X39892523Y8557827D01*
X39864869Y8535132D01*
X39842173Y8507477D01*
X39842170Y8507474D01*
X39774269Y8424736D01*
X39706947Y8298787D01*
X39685563Y8228290D01*
X39665492Y8162125D01*
X39661561Y8122215D01*
X39651494Y8020000D01*
X39655001Y7984393D01*
X39655000Y6430305D01*
X38084696Y4860000D01*
X37217402Y4860000D01*
X37333447Y4935354D01*
X37447244Y5035296D01*
X37502766Y5100498D01*
X37583296Y5228762D01*
X37822222Y5769726D01*
X37845906Y5834591D01*
X37856949Y5872385D01*
X37871915Y5939798D01*
X37967151Y6558832D01*
X37971728Y6598637D01*
X37973472Y6621446D01*
X37975000Y6661471D01*
X37975000Y6683615D01*
X37994305Y6719732D01*
X38037840Y6863248D01*
X38052540Y7012500D01*
X38052540Y7487500D01*
X38037840Y7636752D01*
X37994305Y7780268D01*
X37975000Y7816385D01*
X37975000Y8331893D01*
X38164092Y9048421D01*
X39447958Y11275866D01*
X39470078Y11318671D01*
X39481568Y11343654D01*
X39499665Y11388289D01*
X39786519Y12201040D01*
X39808913Y12287138D01*
X39817464Y12337061D01*
X39825000Y12425694D01*
X39825000Y13964802D01*
X39952985Y14348758D01*
X40053879Y14437040D01*
X40074999Y14434960D01*
X40925001Y14434960D01*
X41076691Y14449900D01*
X41159434Y14475000D01*
X41480161Y14475000D01*
X41549003Y14479533D01*
X41587999Y14484691D01*
X41655643Y14498210D01*
X42869437Y14825000D01*
X46495054Y14825000D01*
X46575989Y14831276D01*
X46675632Y14857033D01*
X46772523Y14892525D01*
X46846361Y14926256D01*
X46931065Y14984715D01*
X47379584Y15364232D01*
X47451347Y15438207D01*
X47487832Y15484079D01*
X47543765Y15570656D01*
X47650192Y15777470D01*
X47693623Y15894111D01*
X47710247Y15962747D01*
X47725000Y16086331D01*
X47725000Y16617404D01*
X47713026Y16728890D01*
X47699498Y16791142D01*
X47664126Y16897535D01*
X47582344Y17076825D01*
X47523713Y17175244D01*
X47484510Y17227179D01*
X47405932Y17310534D01*
X46932487Y17713839D01*
X46866067Y17761998D01*
X46773438Y17806853D01*
X46676168Y17842667D01*
X46597194Y17864912D01*
X46494772Y17875000D01*
X43087371Y17875000D01*
X42960452Y17859428D01*
X42890078Y17841895D01*
X42770691Y17796103D01*
X41319202Y17025000D01*
X41159434Y17025000D01*
X41076691Y17050100D01*
X40925001Y17065040D01*
X40158924Y17065040D01*
X39904673Y17296177D01*
X39804132Y17597801D01*
X39869305Y17719732D01*
X39912840Y17863248D01*
X39927540Y18012500D01*
X39927540Y18487500D01*
X39912840Y18636752D01*
X39869305Y18780268D01*
X39798608Y18912533D01*
X39703465Y19028465D01*
X39587533Y19123608D01*
X39455268Y19194305D01*
X39311752Y19237840D01*
X39162500Y19252540D01*
X38587500Y19252540D01*
X38438248Y19237840D01*
X38294732Y19194305D01*
X38162467Y19123608D01*
X38096287Y19069296D01*
X37836628Y19022085D01*
X37733898Y18992334D01*
X37677525Y18969561D01*
X37582952Y18919606D01*
X37374032Y18780326D01*
X37022946Y18675000D01*
X36932719Y18675000D01*
X36876567Y18705014D01*
X36747120Y18744281D01*
X36612500Y18757540D01*
X34962500Y18757540D01*
X34827880Y18744281D01*
X34698433Y18705014D01*
X34579134Y18641247D01*
X34474568Y18555432D01*
X34388753Y18450866D01*
X34324986Y18331567D01*
X34285719Y18202120D01*
X34272460Y18067500D01*
X34272460Y17742500D01*
X34285719Y17607880D01*
X34324986Y17478433D01*
X34388753Y17359134D01*
X34461903Y17270000D01*
X34388753Y17180866D01*
X34324986Y17061567D01*
X34285719Y16932120D01*
X34272460Y16797500D01*
X34272460Y16472500D01*
X34285719Y16337880D01*
X34324986Y16208433D01*
X34388753Y16089134D01*
X34461903Y16000000D01*
X34388753Y15910866D01*
X34324986Y15791567D01*
X34285719Y15662120D01*
X34272460Y15527500D01*
X34272460Y15202500D01*
X34285719Y15067880D01*
X34324986Y14938433D01*
X34388753Y14819134D01*
X34461903Y14730000D01*
X34388753Y14640866D01*
X34324986Y14521567D01*
X34285719Y14392120D01*
X34272460Y14257500D01*
X34272460Y13932500D01*
X34285719Y13797880D01*
X34324986Y13668433D01*
X34388753Y13549134D01*
X34474568Y13444568D01*
X34579134Y13358753D01*
X34698433Y13294986D01*
X34827880Y13255719D01*
X34962500Y13242460D01*
X36612500Y13242460D01*
X36747120Y13255719D01*
X36876567Y13294986D01*
X36995866Y13358753D01*
X37100432Y13444568D01*
X37100787Y13445000D01*
X37121852Y13445000D01*
X37185347Y13381505D01*
X37225518Y13354663D01*
X37204530Y13337173D01*
X36672991Y13050960D01*
X36001206Y12925000D01*
X35575048Y12925000D01*
X35551881Y12937383D01*
X35452918Y12967403D01*
X35350000Y12977540D01*
X34550000Y12977540D01*
X34447082Y12967403D01*
X34348119Y12937383D01*
X34256914Y12888633D01*
X34176973Y12823027D01*
X34111367Y12743086D01*
X34062617Y12651881D01*
X34032597Y12552918D01*
X34022460Y12450000D01*
X33977540Y12450000D01*
X33967403Y12552918D01*
X33937383Y12651881D01*
X33888633Y12743086D01*
X33823027Y12823027D01*
X33743086Y12888633D01*
X33651881Y12937383D01*
X33552918Y12967403D01*
X33450000Y12977540D01*
X32650000Y12977540D01*
X32547082Y12967403D01*
X32448119Y12937383D01*
X32356914Y12888633D01*
X32276973Y12823027D01*
X32211367Y12743086D01*
X32162617Y12651881D01*
X32132597Y12552918D01*
X32122460Y12450000D01*
X32122460Y12400332D01*
X31980158Y12542634D01*
X31951975Y12576975D01*
X31814932Y12689443D01*
X31658581Y12773014D01*
X31488931Y12824477D01*
X31358745Y12837299D01*
X31321501Y12906979D01*
X31224804Y13024804D01*
X31106979Y13121501D01*
X30972552Y13193353D01*
X30826691Y13237600D01*
X30675001Y13252540D01*
X29824999Y13252540D01*
X29673309Y13237600D01*
X29581612Y13209784D01*
X29138533Y13414282D01*
X28957157Y13588726D01*
X28875000Y13835198D01*
X28875000Y15298013D01*
X29001016Y15928097D01*
X29173031Y16272125D01*
X29218636Y16311781D01*
X29249986Y16208433D01*
X29313753Y16089134D01*
X29399568Y15984568D01*
X29504134Y15898753D01*
X29623433Y15834986D01*
X29752880Y15795719D01*
X29887500Y15782460D01*
X31537500Y15782460D01*
X31672120Y15795719D01*
X31801567Y15834986D01*
X31920866Y15898753D01*
X31934571Y15910000D01*
X32229403Y15910000D01*
X32265000Y15906494D01*
X32300597Y15910000D01*
X32300607Y15910000D01*
X32407125Y15920491D01*
X32543788Y15961947D01*
X32669737Y16029269D01*
X32780132Y16119868D01*
X32802832Y16147528D01*
X33227476Y16572172D01*
X33255131Y16594868D01*
X33293914Y16642124D01*
X33345731Y16705263D01*
X33356281Y16725000D01*
X33413053Y16831212D01*
X33454509Y16967875D01*
X33465000Y17074393D01*
X33465000Y17074402D01*
X33468506Y17109999D01*
X33465000Y17145596D01*
X33465000Y17980082D01*
X33559725Y18121848D01*
X33629453Y18290187D01*
X33665000Y18468895D01*
X33665000Y18651105D01*
X33629453Y18829813D01*
X33559725Y18998152D01*
X33458495Y19149653D01*
X33329653Y19278495D01*
X33178152Y19379725D01*
X33009813Y19449453D01*
X33007063Y19450000D01*
X49450001Y19450000D01*
X49450000Y550000D01*
G37*
%TD.AperFunction*%
D23*
X13294732Y19444305D02*
X13162467Y19373608D01*
X13046535Y19278465D01*
X12951392Y19162533D01*
X12880695Y19030268D01*
X12837160Y18886752D01*
X12822460Y18737500D01*
X12822460Y18262500D01*
X12837160Y18113248D01*
X12880695Y17969732D01*
X12951392Y17837467D01*
X13046535Y17721535D01*
X13150001Y17636623D01*
X13150000Y17363377D01*
X13046535Y17278465D01*
X12951392Y17162533D01*
X12880695Y17030268D01*
X12837160Y16886752D01*
X12822460Y16737500D01*
X12822460Y16262500D01*
X12837160Y16113248D01*
X12880695Y15969732D01*
X12951392Y15837467D01*
X13046535Y15721535D01*
X13150000Y15636623D01*
X13150001Y14863377D01*
X13046535Y14778465D01*
X12951392Y14662533D01*
X12880695Y14530268D01*
X12837160Y14386752D01*
X12822460Y14237500D01*
X12822460Y14123554D01*
X12212500Y14733514D01*
X12212500Y14838430D01*
X12272552Y14856647D01*
X12406979Y14928499D01*
X12524804Y15025196D01*
X12621501Y15143021D01*
X12693353Y15277448D01*
X12737600Y15423309D01*
X12752540Y15574999D01*
X12752540Y16425001D01*
X12737600Y16576691D01*
X12693353Y16722552D01*
X12621501Y16856979D01*
X12524804Y16974804D01*
X12406979Y17071501D01*
X12272552Y17143353D01*
X12126691Y17187600D01*
X11975001Y17202540D01*
X10899999Y17202540D01*
X10748309Y17187600D01*
X10602448Y17143353D01*
X10468021Y17071501D01*
X10350196Y16974804D01*
X10253499Y16856979D01*
X10181647Y16722552D01*
X10137400Y16576691D01*
X10122460Y16425001D01*
X10122460Y15574999D01*
X10137400Y15423309D01*
X10181647Y15277448D01*
X10253499Y15143021D01*
X10350196Y15025196D01*
X10468021Y14928499D01*
X10602448Y14856647D01*
X10662501Y14838430D01*
X10662501Y14450572D01*
X10658751Y14412500D01*
X10673715Y14260574D01*
X10718031Y14114486D01*
X10789994Y13979850D01*
X10820918Y13942170D01*
X10886842Y13861841D01*
X10916414Y13837572D01*
X12822460Y11931525D01*
X12822460Y11762500D01*
X12837160Y11613248D01*
X12880695Y11469732D01*
X12951392Y11337467D01*
X13046535Y11221535D01*
X13162467Y11126392D01*
X13294732Y11055695D01*
X13438248Y11012160D01*
X13587500Y10997460D01*
X14162500Y10997460D01*
X14311752Y11012160D01*
X14455268Y11055695D01*
X14587533Y11126392D01*
X14703465Y11221535D01*
X14750000Y11278238D01*
X14796535Y11221535D01*
X14912467Y11126392D01*
X15044732Y11055695D01*
X15188248Y11012160D01*
X15337500Y10997460D01*
X15912500Y10997460D01*
X16061752Y11012160D01*
X16205268Y11055695D01*
X16337533Y11126392D01*
X16453465Y11221535D01*
X16548608Y11337467D01*
X16619305Y11469732D01*
X16662840Y11613248D01*
X16677540Y11762500D01*
X16677540Y12237500D01*
X16662840Y12386752D01*
X16619305Y12530268D01*
X16548608Y12662533D01*
X16453465Y12778465D01*
X16337533Y12873608D01*
X16205268Y12944305D01*
X16061752Y12987840D01*
X15912500Y13002540D01*
X15897765Y13002540D01*
X14927540Y13972764D01*
X14927540Y14237500D01*
X14912840Y14386752D01*
X14869305Y14530268D01*
X14798608Y14662533D01*
X14703465Y14778465D01*
X14600000Y14863377D01*
X14600000Y15636623D01*
X14703465Y15721535D01*
X14750000Y15778238D01*
X14796535Y15721535D01*
X14912467Y15626392D01*
X15044732Y15555695D01*
X15188248Y15512160D01*
X15337500Y15497460D01*
X15912500Y15497460D01*
X16061752Y15512160D01*
X16205268Y15555695D01*
X16337533Y15626392D01*
X16453465Y15721535D01*
X16548608Y15837467D01*
X16582033Y15900000D01*
X16886623Y15900000D01*
X16971535Y15796535D01*
X17087467Y15701392D01*
X17219732Y15630695D01*
X17363248Y15587160D01*
X17512500Y15572460D01*
X17987500Y15572460D01*
X18136752Y15587160D01*
X18280268Y15630695D01*
X18412533Y15701392D01*
X18528465Y15796535D01*
X18623608Y15912467D01*
X18694305Y16044732D01*
X18737840Y16188248D01*
X18752540Y16337500D01*
X18752540Y16487236D01*
X19389183Y17123879D01*
X19425263Y17094269D01*
X19551212Y17026947D01*
X19687875Y16985491D01*
X19777855Y16976629D01*
X19826914Y16936367D01*
X19918119Y16887617D01*
X20017082Y16857597D01*
X20120000Y16847460D01*
X21555001Y16847460D01*
X21555001Y16652540D01*
X20120000Y16652540D01*
X20017082Y16642403D01*
X19918119Y16612383D01*
X19826914Y16563633D01*
X19746973Y16498027D01*
X19681367Y16418086D01*
X19632617Y16326881D01*
X19602597Y16227918D01*
X19592460Y16125000D01*
X19592460Y15475000D01*
X19602597Y15372082D01*
X19632617Y15273119D01*
X19681367Y15181914D01*
X19746973Y15101973D01*
X19826914Y15036367D01*
X19918119Y14987617D01*
X20017082Y14957597D01*
X20120000Y14947460D01*
X20175001Y14947460D01*
X20175001Y14515616D01*
X20175000Y14515606D01*
X20175000Y14515597D01*
X20171494Y14480000D01*
X20175000Y14444403D01*
X20175000Y13442691D01*
X20123309Y13437600D01*
X19977448Y13393353D01*
X19843021Y13321501D01*
X19725196Y13224804D01*
X19628499Y13106979D01*
X19556647Y12972552D01*
X19519471Y12850000D01*
X18613377Y12850000D01*
X18528465Y12953465D01*
X18412533Y13048608D01*
X18280268Y13119305D01*
X18136752Y13162840D01*
X17987500Y13177540D01*
X17512500Y13177540D01*
X17363248Y13162840D01*
X17219732Y13119305D01*
X17087467Y13048608D01*
X16971535Y12953465D01*
X16876392Y12837533D01*
X16805695Y12705268D01*
X16762160Y12561752D01*
X16747460Y12412500D01*
X16747460Y11837500D01*
X16762160Y11688248D01*
X16805695Y11544732D01*
X16876392Y11412467D01*
X16971535Y11296535D01*
X17087467Y11201392D01*
X17219732Y11130695D01*
X17363248Y11087160D01*
X17512500Y11072460D01*
X17987500Y11072460D01*
X18136752Y11087160D01*
X18280268Y11130695D01*
X18412533Y11201392D01*
X18528465Y11296535D01*
X18613377Y11400000D01*
X19624769Y11400000D01*
X19628499Y11393021D01*
X19725196Y11275196D01*
X19843021Y11178499D01*
X19977448Y11106647D01*
X20123309Y11062400D01*
X20274999Y11047460D01*
X21350001Y11047460D01*
X21501691Y11062400D01*
X21647552Y11106647D01*
X21781979Y11178499D01*
X21899804Y11275196D01*
X21996501Y11393021D01*
X22068353Y11527448D01*
X22112600Y11673309D01*
X22127540Y11824999D01*
X22127540Y12675001D01*
X22112600Y12826691D01*
X22068353Y12972552D01*
X21996501Y13106979D01*
X21899804Y13224804D01*
X21781979Y13321501D01*
X21647552Y13393353D01*
X21625000Y13400194D01*
X21625000Y13875000D01*
X23999696Y13875000D01*
X24987172Y12887523D01*
X25009868Y12859868D01*
X25037523Y12837172D01*
X25037525Y12837170D01*
X25089236Y12794732D01*
X25120263Y12769269D01*
X25246212Y12701947D01*
X25376402Y12662454D01*
X25471535Y12546535D01*
X25528238Y12500000D01*
X25471535Y12453465D01*
X25376392Y12337533D01*
X25305695Y12205268D01*
X25262160Y12061752D01*
X25247460Y11912500D01*
X25247460Y11337500D01*
X25262160Y11188248D01*
X25305695Y11044732D01*
X25376392Y10912467D01*
X25471535Y10796535D01*
X25587467Y10701392D01*
X25719732Y10630695D01*
X25863248Y10587160D01*
X26012500Y10572460D01*
X26487500Y10572460D01*
X26636752Y10587160D01*
X26662552Y10594986D01*
X26757276Y10500262D01*
X26834685Y10319640D01*
X26875000Y9876184D01*
X26875000Y7734160D01*
X26619318Y7414557D01*
X26487500Y7427540D01*
X26012500Y7427540D01*
X25933208Y7419730D01*
X25152386Y7881125D01*
X25023745Y7935557D01*
X24947436Y7956418D01*
X24808994Y7975000D01*
X24651820Y7975000D01*
X24581881Y8012383D01*
X24482918Y8042403D01*
X24380000Y8052540D01*
X22971350Y8052540D01*
X22933053Y8178788D01*
X22865731Y8304737D01*
X22775132Y8415132D01*
X22747472Y8437832D01*
X22547832Y8637472D01*
X22525132Y8665132D01*
X22414737Y8755731D01*
X22288788Y8823053D01*
X22152125Y8864509D01*
X22045607Y8875000D01*
X22045597Y8875000D01*
X22010000Y8878506D01*
X21974403Y8875000D01*
X18592860Y8875000D01*
X18528465Y8953465D01*
X18412533Y9048608D01*
X18280268Y9119305D01*
X18136752Y9162840D01*
X17987500Y9177540D01*
X17512500Y9177540D01*
X17363248Y9162840D01*
X17219732Y9119305D01*
X17087467Y9048608D01*
X16971535Y8953465D01*
X16886623Y8850000D01*
X16582033Y8850000D01*
X16548608Y8912533D01*
X16453465Y9028465D01*
X16337533Y9123608D01*
X16205268Y9194305D01*
X16061752Y9237840D01*
X15912500Y9252540D01*
X15337500Y9252540D01*
X15188248Y9237840D01*
X15044732Y9194305D01*
X14912467Y9123608D01*
X14796535Y9028465D01*
X14750000Y8971762D01*
X14703465Y9028465D01*
X14587533Y9123608D01*
X14455268Y9194305D01*
X14311752Y9237840D01*
X14162500Y9252540D01*
X13587500Y9252540D01*
X13438248Y9237840D01*
X13294732Y9194305D01*
X13162467Y9123608D01*
X13046535Y9028465D01*
X12951392Y8912533D01*
X12880695Y8780268D01*
X12837160Y8636752D01*
X12822460Y8487500D01*
X12822460Y8012500D01*
X12837160Y7863248D01*
X12880695Y7719732D01*
X12951392Y7587467D01*
X13046535Y7471535D01*
X13150001Y7386623D01*
X13150000Y7113377D01*
X13046535Y7028465D01*
X12951392Y6912533D01*
X12880695Y6780268D01*
X12837160Y6636752D01*
X12822460Y6487500D01*
X12822460Y6012500D01*
X12837160Y5863248D01*
X12880695Y5719732D01*
X12951392Y5587467D01*
X13046535Y5471535D01*
X13150001Y5386623D01*
X13150000Y4613377D01*
X13046535Y4528465D01*
X12951392Y4412533D01*
X12880695Y4280268D01*
X12837160Y4136752D01*
X12822460Y3987500D01*
X12822460Y3873555D01*
X12752540Y3943475D01*
X12752540Y4425001D01*
X12737600Y4576691D01*
X12693353Y4722552D01*
X12621501Y4856979D01*
X12524804Y4974804D01*
X12406979Y5071501D01*
X12272552Y5143353D01*
X12126691Y5187600D01*
X11975001Y5202540D01*
X10899999Y5202540D01*
X10748309Y5187600D01*
X10602448Y5143353D01*
X10468021Y5071501D01*
X10350196Y4974804D01*
X10253499Y4856979D01*
X10181647Y4722552D01*
X10137400Y4576691D01*
X10122460Y4425001D01*
X10122460Y3574999D01*
X10137400Y3423309D01*
X10181647Y3277448D01*
X10253499Y3143021D01*
X10350196Y3025196D01*
X10468021Y2928499D01*
X10602448Y2856647D01*
X10748309Y2812400D01*
X10899999Y2797460D01*
X11706525Y2797460D01*
X12822460Y1681524D01*
X12822460Y1512500D01*
X12837160Y1363248D01*
X12880695Y1219732D01*
X12951392Y1087467D01*
X13046535Y971535D01*
X13162467Y876392D01*
X13294732Y805695D01*
X13438248Y762160D01*
X13587500Y747460D01*
X14162500Y747460D01*
X14311752Y762160D01*
X14455268Y805695D01*
X14587533Y876392D01*
X14703465Y971535D01*
X14750000Y1028238D01*
X14796535Y971535D01*
X14912467Y876392D01*
X15044732Y805695D01*
X15188248Y762160D01*
X15337500Y747460D01*
X15912500Y747460D01*
X16061752Y762160D01*
X16205268Y805695D01*
X16337533Y876392D01*
X16453465Y971535D01*
X16548608Y1087467D01*
X16619305Y1219732D01*
X16662840Y1363248D01*
X16677540Y1512500D01*
X16677540Y1987500D01*
X16662840Y2136752D01*
X16619305Y2280268D01*
X16548608Y2412533D01*
X16453465Y2528465D01*
X16337533Y2623608D01*
X16205268Y2694305D01*
X16061752Y2737840D01*
X15912500Y2752540D01*
X15897765Y2752540D01*
X14927540Y3722764D01*
X14927540Y3987500D01*
X14912840Y4136752D01*
X14869305Y4280268D01*
X14798608Y4412533D01*
X14703465Y4528465D01*
X14600000Y4613377D01*
X14600000Y5386623D01*
X14703465Y5471535D01*
X14750000Y5528238D01*
X14796535Y5471535D01*
X14912467Y5376392D01*
X15044732Y5305695D01*
X15188248Y5262160D01*
X15337500Y5247460D01*
X15912500Y5247460D01*
X16061752Y5262160D01*
X16205268Y5305695D01*
X16337533Y5376392D01*
X16453465Y5471535D01*
X16548608Y5587467D01*
X16582033Y5650000D01*
X16886623Y5650000D01*
X16971535Y5546535D01*
X17087467Y5451392D01*
X17219732Y5380695D01*
X17363248Y5337160D01*
X17512500Y5322460D01*
X17777236Y5322460D01*
X18445001Y4654694D01*
X18445000Y3049918D01*
X18350275Y2908152D01*
X18324411Y2845710D01*
X18280268Y2869305D01*
X18136752Y2912840D01*
X17987500Y2927540D01*
X17512500Y2927540D01*
X17363248Y2912840D01*
X17219732Y2869305D01*
X17087467Y2798608D01*
X16971535Y2703465D01*
X16876392Y2587533D01*
X16805695Y2455268D01*
X16762160Y2311752D01*
X16747460Y2162500D01*
X16747460Y1587500D01*
X16762160Y1438248D01*
X16805695Y1294732D01*
X16876392Y1162467D01*
X16971535Y1046535D01*
X17087467Y951392D01*
X17219732Y880695D01*
X17363248Y837160D01*
X17512500Y822460D01*
X17987500Y822460D01*
X18136752Y837160D01*
X18280268Y880695D01*
X18344448Y915000D01*
X19868276Y915000D01*
X19977448Y856647D01*
X20123309Y812400D01*
X20274999Y797460D01*
X21350001Y797460D01*
X21501691Y812400D01*
X21647552Y856647D01*
X21781979Y928499D01*
X21899804Y1025196D01*
X21996501Y1143021D01*
X22068353Y1277448D01*
X22112600Y1423309D01*
X22127540Y1574999D01*
X22127540Y2425001D01*
X22112600Y2576691D01*
X22068353Y2722552D01*
X21996501Y2856979D01*
X21899804Y2974804D01*
X21781979Y3071501D01*
X21647552Y3143353D01*
X21537500Y3176737D01*
X21537500Y3537500D01*
X24287196Y3537500D01*
X25247460Y2577235D01*
X25247460Y2337500D01*
X25262160Y2188248D01*
X25305695Y2044732D01*
X25307629Y2041114D01*
X25231848Y2009725D01*
X25080347Y1908495D01*
X24951505Y1779653D01*
X24850275Y1628152D01*
X24780547Y1459813D01*
X24745000Y1281105D01*
X24745000Y1098895D01*
X24780547Y920187D01*
X24850275Y751848D01*
X24951505Y600347D01*
X25001852Y550000D01*
X550000Y550000D01*
X550000Y7700199D01*
X2275000Y7700199D01*
X2275000Y7399801D01*
X2333605Y7105174D01*
X2448562Y6827642D01*
X2615455Y6577869D01*
X2827869Y6365455D01*
X3077642Y6198562D01*
X3355174Y6083605D01*
X3649801Y6025000D01*
X3725000Y6025000D01*
X3725001Y3595537D01*
X3698119Y3587383D01*
X3606914Y3538633D01*
X3526973Y3473027D01*
X3461367Y3393086D01*
X3412617Y3301881D01*
X3382597Y3202918D01*
X3372460Y3100000D01*
X3372460Y1400000D01*
X3382597Y1297082D01*
X3412617Y1198119D01*
X3461367Y1106914D01*
X3526973Y1026973D01*
X3606914Y961367D01*
X3698119Y912617D01*
X3797082Y882597D01*
X3900000Y872460D01*
X5600000Y872460D01*
X5702918Y882597D01*
X5801881Y912617D01*
X5893086Y961367D01*
X5973027Y1026973D01*
X6038633Y1106914D01*
X6087383Y1198119D01*
X6095537Y1225000D01*
X6749650Y1225000D01*
X6800000Y1220041D01*
X6850350Y1225000D01*
X6850351Y1225000D01*
X7000935Y1239831D01*
X7194148Y1298442D01*
X7372215Y1393620D01*
X7528291Y1521709D01*
X7560396Y1560829D01*
X8797028Y2797460D01*
X9100001Y2797460D01*
X9251691Y2812400D01*
X9397552Y2856647D01*
X9531979Y2928499D01*
X9649804Y3025196D01*
X9746501Y3143021D01*
X9818353Y3277448D01*
X9862600Y3423309D01*
X9877540Y3574999D01*
X9877540Y4425001D01*
X9862600Y4576691D01*
X9818353Y4722552D01*
X9746501Y4856979D01*
X9649804Y4974804D01*
X9531979Y5071501D01*
X9397552Y5143353D01*
X9251691Y5187600D01*
X9100001Y5202540D01*
X8024999Y5202540D01*
X7873309Y5187600D01*
X7727448Y5143353D01*
X7593021Y5071501D01*
X7475196Y4974804D01*
X7378499Y4856979D01*
X7306647Y4722552D01*
X7262400Y4576691D01*
X7247460Y4425001D01*
X7247460Y4147028D01*
X6375433Y3275000D01*
X6095537Y3275000D01*
X6087383Y3301881D01*
X6038633Y3393086D01*
X5973027Y3473027D01*
X5893086Y3538633D01*
X5801881Y3587383D01*
X5775000Y3595537D01*
X5775000Y6499649D01*
X5779959Y6550000D01*
X5770590Y6645132D01*
X5760169Y6750935D01*
X5701558Y6944148D01*
X5606380Y7122215D01*
X5516483Y7231754D01*
X5510388Y7239181D01*
X5478291Y7278291D01*
X5439181Y7310388D01*
X5325000Y7424569D01*
X5325000Y7700199D01*
X5266395Y7994826D01*
X5151438Y8272358D01*
X4984545Y8522131D01*
X4772131Y8734545D01*
X4522358Y8901438D01*
X4244826Y9016395D01*
X3950199Y9075000D01*
X3649801Y9075000D01*
X3355174Y9016395D01*
X3077642Y8901438D01*
X2827869Y8734545D01*
X2615455Y8522131D01*
X2448562Y8272358D01*
X2333605Y7994826D01*
X2275000Y7700199D01*
X550000Y7700199D01*
X550000Y10105878D01*
X925000Y10105878D01*
X925000Y9894122D01*
X966312Y9686434D01*
X1047348Y9490797D01*
X1164993Y9314728D01*
X1314728Y9164993D01*
X1490797Y9047348D01*
X1686434Y8966312D01*
X1894122Y8925000D01*
X2105878Y8925000D01*
X2313566Y8966312D01*
X2509203Y9047348D01*
X2685272Y9164993D01*
X2835007Y9314728D01*
X2952652Y9490797D01*
X3033688Y9686434D01*
X3075000Y9894122D01*
X3075000Y10105878D01*
X3033688Y10313566D01*
X2952652Y10509203D01*
X2835007Y10685272D01*
X2685272Y10835007D01*
X2509203Y10952652D01*
X2313566Y11033688D01*
X2105878Y11075000D01*
X1894122Y11075000D01*
X1686434Y11033688D01*
X1490797Y10952652D01*
X1314728Y10835007D01*
X1164993Y10685272D01*
X1047348Y10509203D01*
X966312Y10313566D01*
X925000Y10105878D01*
X550000Y10105878D01*
X550000Y18600000D01*
X3372460Y18600000D01*
X3372460Y16900000D01*
X3382597Y16797082D01*
X3412617Y16698119D01*
X3461367Y16606914D01*
X3526973Y16526973D01*
X3606914Y16461367D01*
X3698119Y16412617D01*
X3797082Y16382597D01*
X3900000Y16372460D01*
X4677972Y16372460D01*
X5739611Y15310820D01*
X5771709Y15271709D01*
X5810819Y15239612D01*
X5927785Y15143620D01*
X6105851Y15048442D01*
X6182483Y15025196D01*
X6299065Y14989831D01*
X6351010Y14984715D01*
X6500000Y14970041D01*
X6550351Y14975000D01*
X7536360Y14975000D01*
X7593021Y14928499D01*
X7725000Y14857955D01*
X7725001Y13531677D01*
X7615455Y13422131D01*
X7448562Y13172358D01*
X7333605Y12894826D01*
X7275000Y12600199D01*
X7275000Y12299801D01*
X7333605Y12005174D01*
X7397654Y11850544D01*
X6418034Y10675000D01*
X5250000Y10675000D01*
X5215859Y10671637D01*
X5183030Y10661679D01*
X5152775Y10645507D01*
X5126256Y10623744D01*
X5104493Y10597225D01*
X5088321Y10566970D01*
X5078363Y10534141D01*
X5075000Y10500000D01*
X5075000Y9500000D01*
X5078363Y9465859D01*
X5088321Y9433030D01*
X5104493Y9402775D01*
X5126256Y9376256D01*
X5152775Y9354493D01*
X5183030Y9338321D01*
X5215859Y9328363D01*
X5250000Y9325000D01*
X7158130Y9325000D01*
X7164993Y9314728D01*
X7314728Y9164993D01*
X7490797Y9047348D01*
X7686434Y8966312D01*
X7894122Y8925000D01*
X8105878Y8925000D01*
X8313566Y8966312D01*
X8509203Y9047348D01*
X8685272Y9164993D01*
X8835007Y9314728D01*
X8841870Y9325000D01*
X25000000Y9325000D01*
X25034141Y9328363D01*
X25066970Y9338321D01*
X25097225Y9354493D01*
X25123744Y9376256D01*
X25145507Y9402775D01*
X25161679Y9433030D01*
X25171637Y9465859D01*
X25175000Y9500000D01*
X25175000Y10500000D01*
X25171637Y10534141D01*
X25161679Y10566970D01*
X25145507Y10597225D01*
X25123744Y10623744D01*
X25097225Y10645507D01*
X25066970Y10661679D01*
X25034141Y10671637D01*
X25000000Y10675000D01*
X10843658Y10675000D01*
X10146662Y11720494D01*
X10151438Y11727642D01*
X10266395Y12005174D01*
X10325000Y12299801D01*
X10325000Y12600199D01*
X10266395Y12894826D01*
X10151438Y13172358D01*
X9984545Y13422131D01*
X9775000Y13631676D01*
X9775000Y15196339D01*
X9818353Y15277448D01*
X9862600Y15423309D01*
X9877540Y15574999D01*
X9877540Y16425001D01*
X9862600Y16576691D01*
X9818353Y16722552D01*
X9746501Y16856979D01*
X9649804Y16974804D01*
X9531979Y17071501D01*
X9397552Y17143353D01*
X9251691Y17187600D01*
X9100001Y17202540D01*
X8024999Y17202540D01*
X7873309Y17187600D01*
X7727448Y17143353D01*
X7593021Y17071501D01*
X7536360Y17025000D01*
X6924569Y17025000D01*
X6127540Y17822028D01*
X6127540Y18600000D01*
X6117403Y18702918D01*
X6087383Y18801881D01*
X6038633Y18893086D01*
X5973027Y18973027D01*
X5893086Y19038633D01*
X5801881Y19087383D01*
X5702918Y19117403D01*
X5600000Y19127540D01*
X3900000Y19127540D01*
X3797082Y19117403D01*
X3698119Y19087383D01*
X3606914Y19038633D01*
X3526973Y18973027D01*
X3461367Y18893086D01*
X3412617Y18801881D01*
X3382597Y18702918D01*
X3372460Y18600000D01*
X550000Y18600000D01*
X550000Y19450000D01*
X13313506Y19450000D01*
X13294732Y19444305D01*
%TA.AperFunction,Conductor*%
D22*
G36*
X13294732Y19444305D02*
G01*
X13162467Y19373608D01*
X13046535Y19278465D01*
X12951392Y19162533D01*
X12880695Y19030268D01*
X12837160Y18886752D01*
X12822460Y18737500D01*
X12822460Y18262500D01*
X12837160Y18113248D01*
X12880695Y17969732D01*
X12951392Y17837467D01*
X13046535Y17721535D01*
X13150001Y17636623D01*
X13150000Y17363377D01*
X13046535Y17278465D01*
X12951392Y17162533D01*
X12880695Y17030268D01*
X12837160Y16886752D01*
X12822460Y16737500D01*
X12822460Y16262500D01*
X12837160Y16113248D01*
X12880695Y15969732D01*
X12951392Y15837467D01*
X13046535Y15721535D01*
X13150000Y15636623D01*
X13150001Y14863377D01*
X13046535Y14778465D01*
X12951392Y14662533D01*
X12880695Y14530268D01*
X12837160Y14386752D01*
X12822460Y14237500D01*
X12822460Y14123554D01*
X12212500Y14733514D01*
X12212500Y14838430D01*
X12272552Y14856647D01*
X12406979Y14928499D01*
X12524804Y15025196D01*
X12621501Y15143021D01*
X12693353Y15277448D01*
X12737600Y15423309D01*
X12752540Y15574999D01*
X12752540Y16425001D01*
X12737600Y16576691D01*
X12693353Y16722552D01*
X12621501Y16856979D01*
X12524804Y16974804D01*
X12406979Y17071501D01*
X12272552Y17143353D01*
X12126691Y17187600D01*
X11975001Y17202540D01*
X10899999Y17202540D01*
X10748309Y17187600D01*
X10602448Y17143353D01*
X10468021Y17071501D01*
X10350196Y16974804D01*
X10253499Y16856979D01*
X10181647Y16722552D01*
X10137400Y16576691D01*
X10122460Y16425001D01*
X10122460Y15574999D01*
X10137400Y15423309D01*
X10181647Y15277448D01*
X10253499Y15143021D01*
X10350196Y15025196D01*
X10468021Y14928499D01*
X10602448Y14856647D01*
X10662501Y14838430D01*
X10662501Y14450572D01*
X10658751Y14412500D01*
X10673715Y14260574D01*
X10718031Y14114486D01*
X10789994Y13979850D01*
X10820918Y13942170D01*
X10886842Y13861841D01*
X10916414Y13837572D01*
X12822460Y11931525D01*
X12822460Y11762500D01*
X12837160Y11613248D01*
X12880695Y11469732D01*
X12951392Y11337467D01*
X13046535Y11221535D01*
X13162467Y11126392D01*
X13294732Y11055695D01*
X13438248Y11012160D01*
X13587500Y10997460D01*
X14162500Y10997460D01*
X14311752Y11012160D01*
X14455268Y11055695D01*
X14587533Y11126392D01*
X14703465Y11221535D01*
X14750000Y11278238D01*
X14796535Y11221535D01*
X14912467Y11126392D01*
X15044732Y11055695D01*
X15188248Y11012160D01*
X15337500Y10997460D01*
X15912500Y10997460D01*
X16061752Y11012160D01*
X16205268Y11055695D01*
X16337533Y11126392D01*
X16453465Y11221535D01*
X16548608Y11337467D01*
X16619305Y11469732D01*
X16662840Y11613248D01*
X16677540Y11762500D01*
X16677540Y12237500D01*
X16662840Y12386752D01*
X16619305Y12530268D01*
X16548608Y12662533D01*
X16453465Y12778465D01*
X16337533Y12873608D01*
X16205268Y12944305D01*
X16061752Y12987840D01*
X15912500Y13002540D01*
X15897765Y13002540D01*
X14927540Y13972764D01*
X14927540Y14237500D01*
X14912840Y14386752D01*
X14869305Y14530268D01*
X14798608Y14662533D01*
X14703465Y14778465D01*
X14600000Y14863377D01*
X14600000Y15636623D01*
X14703465Y15721535D01*
X14750000Y15778238D01*
X14796535Y15721535D01*
X14912467Y15626392D01*
X15044732Y15555695D01*
X15188248Y15512160D01*
X15337500Y15497460D01*
X15912500Y15497460D01*
X16061752Y15512160D01*
X16205268Y15555695D01*
X16337533Y15626392D01*
X16453465Y15721535D01*
X16548608Y15837467D01*
X16582033Y15900000D01*
X16886623Y15900000D01*
X16971535Y15796535D01*
X17087467Y15701392D01*
X17219732Y15630695D01*
X17363248Y15587160D01*
X17512500Y15572460D01*
X17987500Y15572460D01*
X18136752Y15587160D01*
X18280268Y15630695D01*
X18412533Y15701392D01*
X18528465Y15796535D01*
X18623608Y15912467D01*
X18694305Y16044732D01*
X18737840Y16188248D01*
X18752540Y16337500D01*
X18752540Y16487236D01*
X19389183Y17123879D01*
X19425263Y17094269D01*
X19551212Y17026947D01*
X19687875Y16985491D01*
X19777855Y16976629D01*
X19826914Y16936367D01*
X19918119Y16887617D01*
X20017082Y16857597D01*
X20120000Y16847460D01*
X21555001Y16847460D01*
X21555001Y16652540D01*
X20120000Y16652540D01*
X20017082Y16642403D01*
X19918119Y16612383D01*
X19826914Y16563633D01*
X19746973Y16498027D01*
X19681367Y16418086D01*
X19632617Y16326881D01*
X19602597Y16227918D01*
X19592460Y16125000D01*
X19592460Y15475000D01*
X19602597Y15372082D01*
X19632617Y15273119D01*
X19681367Y15181914D01*
X19746973Y15101973D01*
X19826914Y15036367D01*
X19918119Y14987617D01*
X20017082Y14957597D01*
X20120000Y14947460D01*
X20175001Y14947460D01*
X20175001Y14515616D01*
X20175000Y14515606D01*
X20175000Y14515597D01*
X20171494Y14480000D01*
X20175000Y14444403D01*
X20175000Y13442691D01*
X20123309Y13437600D01*
X19977448Y13393353D01*
X19843021Y13321501D01*
X19725196Y13224804D01*
X19628499Y13106979D01*
X19556647Y12972552D01*
X19519471Y12850000D01*
X18613377Y12850000D01*
X18528465Y12953465D01*
X18412533Y13048608D01*
X18280268Y13119305D01*
X18136752Y13162840D01*
X17987500Y13177540D01*
X17512500Y13177540D01*
X17363248Y13162840D01*
X17219732Y13119305D01*
X17087467Y13048608D01*
X16971535Y12953465D01*
X16876392Y12837533D01*
X16805695Y12705268D01*
X16762160Y12561752D01*
X16747460Y12412500D01*
X16747460Y11837500D01*
X16762160Y11688248D01*
X16805695Y11544732D01*
X16876392Y11412467D01*
X16971535Y11296535D01*
X17087467Y11201392D01*
X17219732Y11130695D01*
X17363248Y11087160D01*
X17512500Y11072460D01*
X17987500Y11072460D01*
X18136752Y11087160D01*
X18280268Y11130695D01*
X18412533Y11201392D01*
X18528465Y11296535D01*
X18613377Y11400000D01*
X19624769Y11400000D01*
X19628499Y11393021D01*
X19725196Y11275196D01*
X19843021Y11178499D01*
X19977448Y11106647D01*
X20123309Y11062400D01*
X20274999Y11047460D01*
X21350001Y11047460D01*
X21501691Y11062400D01*
X21647552Y11106647D01*
X21781979Y11178499D01*
X21899804Y11275196D01*
X21996501Y11393021D01*
X22068353Y11527448D01*
X22112600Y11673309D01*
X22127540Y11824999D01*
X22127540Y12675001D01*
X22112600Y12826691D01*
X22068353Y12972552D01*
X21996501Y13106979D01*
X21899804Y13224804D01*
X21781979Y13321501D01*
X21647552Y13393353D01*
X21625000Y13400194D01*
X21625000Y13875000D01*
X23999696Y13875000D01*
X24987172Y12887523D01*
X25009868Y12859868D01*
X25037523Y12837172D01*
X25037525Y12837170D01*
X25089236Y12794732D01*
X25120263Y12769269D01*
X25246212Y12701947D01*
X25376402Y12662454D01*
X25471535Y12546535D01*
X25528238Y12500000D01*
X25471535Y12453465D01*
X25376392Y12337533D01*
X25305695Y12205268D01*
X25262160Y12061752D01*
X25247460Y11912500D01*
X25247460Y11337500D01*
X25262160Y11188248D01*
X25305695Y11044732D01*
X25376392Y10912467D01*
X25471535Y10796535D01*
X25587467Y10701392D01*
X25719732Y10630695D01*
X25863248Y10587160D01*
X26012500Y10572460D01*
X26487500Y10572460D01*
X26636752Y10587160D01*
X26662552Y10594986D01*
X26757276Y10500262D01*
X26834685Y10319640D01*
X26875000Y9876184D01*
X26875000Y7734160D01*
X26619318Y7414557D01*
X26487500Y7427540D01*
X26012500Y7427540D01*
X25933208Y7419730D01*
X25152386Y7881125D01*
X25023745Y7935557D01*
X24947436Y7956418D01*
X24808994Y7975000D01*
X24651820Y7975000D01*
X24581881Y8012383D01*
X24482918Y8042403D01*
X24380000Y8052540D01*
X22971350Y8052540D01*
X22933053Y8178788D01*
X22865731Y8304737D01*
X22775132Y8415132D01*
X22747472Y8437832D01*
X22547832Y8637472D01*
X22525132Y8665132D01*
X22414737Y8755731D01*
X22288788Y8823053D01*
X22152125Y8864509D01*
X22045607Y8875000D01*
X22045597Y8875000D01*
X22010000Y8878506D01*
X21974403Y8875000D01*
X18592860Y8875000D01*
X18528465Y8953465D01*
X18412533Y9048608D01*
X18280268Y9119305D01*
X18136752Y9162840D01*
X17987500Y9177540D01*
X17512500Y9177540D01*
X17363248Y9162840D01*
X17219732Y9119305D01*
X17087467Y9048608D01*
X16971535Y8953465D01*
X16886623Y8850000D01*
X16582033Y8850000D01*
X16548608Y8912533D01*
X16453465Y9028465D01*
X16337533Y9123608D01*
X16205268Y9194305D01*
X16061752Y9237840D01*
X15912500Y9252540D01*
X15337500Y9252540D01*
X15188248Y9237840D01*
X15044732Y9194305D01*
X14912467Y9123608D01*
X14796535Y9028465D01*
X14750000Y8971762D01*
X14703465Y9028465D01*
X14587533Y9123608D01*
X14455268Y9194305D01*
X14311752Y9237840D01*
X14162500Y9252540D01*
X13587500Y9252540D01*
X13438248Y9237840D01*
X13294732Y9194305D01*
X13162467Y9123608D01*
X13046535Y9028465D01*
X12951392Y8912533D01*
X12880695Y8780268D01*
X12837160Y8636752D01*
X12822460Y8487500D01*
X12822460Y8012500D01*
X12837160Y7863248D01*
X12880695Y7719732D01*
X12951392Y7587467D01*
X13046535Y7471535D01*
X13150001Y7386623D01*
X13150000Y7113377D01*
X13046535Y7028465D01*
X12951392Y6912533D01*
X12880695Y6780268D01*
X12837160Y6636752D01*
X12822460Y6487500D01*
X12822460Y6012500D01*
X12837160Y5863248D01*
X12880695Y5719732D01*
X12951392Y5587467D01*
X13046535Y5471535D01*
X13150001Y5386623D01*
X13150000Y4613377D01*
X13046535Y4528465D01*
X12951392Y4412533D01*
X12880695Y4280268D01*
X12837160Y4136752D01*
X12822460Y3987500D01*
X12822460Y3873555D01*
X12752540Y3943475D01*
X12752540Y4425001D01*
X12737600Y4576691D01*
X12693353Y4722552D01*
X12621501Y4856979D01*
X12524804Y4974804D01*
X12406979Y5071501D01*
X12272552Y5143353D01*
X12126691Y5187600D01*
X11975001Y5202540D01*
X10899999Y5202540D01*
X10748309Y5187600D01*
X10602448Y5143353D01*
X10468021Y5071501D01*
X10350196Y4974804D01*
X10253499Y4856979D01*
X10181647Y4722552D01*
X10137400Y4576691D01*
X10122460Y4425001D01*
X10122460Y3574999D01*
X10137400Y3423309D01*
X10181647Y3277448D01*
X10253499Y3143021D01*
X10350196Y3025196D01*
X10468021Y2928499D01*
X10602448Y2856647D01*
X10748309Y2812400D01*
X10899999Y2797460D01*
X11706525Y2797460D01*
X12822460Y1681524D01*
X12822460Y1512500D01*
X12837160Y1363248D01*
X12880695Y1219732D01*
X12951392Y1087467D01*
X13046535Y971535D01*
X13162467Y876392D01*
X13294732Y805695D01*
X13438248Y762160D01*
X13587500Y747460D01*
X14162500Y747460D01*
X14311752Y762160D01*
X14455268Y805695D01*
X14587533Y876392D01*
X14703465Y971535D01*
X14750000Y1028238D01*
X14796535Y971535D01*
X14912467Y876392D01*
X15044732Y805695D01*
X15188248Y762160D01*
X15337500Y747460D01*
X15912500Y747460D01*
X16061752Y762160D01*
X16205268Y805695D01*
X16337533Y876392D01*
X16453465Y971535D01*
X16548608Y1087467D01*
X16619305Y1219732D01*
X16662840Y1363248D01*
X16677540Y1512500D01*
X16677540Y1987500D01*
X16662840Y2136752D01*
X16619305Y2280268D01*
X16548608Y2412533D01*
X16453465Y2528465D01*
X16337533Y2623608D01*
X16205268Y2694305D01*
X16061752Y2737840D01*
X15912500Y2752540D01*
X15897765Y2752540D01*
X14927540Y3722764D01*
X14927540Y3987500D01*
X14912840Y4136752D01*
X14869305Y4280268D01*
X14798608Y4412533D01*
X14703465Y4528465D01*
X14600000Y4613377D01*
X14600000Y5386623D01*
X14703465Y5471535D01*
X14750000Y5528238D01*
X14796535Y5471535D01*
X14912467Y5376392D01*
X15044732Y5305695D01*
X15188248Y5262160D01*
X15337500Y5247460D01*
X15912500Y5247460D01*
X16061752Y5262160D01*
X16205268Y5305695D01*
X16337533Y5376392D01*
X16453465Y5471535D01*
X16548608Y5587467D01*
X16582033Y5650000D01*
X16886623Y5650000D01*
X16971535Y5546535D01*
X17087467Y5451392D01*
X17219732Y5380695D01*
X17363248Y5337160D01*
X17512500Y5322460D01*
X17777236Y5322460D01*
X18445001Y4654694D01*
X18445000Y3049918D01*
X18350275Y2908152D01*
X18324411Y2845710D01*
X18280268Y2869305D01*
X18136752Y2912840D01*
X17987500Y2927540D01*
X17512500Y2927540D01*
X17363248Y2912840D01*
X17219732Y2869305D01*
X17087467Y2798608D01*
X16971535Y2703465D01*
X16876392Y2587533D01*
X16805695Y2455268D01*
X16762160Y2311752D01*
X16747460Y2162500D01*
X16747460Y1587500D01*
X16762160Y1438248D01*
X16805695Y1294732D01*
X16876392Y1162467D01*
X16971535Y1046535D01*
X17087467Y951392D01*
X17219732Y880695D01*
X17363248Y837160D01*
X17512500Y822460D01*
X17987500Y822460D01*
X18136752Y837160D01*
X18280268Y880695D01*
X18344448Y915000D01*
X19868276Y915000D01*
X19977448Y856647D01*
X20123309Y812400D01*
X20274999Y797460D01*
X21350001Y797460D01*
X21501691Y812400D01*
X21647552Y856647D01*
X21781979Y928499D01*
X21899804Y1025196D01*
X21996501Y1143021D01*
X22068353Y1277448D01*
X22112600Y1423309D01*
X22127540Y1574999D01*
X22127540Y2425001D01*
X22112600Y2576691D01*
X22068353Y2722552D01*
X21996501Y2856979D01*
X21899804Y2974804D01*
X21781979Y3071501D01*
X21647552Y3143353D01*
X21537500Y3176737D01*
X21537500Y3537500D01*
X24287196Y3537500D01*
X25247460Y2577235D01*
X25247460Y2337500D01*
X25262160Y2188248D01*
X25305695Y2044732D01*
X25307629Y2041114D01*
X25231848Y2009725D01*
X25080347Y1908495D01*
X24951505Y1779653D01*
X24850275Y1628152D01*
X24780547Y1459813D01*
X24745000Y1281105D01*
X24745000Y1098895D01*
X24780547Y920187D01*
X24850275Y751848D01*
X24951505Y600347D01*
X25001852Y550000D01*
X550000Y550000D01*
X550000Y7700199D01*
X2275000Y7700199D01*
X2275000Y7399801D01*
X2333605Y7105174D01*
X2448562Y6827642D01*
X2615455Y6577869D01*
X2827869Y6365455D01*
X3077642Y6198562D01*
X3355174Y6083605D01*
X3649801Y6025000D01*
X3725000Y6025000D01*
X3725001Y3595537D01*
X3698119Y3587383D01*
X3606914Y3538633D01*
X3526973Y3473027D01*
X3461367Y3393086D01*
X3412617Y3301881D01*
X3382597Y3202918D01*
X3372460Y3100000D01*
X3372460Y1400000D01*
X3382597Y1297082D01*
X3412617Y1198119D01*
X3461367Y1106914D01*
X3526973Y1026973D01*
X3606914Y961367D01*
X3698119Y912617D01*
X3797082Y882597D01*
X3900000Y872460D01*
X5600000Y872460D01*
X5702918Y882597D01*
X5801881Y912617D01*
X5893086Y961367D01*
X5973027Y1026973D01*
X6038633Y1106914D01*
X6087383Y1198119D01*
X6095537Y1225000D01*
X6749650Y1225000D01*
X6800000Y1220041D01*
X6850350Y1225000D01*
X6850351Y1225000D01*
X7000935Y1239831D01*
X7194148Y1298442D01*
X7372215Y1393620D01*
X7528291Y1521709D01*
X7560396Y1560829D01*
X8797028Y2797460D01*
X9100001Y2797460D01*
X9251691Y2812400D01*
X9397552Y2856647D01*
X9531979Y2928499D01*
X9649804Y3025196D01*
X9746501Y3143021D01*
X9818353Y3277448D01*
X9862600Y3423309D01*
X9877540Y3574999D01*
X9877540Y4425001D01*
X9862600Y4576691D01*
X9818353Y4722552D01*
X9746501Y4856979D01*
X9649804Y4974804D01*
X9531979Y5071501D01*
X9397552Y5143353D01*
X9251691Y5187600D01*
X9100001Y5202540D01*
X8024999Y5202540D01*
X7873309Y5187600D01*
X7727448Y5143353D01*
X7593021Y5071501D01*
X7475196Y4974804D01*
X7378499Y4856979D01*
X7306647Y4722552D01*
X7262400Y4576691D01*
X7247460Y4425001D01*
X7247460Y4147028D01*
X6375433Y3275000D01*
X6095537Y3275000D01*
X6087383Y3301881D01*
X6038633Y3393086D01*
X5973027Y3473027D01*
X5893086Y3538633D01*
X5801881Y3587383D01*
X5775000Y3595537D01*
X5775000Y6499649D01*
X5779959Y6550000D01*
X5770590Y6645132D01*
X5760169Y6750935D01*
X5701558Y6944148D01*
X5606380Y7122215D01*
X5516483Y7231754D01*
X5510388Y7239181D01*
X5478291Y7278291D01*
X5439181Y7310388D01*
X5325000Y7424569D01*
X5325000Y7700199D01*
X5266395Y7994826D01*
X5151438Y8272358D01*
X4984545Y8522131D01*
X4772131Y8734545D01*
X4522358Y8901438D01*
X4244826Y9016395D01*
X3950199Y9075000D01*
X3649801Y9075000D01*
X3355174Y9016395D01*
X3077642Y8901438D01*
X2827869Y8734545D01*
X2615455Y8522131D01*
X2448562Y8272358D01*
X2333605Y7994826D01*
X2275000Y7700199D01*
X550000Y7700199D01*
X550000Y10105878D01*
X925000Y10105878D01*
X925000Y9894122D01*
X966312Y9686434D01*
X1047348Y9490797D01*
X1164993Y9314728D01*
X1314728Y9164993D01*
X1490797Y9047348D01*
X1686434Y8966312D01*
X1894122Y8925000D01*
X2105878Y8925000D01*
X2313566Y8966312D01*
X2509203Y9047348D01*
X2685272Y9164993D01*
X2835007Y9314728D01*
X2952652Y9490797D01*
X3033688Y9686434D01*
X3075000Y9894122D01*
X3075000Y10105878D01*
X3033688Y10313566D01*
X2952652Y10509203D01*
X2835007Y10685272D01*
X2685272Y10835007D01*
X2509203Y10952652D01*
X2313566Y11033688D01*
X2105878Y11075000D01*
X1894122Y11075000D01*
X1686434Y11033688D01*
X1490797Y10952652D01*
X1314728Y10835007D01*
X1164993Y10685272D01*
X1047348Y10509203D01*
X966312Y10313566D01*
X925000Y10105878D01*
X550000Y10105878D01*
X550000Y18600000D01*
X3372460Y18600000D01*
X3372460Y16900000D01*
X3382597Y16797082D01*
X3412617Y16698119D01*
X3461367Y16606914D01*
X3526973Y16526973D01*
X3606914Y16461367D01*
X3698119Y16412617D01*
X3797082Y16382597D01*
X3900000Y16372460D01*
X4677972Y16372460D01*
X5739611Y15310820D01*
X5771709Y15271709D01*
X5810819Y15239612D01*
X5927785Y15143620D01*
X6105851Y15048442D01*
X6182483Y15025196D01*
X6299065Y14989831D01*
X6351010Y14984715D01*
X6500000Y14970041D01*
X6550351Y14975000D01*
X7536360Y14975000D01*
X7593021Y14928499D01*
X7725000Y14857955D01*
X7725001Y13531677D01*
X7615455Y13422131D01*
X7448562Y13172358D01*
X7333605Y12894826D01*
X7275000Y12600199D01*
X7275000Y12299801D01*
X7333605Y12005174D01*
X7397654Y11850544D01*
X6418034Y10675000D01*
X5250000Y10675000D01*
X5215859Y10671637D01*
X5183030Y10661679D01*
X5152775Y10645507D01*
X5126256Y10623744D01*
X5104493Y10597225D01*
X5088321Y10566970D01*
X5078363Y10534141D01*
X5075000Y10500000D01*
X5075000Y9500000D01*
X5078363Y9465859D01*
X5088321Y9433030D01*
X5104493Y9402775D01*
X5126256Y9376256D01*
X5152775Y9354493D01*
X5183030Y9338321D01*
X5215859Y9328363D01*
X5250000Y9325000D01*
X7158130Y9325000D01*
X7164993Y9314728D01*
X7314728Y9164993D01*
X7490797Y9047348D01*
X7686434Y8966312D01*
X7894122Y8925000D01*
X8105878Y8925000D01*
X8313566Y8966312D01*
X8509203Y9047348D01*
X8685272Y9164993D01*
X8835007Y9314728D01*
X8841870Y9325000D01*
X25000000Y9325000D01*
X25034141Y9328363D01*
X25066970Y9338321D01*
X25097225Y9354493D01*
X25123744Y9376256D01*
X25145507Y9402775D01*
X25161679Y9433030D01*
X25171637Y9465859D01*
X25175000Y9500000D01*
X25175000Y10500000D01*
X25171637Y10534141D01*
X25161679Y10566970D01*
X25145507Y10597225D01*
X25123744Y10623744D01*
X25097225Y10645507D01*
X25066970Y10661679D01*
X25034141Y10671637D01*
X25000000Y10675000D01*
X10843658Y10675000D01*
X10146662Y11720494D01*
X10151438Y11727642D01*
X10266395Y12005174D01*
X10325000Y12299801D01*
X10325000Y12600199D01*
X10266395Y12894826D01*
X10151438Y13172358D01*
X9984545Y13422131D01*
X9775000Y13631676D01*
X9775000Y15196339D01*
X9818353Y15277448D01*
X9862600Y15423309D01*
X9877540Y15574999D01*
X9877540Y16425001D01*
X9862600Y16576691D01*
X9818353Y16722552D01*
X9746501Y16856979D01*
X9649804Y16974804D01*
X9531979Y17071501D01*
X9397552Y17143353D01*
X9251691Y17187600D01*
X9100001Y17202540D01*
X8024999Y17202540D01*
X7873309Y17187600D01*
X7727448Y17143353D01*
X7593021Y17071501D01*
X7536360Y17025000D01*
X6924569Y17025000D01*
X6127540Y17822028D01*
X6127540Y18600000D01*
X6117403Y18702918D01*
X6087383Y18801881D01*
X6038633Y18893086D01*
X5973027Y18973027D01*
X5893086Y19038633D01*
X5801881Y19087383D01*
X5702918Y19117403D01*
X5600000Y19127540D01*
X3900000Y19127540D01*
X3797082Y19117403D01*
X3698119Y19087383D01*
X3606914Y19038633D01*
X3526973Y18973027D01*
X3461367Y18893086D01*
X3412617Y18801881D01*
X3382597Y18702918D01*
X3372460Y18600000D01*
X550000Y18600000D01*
X550000Y19450000D01*
X13313506Y19450000D01*
X13294732Y19444305D01*
G37*
%TD.AperFunction*%
D23*
X19826914Y6436367D02*
X19918119Y6387617D01*
X20017082Y6357597D01*
X20120000Y6347460D01*
X21535000Y6347460D01*
X21535000Y6152540D01*
X20120000Y6152540D01*
X20017082Y6142403D01*
X19918119Y6112383D01*
X19826914Y6063633D01*
X19746973Y5998027D01*
X19681367Y5918086D01*
X19632617Y5826881D01*
X19602597Y5727918D01*
X19592460Y5625000D01*
X19592460Y5557845D01*
X18775304Y6375000D01*
X18875305Y6475000D01*
X19779840Y6475000D01*
X19826914Y6436367D01*
%TA.AperFunction,Conductor*%
D22*
G36*
X19826914Y6436367D02*
G01*
X19918119Y6387617D01*
X20017082Y6357597D01*
X20120000Y6347460D01*
X21535000Y6347460D01*
X21535000Y6152540D01*
X20120000Y6152540D01*
X20017082Y6142403D01*
X19918119Y6112383D01*
X19826914Y6063633D01*
X19746973Y5998027D01*
X19681367Y5918086D01*
X19632617Y5826881D01*
X19602597Y5727918D01*
X19592460Y5625000D01*
X19592460Y5557845D01*
X18775304Y6375000D01*
X18875305Y6475000D01*
X19779840Y6475000D01*
X19826914Y6436367D01*
G37*
%TD.AperFunction*%
D23*
X25154755Y16745154D02*
X25217934Y16733413D01*
X25254314Y16728934D01*
X25318466Y16725000D01*
X25683615Y16725000D01*
X25719732Y16705695D01*
X25863248Y16662160D01*
X26012500Y16647460D01*
X26487500Y16647460D01*
X26636752Y16662160D01*
X26652441Y16666919D01*
X26735852Y16604361D01*
X26875000Y16326065D01*
X26875000Y14318670D01*
X26780268Y14369305D01*
X26636752Y14412840D01*
X26487500Y14427540D01*
X26012500Y14427540D01*
X25863248Y14412840D01*
X25719732Y14369305D01*
X25613032Y14312273D01*
X24837832Y15087472D01*
X24815132Y15115132D01*
X24784475Y15140292D01*
X24818633Y15181914D01*
X24867383Y15273119D01*
X24897403Y15372082D01*
X24907540Y15475000D01*
X24907540Y16125000D01*
X24897403Y16227918D01*
X24867383Y16326881D01*
X24818633Y16418086D01*
X24753027Y16498027D01*
X24673086Y16563633D01*
X24581881Y16612383D01*
X24482918Y16642403D01*
X24380000Y16652540D01*
X23005000Y16652540D01*
X23005000Y16847460D01*
X24380000Y16847460D01*
X24482918Y16857597D01*
X24581881Y16887617D01*
X24582843Y16888131D01*
X25154755Y16745154D01*
%TA.AperFunction,Conductor*%
D22*
G36*
X25154755Y16745154D02*
G01*
X25217934Y16733413D01*
X25254314Y16728934D01*
X25318466Y16725000D01*
X25683615Y16725000D01*
X25719732Y16705695D01*
X25863248Y16662160D01*
X26012500Y16647460D01*
X26487500Y16647460D01*
X26636752Y16662160D01*
X26652441Y16666919D01*
X26735852Y16604361D01*
X26875000Y16326065D01*
X26875000Y14318670D01*
X26780268Y14369305D01*
X26636752Y14412840D01*
X26487500Y14427540D01*
X26012500Y14427540D01*
X25863248Y14412840D01*
X25719732Y14369305D01*
X25613032Y14312273D01*
X24837832Y15087472D01*
X24815132Y15115132D01*
X24784475Y15140292D01*
X24818633Y15181914D01*
X24867383Y15273119D01*
X24897403Y15372082D01*
X24907540Y15475000D01*
X24907540Y16125000D01*
X24897403Y16227918D01*
X24867383Y16326881D01*
X24818633Y16418086D01*
X24753027Y16498027D01*
X24673086Y16563633D01*
X24581881Y16612383D01*
X24482918Y16642403D01*
X24380000Y16652540D01*
X23005000Y16652540D01*
X23005000Y16847460D01*
X24380000Y16847460D01*
X24482918Y16857597D01*
X24581881Y16887617D01*
X24582843Y16888131D01*
X25154755Y16745154D01*
G37*
%TD.AperFunction*%
%TD*%
M02*
